<?xml version="1.0" encoding="utf-8"?>
<!-- Generator: Adobe Illustrator 15.1.0, SVG Export Plug-In . SVG Version: 6.00 Build 0)  -->
<!DOCTYPE svg PUBLIC "-//W3C//DTD SVG 1.1//EN" "http://www.w3.org/Graphics/SVG/1.1/DTD/svg11.dtd">
<svg version="1.1" id="Layer_1" xmlns="http://www.w3.org/2000/svg" xmlns:xlink="http://www.w3.org/1999/xlink" x="0px" y="0px"
	 width="334.688px" height="334.927px" viewBox="8 30 334.688 334.927" enable-background="new 8 30 334.688 334.927"
	 xml:space="preserve">
<path fill="#FFFFFF" d="M89.759,71.238c0,22.711-18.288,41.238-40.879,41.238C26.288,112.477,8,94.069,8,71.238
	C8,48.527,26.288,30,48.88,30C71.471,30,89.759,48.527,89.759,71.238z M83.782,141.643H14.694v223.284h69.089V141.643z
	 M194.23,141.643h-66.221v223.284h66.221c0,0,0-82.835,0-117.141c0-31.437,14.463-50.083,42.075-50.083
	c25.46,0,37.652,17.93,37.652,50.083c0,32.154,0,117.141,0,117.141h68.73c0,0,0-81.52,0-141.405
	c0-59.766-33.828-88.692-81.281-88.692c-47.335,0-67.297,36.936-67.297,36.936v-30.122H194.23L194.23,141.643z"/>
</svg>
