<svg xmlns="http://www.w3.org/2000/svg" width="570" height="187.3">
  <path fill="#4885ED" d="M140.436 66.147H74.355v19.436H121c-2.332 27.21-25.655 39.648-46.645 39.648-27.987 0-52.087-21.768-52.087-52.087 0-29.542 23.322-52.865 52.087-52.865 22.545 0 35.761 13.994 35.761 13.994l13.994-13.994S106.23.844 74.355.844c-41.203 0-73.078 34.984-73.078 72.3 0 36.539 29.542 72.3 73.855 72.3 38.871 0 66.859-26.432 66.859-65.303-.778-9.33-1.555-13.994-1.555-13.994z"/><path fill="#DB3236" d="M194.855 52.154c-27.21 0-46.645 20.99-46.645 45.867 0 24.878 18.658 46.646 46.645 46.646 25.655 0 46.645-19.436 46.645-46.646-.777-30.319-24.877-45.867-46.645-45.867zm0 17.88c13.216 0 26.433 10.884 26.433 27.987 0 17.104-12.44 27.988-26.433 27.988-14.77 0-26.432-11.662-26.432-27.988 0-15.548 11.661-27.987 26.432-27.987z"/><path fill="#F4C20D" d="M295.92 52.154c-27.21 0-46.645 20.99-46.645 45.867 0 24.878 18.658 46.646 46.645 46.646 25.655 0 46.645-19.436 46.645-46.646 0-30.319-24.1-45.867-46.645-45.867zm0 17.88c13.216 0 26.432 10.884 26.432 27.987 0 17.104-12.439 27.988-26.432 27.988-14.771 0-26.432-11.662-26.432-27.988 0-15.548 11.66-27.987 26.432-27.987z"/><path fill="#4885ED" d="M395.43 52.154c-24.878 0-44.313 21.767-44.313 46.645 0 27.987 22.545 46.645 44.313 46.645 13.216 0 20.213-5.442 25.655-11.661v9.329c0 16.326-10.107 25.655-24.1 25.655-13.994 0-20.99-10.884-24.1-16.326l-17.881 7.774c6.22 13.216 19.435 27.21 41.98 27.21 24.878 0 43.536-15.549 43.536-48.2V55.263h-20.213v7.774c-5.442-6.996-13.993-10.883-24.877-10.883zm2.332 17.88c12.439 0 24.878 10.107 24.878 27.987 0 17.881-12.44 27.988-24.878 27.988-13.216 0-25.655-10.884-25.655-27.988-.777-17.103 12.439-27.987 25.655-27.987z"/><path fill="#DB3236" d="M526.814 52.154c-23.323 0-43.536 18.658-43.536 46.645 0 29.542 21.768 46.645 45.868 46.645 19.436 0 31.874-10.884 38.871-20.213l-16.326-10.884c-3.887 6.22-10.884 12.439-22.545 12.439-13.216 0-19.435-6.997-22.545-13.994l62.194-25.655-3.11-7.774c-6.22-14.77-20.213-27.21-38.871-27.21zm.777 17.88c8.552 0 14.771 4.665 17.104 10.107L503.49 97.244c-2.332-13.216 10.884-27.21 24.1-27.21z"/><path fill="#3CBA54" d="M453.736 142.334h20.213V5.508h-20.213v136.826z"/></svg>
