<svg version="1.1" xmlns="http://www.w3.org/2000/svg" xmlns:xlink="http://www.w3.org/1999/xlink" x="0px" y="0px" viewBox="0 0 1000 1000" enable-background="new 0 0 1000 1000" xml:space="preserve">
<g><path d="M920,80H80c-38.7,0-70,31.4-70,70.1v560.7c0,38.7,31.3,70.1,70,70.1h315v69h-70c-19.3,0-35,15.7-35,35c0,19.4,15.7,35,35,35h350c19.3,0,35-15.7,35-35c0-19.4-15.7-35-35-35h-70v-69h315c38.7,0,70-31.4,70-70.1V150.1C990,111.4,958.7,80,920,80z M920,690c0,12.1-9.8,21.9-21.9,21.9H101.9c-12.1,0-21.9-9.8-21.9-21.9V173.1c0-12.1,9.8-21.9,21.9-21.9h796.3c12.1,0,21.9,9.8,21.9,21.9L920,690L920,690z"/></g>
</svg>
