<?xml version="1.0" encoding="utf-8"?>
<!-- Generator: Adobe Illustrator 22.1.0, SVG Export Plug-In . SVG Version: 6.00 Build 0)  -->
<svg version="1.1" id="Layer_1" xmlns="http://www.w3.org/2000/svg" xmlns:xlink="http://www.w3.org/1999/xlink" x="0px" y="0px"
	 viewBox="0 0 70 72" style="enable-background:new 0 0 70 72;" xml:space="preserve">
<style type="text/css">
	.st0{fill:#4ECC96;stroke:#FFFFFF;stroke-width:2;stroke-miterlimit:10;}
	.st1{fill:none;stroke:#009245;stroke-width:2;stroke-miterlimit:10;}
	.st2{fill:none;stroke:#009245;stroke-miterlimit:10;}
	.st3{fill:#FFFFFF;}
</style>
<g>
	<circle class="st0" cx="35" cy="36" r="34"/>
	<circle class="st1" cx="31.6" cy="24.6" r="7.2"/>
	<circle class="st2" cx="31.6" cy="24.6" r="13.1"/>
	<path class="st3" d="M49.3,49.9c0.1-0.8,0-1.3,0-1.3v-8.3c0-1.3-1.1-2.4-2.4-2.4h-0.1c-1.3,0-2.4,1.1-2.4,2.4v-2.9
		c0-1.3-1.1-2.4-2.4-2.4h-0.1c-1.3,0-2.4,1.1-2.4,2.4V35c0-1.3-1.1-2.4-2.4-2.4h-0.1c-1.3,0-2.4,1.1-2.4,2.4V24.3
		c0-1.3-1.1-2.4-2.4-2.4h-0.1c-1.3,0-2.4,1.1-2.4,2.4v16.4c-0.8-2.2-2.6-5.9-5.3-5.3c-1.1,0.3-1,1-1,1.9s2.4,10.2,2.4,10.2
		s2.4,7.3,5.3,9.2c2.9,1.9,6.3,2.4,9.2,1.9c2.9-0.5,6-1.8,7.3-3.9c1-1.5,1.5-2.8,1.7-3.9c0.1-0.3,0.2-0.6,0.2-1V49.9z M34.4,43.8
		L34.4,43.8c0-0.2,0-0.3,0-0.5V43.8z"/>
</g>
</svg>
