<?xml version="1.0" encoding="utf-8"?>
<!-- Generator: Adobe Illustrator 15.1.0, SVG Export Plug-In . SVG Version: 6.00 Build 0)  -->
<!DOCTYPE svg PUBLIC "-//W3C//DTD SVG 1.1//EN" "http://www.w3.org/Graphics/SVG/1.1/DTD/svg11.dtd">
<svg version="1.1" id="Layer_1" xmlns="http://www.w3.org/2000/svg" xmlns:xlink="http://www.w3.org/1999/xlink" x="0px" y="0px"
	 width="610.841px" height="514.019px" viewBox="0 138.96 610.841 514.019" enable-background="new 0 138.96 610.841 514.019"
	 xml:space="preserve">
<g>
	<path d="M563.039,138.96H48.96c-23.685,0-42.84,19.217-42.84,42.901V525.01c0,23.685,19.155,42.901,42.84,42.901H241.74v42.228
		H198.9c-11.812,0-21.42,9.608-21.42,21.42c0,11.873,9.608,21.42,21.42,21.42h214.2c11.812,0,21.42-9.608,21.42-21.42
		c0-11.873-9.608-21.42-21.42-21.42h-42.84v-42.228h192.779c23.685,0,42.841-19.217,42.841-42.901V181.861
		C605.88,158.177,586.724,138.96,563.039,138.96z M563.039,512.28c0,7.405-5.997,13.402-13.402,13.402H62.363
		c-7.405,0-13.402-5.997-13.402-13.402V195.937c0-7.405,5.997-13.403,13.402-13.403h487.336c7.405,0,13.402,5.998,13.402,13.403
		L563.039,512.28L563.039,512.28z"/>
</g>
</svg>
