<?xml version="1.0" encoding="utf-8"?>
<!-- Generator: Adobe Illustrator 15.1.0, SVG Export Plug-In . SVG Version: 6.00 Build 0)  -->
<!DOCTYPE svg PUBLIC "-//W3C//DTD SVG 1.1//EN" "http://www.w3.org/Graphics/SVG/1.1/DTD/svg11.dtd">
<svg version="1.1" id="Layer_1" xmlns="http://www.w3.org/2000/svg" xmlns:xlink="http://www.w3.org/1999/xlink" x="0px" y="0px"
	 width="440.113px" height="438.707px" viewBox="-25 -14 440.113 438.707" enable-background="new -25 -14 440.113 438.707"
	 xml:space="preserve">
<path d="M359.55,326.328V36.35c0-20.202-12.503-50.251-46.966-50.251H44.535c-4.822-0.361-22.577-0.508-39.377,14.352
	C-14.854,18.156-25,49.509-25,93.664v13.642h54.541v271.44c0,16.205,4.37,28.6,12.992,36.818c6.817,6.498,14.234,8.391,18.563,8.922
	v0.221h285.841c53.93,0,68.177-55.496,68.177-84.842v-13.672L359.55,326.328z M2.644,80.028
	c1.94-33.079,10.852-49.431,18.868-57.522c3.861,3.048,8.029,10.937,8.029,27.754v29.768H2.644z M84.835,340.617
	c0,42.932-12.688,55.777-20.716,56.744c-3.452-0.635-7.313-5.82-7.313-18.623V50.26c0-16.432-3.372-28.403-8.28-36.983l264.06,0.092
	c17.956,0,19.614,17.656,19.688,22.981V326.4L84.836,327.02L84.835,340.617L84.835,340.617z M346.937,397.43H101.658
	c5-10.172,8.808-24.113,10.03-43.221l274.923-0.68C383.895,370.58,375.131,397.43,346.937,397.43 M217.89,71.907h85.166v27.271
	H217.89V71.907L217.89,71.907z M217.89,132.507h85.166v27.265H217.89V132.507L217.89,132.507z M217.89,191.687h85.166v27.265H217.89
	V191.687L217.89,191.687z M101.658,253.847h202.565v27.271H101.658V253.847z M181.819,151.393c0,3.47-0.526,6.958-1.565,10.354
	c-1.064,3.507-2.87,6.787-5.355,9.743c-2.453,2.925-5.673,5.478-9.559,7.564c-3.231,1.732-7.101,3.072-11.519,3.984v19.927h-26.17
	v-19.21c-6.73-0.704-12.387-1.879-16.836-3.495c-4.986-1.799-8.609-3.274-11.07-4.517l-2.454-1.23l8.979-24.021l3.029,1.469
	c3.544,1.726,7.852,3.323,12.797,4.743c4.841,1.401,10.043,2.111,15.459,2.111c7.57,0,10.441-1.279,11.476-2.038
	c1.592-1.163,2.331-2.729,2.331-4.933c0-1.408-0.3-2.546-0.918-3.476c-0.71-1.071-1.805-2.087-3.249-3.017
	c-1.635-1.059-3.765-2.124-6.335-3.158c-2.717-1.102-5.855-2.276-9.412-3.531c-3.593-1.31-7.124-2.754-10.525-4.321
	c-3.55-1.634-6.824-3.672-9.73-6.059c-3.029-2.497-5.483-5.582-7.308-9.18c-1.86-3.647-2.803-8.048-2.803-13.078
	c0-3.794,0.557-7.509,1.651-11.016c1.12-3.586,2.876-6.897,5.228-9.835c2.368-2.956,5.465-5.49,9.197-7.528
	c3.029-1.658,6.556-2.956,10.503-3.868V56.024h26.169v16.854c4.504,0.532,8.519,1.267,11.971,2.179
	c4.101,1.095,7.448,2.215,9.943,3.354l2.346,1.059l-6.469,25.024l-3.27-1.389c-3.315-1.401-7.246-2.638-11.665-3.654
	c-4.375-1.003-9.045-1.512-13.874-1.512c-5.459,0-7.974,1.047-9.124,1.916c-1.48,1.132-2.143,2.436-2.143,4.248
	c0,1.15,0.215,2.124,0.637,2.87c0.44,0.777,1.199,1.518,2.258,2.191c1.322,0.857,3.005,1.702,5.007,2.534
	c2.131,0.894,4.7,1.848,7.705,2.889c4.816,1.756,9.29,3.69,13.354,5.741c4.198,2.136,7.895,4.614,10.991,7.375
	c3.212,2.858,5.759,6.261,7.576,10.123C180.889,141.742,181.819,146.296,181.819,151.393z"/>
</svg>
