<svg xmlns="http://www.w3.org/2000/svg" viewBox="0 0 100 125">
  <path d="M78.868,70.637V23.255c0-3.301-2.043-8.211-7.674-8.211H27.395c-0.788-0.059-3.689-0.083-6.434,2.345 c-3.27,2.893-4.928,8.016-4.928,15.231v2.229h8.912v44.353c0,2.648,0.714,4.673,2.123,6.016c1.114,1.062,2.326,1.371,3.033,1.458  v0.036h46.706c8.812,0,11.14-9.068,11.14-13.863v-2.234L78.868,70.637z M20.55,30.392c0.317-5.405,1.773-8.077,3.083-9.399  c0.631,0.498,1.312,1.787,1.312,4.535v4.864H20.55z M33.98,72.972c0,7.015-2.073,9.114-3.385,9.272  c-0.564-0.104-1.195-0.951-1.195-3.043V25.528c0-2.685-0.551-4.641-1.353-6.043L71.194,19.5c2.934,0,3.205,2.885,3.217,3.755v47.394  L33.98,70.75V72.972z M76.807,82.255H36.729c0.817-1.662,1.439-3.94,1.639-7.062l44.922-0.111  C82.846,77.868,81.414,82.255,76.807,82.255 M55.721,29.065h13.916v4.456H55.721V29.065z M55.721,38.967h13.916v4.455H55.721V38.967  z M55.721,48.637h13.916v4.455H55.721V48.637z M36.729,58.794h33.099v4.456H36.729V58.794z M49.827,42.053  c0,0.567-0.086,1.137-0.256,1.692c-0.174,0.573-0.469,1.109-0.875,1.592c-0.401,0.478-0.927,0.895-1.562,1.236  c-0.528,0.283-1.16,0.502-1.882,0.651v3.256h-4.276v-3.139c-1.1-0.115-2.024-0.307-2.751-0.571  c-0.815-0.294-1.407-0.535-1.809-0.738l-0.401-0.201l1.467-3.925l0.495,0.24c0.579,0.282,1.283,0.543,2.091,0.775  c0.791,0.229,1.641,0.345,2.526,0.345c1.237,0,1.706-0.209,1.875-0.333c0.26-0.19,0.381-0.446,0.381-0.806  c0-0.23-0.049-0.416-0.15-0.568c-0.116-0.175-0.295-0.341-0.531-0.493c-0.267-0.173-0.615-0.347-1.035-0.516  c-0.444-0.18-0.957-0.372-1.538-0.577c-0.587-0.214-1.164-0.45-1.72-0.706c-0.58-0.267-1.115-0.6-1.59-0.99  c-0.495-0.408-0.896-0.912-1.194-1.5c-0.304-0.596-0.458-1.315-0.458-2.137c0-0.62,0.091-1.227,0.27-1.8  c0.183-0.586,0.47-1.127,0.854-1.607c0.387-0.483,0.893-0.897,1.503-1.23c0.495-0.271,1.071-0.483,1.716-0.632V26.47h4.276v2.754  c0.736,0.087,1.392,0.207,1.956,0.356c0.67,0.179,1.217,0.362,1.625,0.548l0.383,0.173l-1.057,4.089l-0.534-0.227  c-0.542-0.229-1.184-0.431-1.906-0.597c-0.715-0.164-1.478-0.247-2.267-0.247c-0.892,0-1.303,0.171-1.491,0.313  c-0.242,0.185-0.35,0.398-0.35,0.694c0,0.188,0.035,0.347,0.104,0.469c0.072,0.127,0.196,0.248,0.369,0.358  c0.216,0.14,0.491,0.278,0.818,0.414c0.348,0.146,0.768,0.302,1.259,0.472c0.787,0.287,1.518,0.603,2.182,0.938  c0.686,0.349,1.29,0.754,1.796,1.205c0.525,0.467,0.941,1.023,1.238,1.654C49.675,40.476,49.827,41.22,49.827,42.053z"/>
</svg>
