<?xml version="1.0" encoding="utf-8"?>
<!-- Generator: Adobe Illustrator 15.1.0, SVG Export Plug-In . SVG Version: 6.00 Build 0)  -->
<!DOCTYPE svg PUBLIC "-//W3C//DTD SVG 1.1//EN" "http://www.w3.org/Graphics/SVG/1.1/DTD/svg11.dtd">
<svg version="1.1" id="Layer_1" xmlns="http://www.w3.org/2000/svg" xmlns:xlink="http://www.w3.org/1999/xlink" x="0px" y="0px"
	 width="97.385px" height="63.96px" viewBox="0 0 97.385 63.96" enable-background="new 0 0 97.385 63.96" xml:space="preserve">
<g>
	<g>
		<path d="M97.265,54.548c-0.093-0.107-0.229-0.172-0.373-0.172H0.494c-0.144,0-0.28,0.063-0.374,0.172
			c-0.094,0.108-0.136,0.254-0.115,0.396c0.014,0.09,1.468,9.016,12.753,9.016h71.869c11.284,0,12.738-8.926,12.753-9.016
			C97.399,54.802,97.358,54.656,97.265,54.548z M55.942,60.834h-14.5V57.5h14.5V60.834z"/>
		<path d="M10.507,50.906h76.37c1.104,0,2-0.896,2-2V2c0-1.104-0.896-2-2-2h-76.37c-1.104,0-2,0.896-2,2v46.906
			C8.507,50.011,9.403,50.906,10.507,50.906z M15.507,7h66.37v36.906h-66.37V7z"/>
	</g>
</g>
</svg>
