<svg xmlns="http://www.w3.org/2000/svg" width="612" height="792"><g fill-rule="evenodd" clip-rule="evenodd"><path fill="#E7E7E6" d="M467.2 345.4c1.9-.2 4.6-.2 6.4 0h-6.4z"/><path fill="#C2BFBF" d="M439.8 345.6c.2-.3.9-.2 1.5-.2h1.9c.4.3 1.2 0 1.8.1h1.8c.5.3 1.5 0 2.2.1h6.4c.8-.1 1.9.2 2.5-.1h2.4c.9-.1 2.1.2 2.8-.1h10.5c9.2.3 15.9 3 21 7.4.8.9 1.6 1.7 2.4 2.4 4 4.7 6.9 10.6 7.3 19v3.4c-1.6 20.5-14.3 30-34.7 31.7-.4.1-1.1-.2-1.3.1h-8.9c-1.3-.3-3.2 0-4.7-.1h-4.2c-1.2-.3-2.9 0-4.2-.1h-4.6c-.3-.3-1.2 0-1.7-.1 0-1.8.6-3 1.3-4 4.5-.1 7.5-1.7 6.9-7 .3-.3 0-1.2.1-1.7v-2.5c.3-8.5 0-17.5.1-26.2V363c-.1-2 .2-4.4-.1-6.2 1-6.8-5.2-6.5-10.2-7.4.3-1.6 1.1-2.6 1.7-3.8zm26.7 4.4c-3.6.2-8.6-1-8 3.5-.3.8 0 2.1-.1 3.1V367c-.2 5.6-.2 12.1 0 17.7v9.1c.1.9-.2 2.1.1 2.8-.3 7.4 7.6 8.3 14.8 7.9 5.5-.3 9.7-2.8 12.2-5.2.5-.4 1-.9 1.5-1.5 3.9-4.3 6.3-10.2 6.5-18.3.2-1 .2-2.9 0-3.9-1.2-15.9-9.8-24.4-25.8-25.5-.2-.3-.8 0-1.2-.1z"/><path fill="#E7E7E6" d="M443.2 345.4c.6.1 1.4-.2 1.8.1-.6-.1-1.5.2-1.8-.1zM460.3 345.5c.7-.3 1.9 0 2.8-.1-.7.3-1.9 0-2.8.1zM446.8 345.5c.7.1 1.7-.2 2.2.1-.7 0-1.7.2-2.2-.1zM455.4 345.6c.6-.3 1.7 0 2.5-.1-.6.3-1.7.1-2.5.1z"/><path fill="#C2BFBF" d="M519 355.4c.8-5.9-5-5.1-9.3-5.9.1-1.8.9-2.9 1.7-4 .9.1 1.9.1 2.9.1.2.3 1 0 1.5.1h2.2c2.9.2 6.6.2 9.4 0h3.9c1.2-.1 2.7.2 3.7-.1 13.2-.6 24.3 2.3 24.3 14.5 0 6.9-4.7 10.7-9.8 13.1 7.5 2.4 13.9 5.9 14.6 15v1.8c-.3 4.5-1.9 7.7-4.1 10.4-.6.5-1.2 1.1-1.7 1.7-5.4 4.6-12.7 7.4-22.6 7.5H528.8c-.6-.3-1.7 0-2.4-.1h-2.3c-.6-.3-1.7 0-2.4-.1h-2.5c-.8-.3-2.2 0-3.3-.1-2-.1-4.4.2-6.2-.1-.2-1.5.7-2.9 1.3-4 2.7-.5 5.5-.1 6.9-1.7 1.3-1.5.7-4.1 1-6.9.3-1.2 0-2.9.1-4.2v-23.6c.2-4.2.2-9.2 0-13.4zm12.2-4.9c-.5 0-1.1 0-1.5.1-.9.7-.7 2.7-.7 4.4-.3 1.2 0 2.9-.1 4.2v6.4c-.2 1.9-.2 4.6 0 6.5 0 .2.1.3.1.4.7.2 1.8.1 2.7.1.5.3 1.6 0 2.3.1 8.8.9 14.4-1.9 15-8.7.7-8.4-4.9-13.6-13.1-13.5-.2-.3-.8 0-1.2-.1h-2.3c-.4 0-1-.2-1.2.1zm-1.1 26.8c-.6 0-1.1 0-1.2.5-.2 5-.2 10.8 0 15.7v2.7c.1.4-.2 1.2.1 1.5.1 5.1 3.3 7.1 8.7 6.9.9.2 2.7.2 3.6 0 4.6-.4 7.7-2.1 9.7-4.8 4.3-6 2.5-15.7-3.1-19.3-3.3-2.1-6.9-2.8-11.7-3-1.8-.4-4.4-.4-6.1-.2z"/><path fill="#E7E7E6" d="M514.3 345.6c.4.1 1.2-.2 1.5.1-.5 0-1.3.2-1.5-.1zM531.2 345.8c1-.3 2.5 0 3.7-.1-1 .2-2.5 0-3.7.1zM517.9 345.8h9.4c-2.8.2-6.5.2-9.4 0zM466.5 350c.4.1 1-.2 1.2.1-.4-.1-1 .2-1.2-.1zM531.2 350.5c.2-.3.8 0 1.2-.1-.2.2-.8 0-1.2.1zM534.7 350.4c.4.1 1-.2 1.2.1-.4-.1-1 .1-1.2-.1zM458.5 353.5c-.1 1 .2 2.3-.1 3.1.1-1-.2-2.3.1-3.1zM529 355c-.1 1.4.2 3.1-.1 4.2.1-1.4-.2-3.1.1-4.2zM519 355.4c.2 4.2.2 9.1 0 13.3v-13.3zM448.2 356.7c.3 1.8 0 4.2.1 6.2-.2-1.9 0-4.2-.1-6.2z"/><path fill="#C2BFBF" d="M119.7 365.1c.3.2 0 1 .1 1.5h-.1v-1.5z"/><path fill="#E7E7E6" d="M528.9 365.6v6.5c-.2-1.9-.2-4.6 0-6.5z"/><path fill="#69B240" d="M119.7 366.6h.1v1.6h-.1v-1.6z"/><path fill="#C2BFBF" d="M170.9 366.9c.4-.2 1.6-.2 1.9 0h-1.9zM196.8 366.9c.4-.2 1.7-.2 2.2 0h-2.2zM247.4 366.9c.7-.2 2.2-.2 2.9 0h-2.9zM352.5 366.9c.5-.2 1.9-.2 2.4 0h-2.4zM405.1 366.9c.7-.2 2.2-.2 2.9 0h-2.9z"/><path fill="#E7E7E6" d="M458.4 367v17.7c-.2-5.6-.2-12 0-17.7zM448.4 367.5c-.1 8.7.2 17.7-.1 26.2 0-8.6-.2-17.7.1-26.2z"/><path fill="#C2BFBF" d="M119.7 368.1h.1c-.1.4.2 1.2-.1 1.5v-1.5zM370.5 370c-.4.2-1.6.2-2.1 0h2.1zM349.8 370.9c.4-.2 1.6-.2 2.1 0h-2.1zM156.7 372.9c-.2-.3-.2-1.4 0-1.7v1.7z"/><path fill="#E7E7E6" d="M531.7 372.6c.7.1 1.8-.2 2.3.1-.8 0-1.8.2-2.3-.1z"/><path fill="#599636" d="M166.2 373.1c.1-.2 1.1-.2 1.2 0h-1.2z"/><path fill="#C2BFBF" d="M192.3 373.5c.4-.2 1.6-.2 1.9 0h-1.9zM301.3 373.8c.2-.2 1.2-.2 1.5 0h-1.5z"/><path fill="#E7E7E6" d="M504.4 374.2c.2.8.2 2.5 0 3.4v-3.4zM493.5 375.6c.2 1 .2 2.9 0 3.9v-3.9zM530.1 377.3c1.7-.2 4.3-.2 6 0h-6z"/><path fill="#C2BFBF" d="M283.6 377.6c.3 1 0 2.5.1 3.7-.3-1 0-2.5-.1-3.7z"/><path fill="#E7E7E6" d="M528.9 377.8v15.7c-.2-4.9-.2-10.7 0-15.7z"/><path fill="#C2BFBF" d="M156.6 383.5c.1-1.7-.2-3.8.1-5.3 0 1.7.2 3.8-.1 5.3zM368.7 379.4c.2.2.2 1.3 0 1.6v-1.6z"/><path fill="#599636" d="M292.5 379.5v12.6c-.2-3.9-.2-8.7 0-12.6zM342.9 379.5v1.9c-.2-.3-.2-1.5 0-1.9zM148.6 380.1c.3 1 0 2.5.1 3.6h-.1v-3.6z"/><path fill="#C2BFBF" d="M183.9 380.3c.3.2 0 1 .1 1.5h-.1v-1.5z"/><path fill="#599636" d="M183.9 381.8h.1v9.9h-.1v-9.9z"/><path fill="#C2BFBF" d="M334.7 381.8v2.1c-.2-.5-.2-1.7 0-2.1zM320.2 382.2c.3.3 0 1.1.1 1.6h-.1v-1.6zM392.6 387.5c-.2-1-.2-2.9 0-3.9v3.9zM148.6 383.7h.1v5.9h-.1v-5.9zM175.8 383.7c.3.2 0 .9.1 1.3-.2-.1 0-.9-.1-1.3z"/><path fill="#599636" d="M320.2 383.7h.1v10.8c-.3-3.4 0-7.2-.1-10.8z"/><path fill="#C2BFBF" d="M202.7 384.1c.3.4 0 1.2.1 1.8-.3-.4 0-1.2-.1-1.8zM311.4 385.4c.3.7 0 1.9.1 2.8-.3-.7 0-1.9-.1-2.8z"/><path fill="#599636" d="M176 386.3c.3.3 0 1.2.1 1.7h-.1v-1.7zM211.1 386.4v5h-.1c.1-1.7-.1-3.6.1-5z"/><path fill="#C2BFBF" d="M383.4 387.6c.1-.4-.2-1 .1-1.2v1.2h-.1zM426.5 386.5c.2.4.2 1.6 0 2.1v-2.1z"/><path fill="#599636" d="M383.4 387.6h.1v1.3h-.1v-1.3zM202.8 387.8c.2 1.9.2 4.6 0 6.5v-6.5z"/><path fill="#C2BFBF" d="M176 388h.1v4.5h-.1V388zM383.4 388.9h.1v1.3c-.2-.1 0-.9-.1-1.3zM417.3 389.5c.2.7.2 2.2 0 2.9v-2.9z"/><path fill="#599636" d="M148.6 389.7h.1c-.1 1.1.2 2.5-.1 3.4v-3.4z"/><path fill="#C2BFBF" d="M259.8 390.3c.2.1.2 1.1 0 1.2v-1.2zM211 391.4h.1c-.1 2.7.2 5.7-.1 8.2v-8.2zM183.9 391.7h.1v8.9h-.1v-8.9z"/><path fill="#E7E7E6" d="M519 392.3c-.1 1.4.2 3.1-.1 4.2 0-1.3-.2-3 .1-4.2z"/><path fill="#599636" d="M176 392.4h.1c-.1.6.2 1.6-.1 2.1v-2.1z"/><path fill="#C2BFBF" d="M283.7 392.6v3.9h-.1c.1-1.3-.2-2.9.1-3.9zM353.7 393c-.3.2-1.5.2-1.8 0h1.8z"/><path fill="#E7E7E6" d="M458.4 393.8c.3.7 0 1.9.1 2.8-.3-.7 0-1.9-.1-2.8z"/><path fill="#C2BFBF" d="M148.6 395.1c-.1.8.2 2-.1 2.7.1-.9-.1-2.1.1-2.7zM292.5 395.6c.3 1 0 2.5.1 3.6-.2-1 0-2.4-.1-3.6zM176 396.1c-.1.6.2 1.6-.1 2.1 0-.7-.2-1.7.1-2.1z"/><path fill="#E7E7E6" d="M528.9 396.2c.3.2 0 1 .1 1.5-.3-.3 0-1.1-.1-1.5z"/><path fill="#C2BFBF" d="M156.6 396.3c.3 1.2 0 2.9.1 4.4-.2-1.2 0-3-.1-4.4z"/><path fill="#E7E7E6" d="M448.2 396.3c-.1.5.2 1.4-.1 1.7.1-.5-.1-1.4.1-1.7z"/><path fill="#599636" d="M283.6 396.4h.1c-.1.4.2 1-.1 1.2v-1.2z"/><path fill="#C2BFBF" d="M202.7 400.4c.1-1.1-.2-2.5.1-3.4-.1 1.1.2 2.5-.1 3.4zM320.3 397.6c.3.7 0 2 .1 2.9-.2-.7 0-1.9-.1-2.9zM283.6 398.7c-.1.5.2 1.3-.1 1.6 0-.5-.2-1.3.1-1.6zM148.5 399.6c-.1.4.2 1.1-.1 1.3.1-.4-.2-1.1.1-1.3zM175.8 399.8c-.1.4.2 1-.1 1.2.1-.3-.1-1 .1-1.2z"/><path fill="#599636" d="M183.9 400.7h.1v1.6c-.2-.4 0-1.2-.1-1.6z"/><path fill="#E7E7E6" d="M537.7 404.5h3.6c-.9.2-2.6.2-3.6 0z"/><path fill="#599636" d="M248.9 405.7h1.3c-.2.2-1.2.2-1.3 0zM406.4 405.7h1.3c-.1.2-1.1.2-1.3 0z"/><path fill="#C2BFBF" d="M196.8 406.7v1.2c-.2-.1-.2-1.1 0-1.2z"/><path fill="#599636" d="M305.3 408.2c-.2-.1-.2-1.1 0-1.2v1.2z"/><path fill="#C2BFBF" d="M148.3 409.1c.8-.3 2.1 0 3.1-.1-.8.3-2.1 0-3.1.1zM153.2 409c1 .1 2.3-.2 3 .1-.9-.1-2.2.2-3-.1zM202.1 409.1c1.3-.3 3.1 0 4.6-.1-1.3.3-3.1 0-4.6.1zM211.9 409.1c-.9-.1-2.1.2-2.8-.1.9.1 2.1-.2 2.8.1z"/><path fill="#E7E7E6" d="M439.9 409c.5.1 1.4-.2 1.7.1-.5-.1-1.4.2-1.7-.1z"/><path fill="#C2BFBF" d="M145.4 409.2c.2-.3.8 0 1.2-.1-.2.3-.9.1-1.2.1zM159.3 409.2c-.4-.1-1.1.2-1.3-.1.4.1 1.1-.1 1.3.1zM174.6 409.2c.6-.3 1.7 0 2.5-.1-.5.3-1.7.1-2.5.1zM182.9 409.1c1 .1 2.4-.2 3.3.1-1.1 0-2.5.2-3.3-.1zM198.8 409.2c.2-.3.9 0 1.3-.1-.2.3-.9.1-1.3.1zM213.4 409.1c.4.1 1-.2 1.2.1-.3 0-1 .2-1.2-.1z"/><path fill="#E7E7E6" d="M446.2 409.1c1.4.1 3.1-.2 4.2.1-1.3 0-3 .2-4.2-.1z"/><path fill="#C2BFBF" d="M144 409.2c-.4.2-1.7.2-2.2 0h2.2z"/><path fill="#E7E7E6" d="M454.7 409.2c1.5.1 3.4-.2 4.7.1-1.6 0-3.4.2-4.7-.1zM468.3 409.4c.2-.3.9 0 1.3-.1-.2.2-.9 0-1.3.1zM515.8 409.2c1 .1 2.4-.2 3.3.1-1 0-2.4.2-3.3-.1zM521.6 409.4c.8.1 1.9-.2 2.4.1-.7-.1-1.8.1-2.4-.1z"/><path fill="#C2BFBF" d="M284.3 409.6c1-.3 2.5 0 3.6-.1-.9.3-2.4 0-3.6.1zM292.4 409.6c-1.3-.1-3 .2-4.1-.1 1.3.1 3-.2 4.1.1zM312.5 409.6c.8-.3 2.2 0 3.3-.1-.9.3-2.3 0-3.3.1zM320.2 409.6c-1.3-.1-3 .2-4.1-.1 1.3.1 3-.2 4.1.1z"/><path fill="#E7E7E6" d="M526.4 409.5c.8.1 1.9-.2 2.4.1-.8-.1-1.9.2-2.4-.1z"/><path fill="#C2BFBF" d="M280.8 409.7c.3-.3 1.1 0 1.6-.1-.3.3-1.1.1-1.6.1zM294.2 409.6c.4.1 1.1-.2 1.3.1-.4 0-1.1.2-1.3-.1zM309.6 409.7c.2-.3.8 0 1.2-.1-.2.3-.9.1-1.2.1zM323.5 409.7c-.4-.1-1.1.2-1.3-.1.3.1 1.1-.1 1.3.1z"/><path fill="#E7E7E6" d="M531.6 409.6h4.1c-1.1.2-3.1.2-4.1 0z"/><path fill="#C2BFBF" d="M277.8 409.9c.2-.3 1 0 1.5-.1-.3.2-1.1 0-1.5.1zM298.3 409.9c-.4-.1-1.2.2-1.5-.1.5 0 1.3-.2 1.5.1zM306.2 409.9c.4-.3 1.3 0 1.9-.1-.4.2-1.3 0-1.9.1zM324.8 409.7c.4.1 1.2-.2 1.5.1-.5 0-1.3.2-1.5-.1zM247.4 410.2c-.1.2-1.1.2-1.2 0h1.2zM405 410.2c-.1.2-1.1.2-1.2 0h1.2zM352 411.1c.5.1 1.4-.2 1.7.1-.5-.1-1.4.1-1.7-.1zM375.6 414.2c.2.3.2 1.5 0 1.8v-1.8z"/><path fill="#599636" d="M333 422.5c-.2-.1-.2-1.1 0-1.2v1.2z"/><path fill="#E7E7E6" d="M92.9 426.5v3.3c-.2-.8-.2-2.5 0-3.3z"/><path fill="#C2BFBF" d="M356 429.4c-.5.2-1.8.2-2.3 0h2.3z"/><path fill="#E7E7E6" d="M89.4 430.4c.3.5 0 1.5.1 2.2-.3-.5 0-1.5-.1-2.2zM92.9 431.9c.3.2 0 .9.1 1.3-.3-.2 0-.9-.1-1.3z"/><path fill="#C2BFBF" d="M352.1 434.6c-.7.2-2.2.2-2.9 0h2.9z"/><path fill="#E7E7E6" d="M558.3 402.1c.5-.6 1.1-1.2 1.7-1.7-.5.6-1.1 1.2-1.7 1.7z"/><path fill="#C2BFBF" d="M90.4 402.1c.4 6.1.6 13.4 4.7 15.4h.1c-1.9 1.9-2.4 5.2-2.3 9.1-.2.8-.2 2.5 0 3.3v2.1c.1.4-.2 1.1.1 1.3v1.8h-.1c-1.1-.5-2.3-.8-3.4-1.2v-1.2c-.1-.7.2-1.7-.1-2.2-.1-4.5-.7-8.6-2.1-11.8.6.3.6-.4.7-.6.8-1.8 1-4.8 1.3-7.6.5-3 .8-6.1 1.1-8.4zM99.8 413.7c.4-.5.8-.9 1.2-1.2-.4.5-.8.9-1.2 1.2zM101.7 411.8c.4-.5.8-.9 1.3-1.3-.3.4-.8.9-1.3 1.3zM97 314.1c.5.4.9.8 1.3 1.3-.5-.4-.9-.8-1.3-1.3zM79.1 411.2c.8.7 1.5 1.4 2.2 2.2-.8-.7-1.5-1.4-2.2-2.2z"/><path fill="#E7E7E6" d="M439.8 345.6c0-.5 1.1-.5 1.5-.2-.6 0-1.3-.1-1.5.2zM494.7 352.8c.9.8 1.7 1.6 2.4 2.4-.9-.8-1.7-1.6-2.4-2.4zM485.5 399.2c.4-.5.9-1 1.5-1.5-.5.6-1 1.1-1.5 1.5z"/><path fill="#FFF" d="M60.3 364.1V302h503.8v86.2c-.7-9.1-7.2-12.6-14.6-15 5.1-2.4 9.8-6.1 9.8-13.1 0-12.2-11.1-15.1-24.3-14.5-1.2.1-2.7-.2-3.7.1h-15.5c-.2-.3-1 0-1.5-.1-1 0-2 0-2.9-.1-.8 1.1-1.6 2.2-1.7 4 4.3.8 10.1 0 9.3 5.9V392.3c-.3 1.2 0 2.9-.1 4.2-.2 2.8.3 5.4-1 6.9-1.4 1.6-4.2 1.2-6.9 1.7-.6 1.1-1.5 2.5-1.3 4 1.8.3 4.2 0 6.2.1.8.3 2.2 0 3.3.1h2.5c.6.3 1.7 0 2.4.1h2.3c.6.3 1.7 0 2.4.1h2.8c1.1.2 3 .2 4.1 0 9.9-.1 17.2-2.9 22.6-7.5.6-.5 1.2-1.1 1.7-1.7 2.2-2.7 3.8-5.9 4.1-10.4v45H93v-1.8c-.1-.4.2-1.1-.1-1.3v-2.1-3.3c-.1-3.9.4-7.1 2.3-9.1 1.6-1.2 3.1-2.5 4.6-3.7.5-.4.9-.8 1.2-1.2.3-.2.5-.4.7-.7.5-.4.9-.8 1.3-1.3 9-10.2 15.9-22.4 16.7-40.9.3-.2 0-1 .1-1.5v-1.6c-.1-.4.2-1.2-.1-1.5-.4-11.2-3.3-20.5-7-28.5-3.7-8.1-8.6-15-14.4-21.2-.4-.5-.8-.9-1.3-1.3-3.3-2.8-5.3-6.9-7.3-11 0-.4-.2-.6-.2-1-.3 4.9-3.8 7-6.6 9.7-5.6 5.2-9.9 11.3-13.7 18.4-5.1 9.6-8 20.1-8.9 34.1zm259.9 18.1c-.3-8.8-5.2-16-13.9-15.5-3 .2-5.5 1.4-7.7 2.7-2.3 1.3-4.1 3-6.2 4.1-.4-2.1.8-5.2-.4-6.6-2.6.9-5.1 1.8-8.2 2.5-2 .5-8 .6-7.9 2.9.1 1.4 2.5 1.7 4 2.3 1.7.7 3.7 1.5 3.6 3 .1 1.2-.2 2.7.1 3.7v11.2c-.3 1 0 2.6-.1 3.9v2.3c-.3.3 0 1.1-.1 1.6.9 4.8-2.9 4.9-6.2 5.6-.4 1-.3 2.8 0 3.9.2 0 .2.2.5.1.4-.1 1.2.2 1.5-.1h1.6c.5-.1 1.3.2 1.6-.1h1.9c1.2-.1 2.7.2 3.6-.1h.4c1.1.3 2.8 0 4.1.1h1.8c.2.3.9 0 1.3.1h1.3c.2.3 1 0 1.5.1h.4c.5-1 .7-2.7.5-4.1-2.3-.4-5 0-6-1.7-.7-1.2-.4-2.8-.5-4.8-.1-1.2.2-2.7-.1-3.6v-3.5-12.6c.6-4.2 4.6-5.1 8.8-5.7h1.5c6.3.5 8.9 4.6 8.6 11.6.1.9-.2 2.1.1 2.8v8.2c0 2.7.5 6.2-.5 7.7-1 1.6-3.6.9-5.6 1.7 0 .4-.2.6-.1 1.1-.2.1-.2 1.1 0 1.2-.1.7.1 1.1.2 1.6.1.1.3.2.6.1.6-.1 1.5.2 1.9-.1h1.5c.4-.1 1 .2 1.2-.1h1.7c1-.1 2.4.2 3.3-.1h.4c1.1.3 2.8 0 4.1.1h1.9c.2.3.9 0 1.3.1h1.3c.2.3 1 0 1.5.1.2 0 .4 0 .5-.1.6-1 .6-2.5.5-3.9-3.1-1-7.7-.4-6.8-5.3-.1-.9.2-2.2-.1-2.9v-3.1-10.8c-.1-.6.1-1.4-.2-1.6zm121-36.8c-.3-.2-1.4-.2-1.5.2-.6 1.2-1.4 2.2-1.7 3.6 5 .9 11.1.6 10.2 7.4.1 2-.2 4.4.1 6.2v4.7c-.3 8.5 0 17.5-.1 26.2v2.5c-.3.3 0 1.2-.1 1.7.7 5.3-2.3 6.9-6.9 7-.7 1-1.3 2.2-1.3 4 .3.3 1.2 0 1.7.1h4.6c1.2.3 2.9 0 4.2.1h4.2c1.3.3 3.2 0 4.7.1h8.9c.4-.1 1.1.2 1.3-.1 20.4-1.7 33.1-11.1 34.7-31.7.2-.8.2-2.5 0-3.4-.4-8.4-3.3-14.2-7.3-19-.8-.9-1.6-1.7-2.4-2.4-5.1-4.3-11.9-7.1-21-7.4-1.9-.2-4.6-.2-6.4 0H463c-.9.1-2.1-.2-2.8.1h-2.4c-.8.1-1.9-.2-2.5.1h-6.4c-.5-.3-1.5 0-2.2-.1h-1.8c-.4-.3-1.2 0-1.8-.1-.6.2-1.2.2-1.9.2zm-284.5 25.8c-.1-1.5.4-3.1-.1-4.2-3.3 1.1-7.9 2.5-12.1 3.3-1.5.3-3.7.3-3.6 1.7 0 1.1 2.9 1.7 4 2.2 2.8 1.2 4.4 1.8 3.7 6v15c-.3.6 0 1.8-.1 2.7v1.8c-.3.2 0 .9-.1 1.3.6 4.5-3.6 4.3-6.6 5.1-.3 1-.2 2.2 0 3.3h.1c.4.2 1.7.2 2.2 0h1.3c.4-.1 1 .2 1.2-.1h1.7c1-.1 2.3.2 3.1-.1h1.8c.8.3 2.1 0 3 .1h1.7c.2.3.9 0 1.3.1h1.5c.4.2 1.9.3 2.2-.1.1-1 .4-2.2.1-3.3-3.3-.5-7.1-.6-6.3-5.2-.1-1.4.2-3.1-.1-4.4v-12.8c.3-1.5 0-3.6.1-5.3.3-1.8 2.4-2.9 4-3.6 1.7-.8 3.7-1.3 5.4-1.5h1.2c5.9.4 8.2 4.5 8.5 10.6.1.4-.2 1.1.1 1.3v11.1c-.3.4 0 1.4-.1 2.1v1.7c-.3.2 0 .8-.1 1.2.6 4.3-3.2 4.3-6.4 4.8-.4.8-.2 2.3-.1 3.3.6.5 2.4.3 3.1.1h2.3c.8-.1 1.9.2 2.5-.1h5.7c.8.3 2.2 0 3.3.1h2.2c.4.2 1.7.3 1.9-.1.2-.9.5-2.2.2-3.3-2.6-.7-6.3-.4-6.4-3.6v-1.6-8.9-9.9c-.1-.4.2-1.2-.1-1.5-1.2-3.5 1-4.5 3.4-5.6 1.7-.8 3.4-1.2 5-1.3h1.9c5.7.6 8.4 4.3 8.5 10.6.1.6-.2 1.4.1 1.8V397.1c-.3.9 0 2.3-.1 3.4.7 4.4-2.6 4.9-5.8 5.4 0 .3-.2.5-.1.8-.2.1-.2 1.1 0 1.2-.1.6.2.8.1 1.3h1.9c.4-.1 1.1.2 1.3-.1h1.9c1.5-.1 3.3.2 4.6-.1h2.4c.7.3 1.9 0 2.8.1h1.6c.2.3.8 0 1.2.1h1.2c.3.2 1.7.3 1.8-.1.1-.7.4-1.3.4-2.2.2-.2.1-1 0-1.2h-.4c-3.8-.5-7.6-.9-6.6-6.2.3-2.5 0-5.5.1-8.2v-5c.3-10.9-2.7-18.4-12.2-19.5-.4-.2-1.7-.2-2.2 0h-.4c-5.9.8-9.5 4.4-13.8 6.8-2.3-3.2-4.7-6.3-9.8-6.8-.4-.2-1.6-.2-1.9 0-3.1.4-5.5 1.5-7.6 2.7-2.1 1.2-4 2.7-6.2 3.7 0-.2-.3-.2-.4-.5.1-.4.1-1 .1-1.5zm90.7-4.3c-8.1.7-14.9 4.4-18.6 10.3-4.7 7.3-3.2 20.9 2.3 26.7.4.5.8.9 1.3 1.3 3.3 2.9 7.7 4.8 13.8 5 .1.2 1.1.2 1.2 0 6.4-.5 11.4-2.8 15.1-6.3 3.7-3.5 5.8-8.2 6.3-14.4 1-12.9-6.1-21.4-18.5-22.6-.7-.2-2.2-.2-2.9 0zm105.1 0c-9.3 1.5-16.7 5-17.8 14.9-.2.4-.2 1.6 0 2.1.5 5.8 2.3 9.1 6.3 11.5 1 .6 3.4 1.1 3.5 1.8.2 1.1-2.8 2.4-3.7 2.9-1.2.7-3.5 1.8-3.7 2.9-.3 1.5 1.2 3.4 1.8 4.1 1.3 1.4 3 1.9 4.6 3-3.5 3.7-9.4 5.1-10.4 11.2-.2.1-.2 1.1 0 1.2 1.4 8.1 7.4 11.5 16.2 12.1.7.2 2.2.2 2.9 0 12-1.2 21.7-7.1 23.5-18.6.2-.3.2-1.5 0-1.8-.8-10-10.8-10.1-20.7-10.8-3.4-.2-8.4 0-8-3.7.3-2.9 4.8-2.4 7.3-2.9 1.5-.3 2.9-.9 4.2-1.5 5.9-2.5 9.9-6.4 10.3-14.4.2-.2.2-1.3 0-1.6 0-1.5-.6-3.1-.6-4.4 5.2 1.5 9.5-1.5 8.1-7.3-1.4.7-2.9 2.4-5.7 2.2h-2.1c-5.3-.2-8.1-3-13.5-3-.6-.1-2-.1-2.5.1zm52.6 0c-12.2 1.5-20.2 7.2-21.5 19.5-.3.2 0 .8-.1 1.2v1.3c.1.4-.2 1.1.1 1.3 1.2 12.2 7.4 19.4 20.2 20 .1.2 1.1.2 1.2 0 12.9-1.5 20.7-8.1 21.5-21.6.2-.4.2-1.6 0-2.1-.9-11.8-7.1-18.3-18.5-19.6-.7-.2-2.2-.2-2.9 0z"/><path fill="#C2BFBF" d="M160.7 409.2c.7-.1 1.7.1 2.2-.1-.3.5-1.7.3-2.2.1zM169.2 409.1c.8.3 2.1 0 3.1.1-.7.2-2.6.4-3.1-.1zM188.3 409.2c.6-.1 1.5.1 1.9-.1-.2.4-1.5.3-1.9.1zM215.9 409.2c.6-.1 1.4.1 1.8-.1-.2.4-1.5.3-1.8.1zM218 406.9c0-.5.1-1.2-.4-1.2h.4c.2.2.3 1.1 0 1.2z"/><path fill="#E7E7E6" d="M231.1 403.9c.5.4.9.8 1.3 1.3-.5-.3-.9-.8-1.3-1.3z"/><path fill="#69B240" d="M60.3 364.1c.9-14.1 3.9-24.6 8.9-34 3.8-7 8-13.1 13.7-18.4 2.9-2.7 6.4-4.7 6.6-9.7 0 .4.3.5.2 1 1.4 19.7 1.3 41 1.3 62.1 0 12.3.4 25-.7 36.9-.3 2.2-.6 5.4-1 8.2-.4 2.8-.5 5.9-1.3 7.6-.1.2-.1.9-.7.6-2-1.7-4.1-3.4-6-5.2-.7-.8-1.4-1.5-2.2-2.2-9.7-10.5-17.5-22.8-18.9-41.7.1-1.6.1-3.4.1-5.2z"/><path fill="#599636" d="M89.8 303.1c2 4.1 4 8.2 7.3 11 .4.5.8.9 1.3 1.3 5.7 6.1 10.7 13.1 14.4 21.2 3.7 8 6.6 17.3 7 28.5v4.6c-.7 18.4-7.7 30.7-16.7 40.9-.5.4-.9.8-1.3 1.3-.2.3-.4.5-.7.7-.5.4-.9.8-1.2 1.2-1.5 1.3-3 2.6-4.6 3.7h-.1c-4.1-1.9-4.3-9.2-4.7-15.4 1.2-11.9.7-24.5.7-36.9-.1-21.1-.1-42.4-1.4-62.1z"/><path fill="#FFF" d="M535.9 350.5c8.2 0 13.8 5.2 13.1 13.5-.6 6.8-6.2 9.6-15 8.7-.5-.3-1.6 0-2.3-.1-.9 0-2 .1-2.7-.1-.1-.1-.1-.2-.1-.4v-6.5-6.4c.3-1.2 0-2.9.1-4.2 0-1.7-.2-3.6.7-4.4.4-.2.9-.1 1.5-.1.4-.1 1 .2 1.2-.1h2.3c.2.2.8 0 1.2.1zM351.9 370.9c10.4-.3 12.3 21.2 1.8 22.1h-1.8c-6.1-.8-8.4-5.3-8.9-11.6v-1.9c.4-4.8 2.3-8 6.9-8.6h2zM248.9 405.7c-4.5-.3-7.7-2.5-9.9-5.6-5.4-7.4-6.2-24.6 2.5-28.3 3.5-1.5 7.9-.5 10.6 1.2 4.9 3.1 7.4 9.2 7.6 17.2v1.2c-.1 7.9-2.3 13.6-9.6 14.3h-1.2zM353.7 411.2c6.1.4 11.9.9 13.9 5.1 1.2 2.6.6 5.9-.6 8-2 3.2-6.1 5-11 5.2h-2.3c-5.7-.2-10.8-2.5-12.5-6.7-2.1-5.3 2.1-9.9 6.2-11.4 1-.4 3-.4 4.6-.4.3.3 1.2.1 1.7.2zM458.5 353.5c-.7-4.5 4.3-3.3 8-3.5.2.3.8 0 1.2.1 16 1.1 24.6 9.6 25.8 25.5v3.9c-.2 8.1-2.6 13.9-6.5 18.3-.5.4-1 .9-1.5 1.5-2.5 2.4-6.7 4.9-12.2 5.2-7.2.4-15.1-.5-14.8-7.9-.1-.9.2-2.1-.1-2.8v-9.1V367v-10.4c.3-.8 0-2.1.1-3.1zM60.3 369.5c1.3 18.9 9.2 31.2 18.9 41.7.7.8 1.4 1.5 2.2 2.2 1.9 1.8 4 3.5 6 5.2 1.4 3.3 2 7.3 2.1 11.8.1.7-.2 1.7.1 2.2v1.2c1.1.4 2.3.7 3.4 1.2H60.4c-.1-21.8-.1-43.7-.1-65.5zM392.6 383.6c-.4-9.5 8.3-15.6 16.7-10.8 5.1 3 7.7 9.4 8 16.7v2.9c-.3 7.4-2.5 12.7-9.6 13.3h-1.3c-9.5-1.2-12.9-8.4-13.8-18.3v-3.8zM528.9 377.8c.1-.5.6-.5 1.2-.5h6c4.8.2 8.5.9 11.7 3 5.6 3.7 7.5 13.3 3.1 19.3-2 2.8-5.1 4.5-9.7 4.8h-3.6c-5.4.2-8.6-1.8-8.7-6.9-.1-.4.2-1.2-.1-1.5v-2.7c.1-5 .1-10.3.1-15.5z"/><path fill="#47474A" d="M283.6 377.6c0-1.5-1.9-2.3-3.6-3-1.5-.6-3.9-.9-4-2.3-.2-2.3 5.9-2.4 7.9-2.9 3.1-.7 5.6-1.7 8.2-2.5 1.2 1.5 0 4.6.4 6.6 2.1-1.1 3.9-2.9 6.2-4.1 2.2-1.2 4.7-2.5 7.7-2.7 8.7-.5 13.6 6.6 13.9 15.5v1.6c.1 3.5-.2 7.4.1 10.8v3.1c.1.9-.2 2.2.1 2.9-.9 5 3.7 4.3 6.8 5.3.1 1.4.1 2.9-.5 3.9-.1.1-.3.1-.5.1-.2-.3-1 0-1.5-.1h-1.3c-.2-.3-.9 0-1.3-.1h-1.9c-1.1-.3-2.8 0-4.1-.1h-.4c-1 .1-2.4-.2-3.3.1h-1.7c-.4.1-1-.2-1.2.1h-1.5c-.6.1-1.5-.2-1.9.1-.3 0-.5 0-.6-.1-.1-.5-.3-.9-.2-1.6V407c-.1-.5.1-.7.1-1.1 1.9-.8 4.5-.1 5.6-1.7 1-1.5.5-5 .5-7.7v-8.2c-.1-.9.2-2.1-.1-2.8.3-7-2.3-11.1-8.6-11.6-.2-.2-1.2-.2-1.5 0-4.2.6-8.2 1.5-8.8 5.7-.2 3.9-.2 8.7 0 12.6v3.5c.1 1.2-.2 2.7.1 3.6.1 2.1-.2 3.7.5 4.8 1 1.7 3.7 1.2 6 1.7.3 1.4 0 3.1-.5 4.1h-.4c-.2-.3-1 0-1.5-.1h-1.3c-.2-.3-.9 0-1.3-.1h-1.8c-1.1-.3-2.8 0-4.1-.1h-.4c-1.2.1-2.7-.2-3.6.1h-1.9c-.5.1-1.3-.2-1.6.1h-1.6c-.4.1-1.2-.2-1.5.1-.3.1-.3-.1-.5-.1-.3-1.1-.4-2.8 0-3.9 3.3-.6 7-.8 6.2-5.6.3-.3 0-1.1.1-1.6v-1.1c.3-.2 0-.8.1-1.2v-3.9-11.2c0-1.2.3-2.7 0-3.7zM148.6 380.1c.6-4.2-1-4.9-3.7-6-1.1-.4-3.9-1.1-4-2.2-.1-1.4 2.1-1.4 3.6-1.7 4.2-.8 8.7-2.2 12.1-3.3.6 1.2 0 2.8.1 4.2-.2.3-.2 1.4 0 1.7 0 .2.3.2.4.5 2.2-1.1 4-2.6 6.2-3.7 2.2-1.2 4.5-2.3 7.6-2.7h1.9c5.1.4 7.5 3.6 9.8 6.8 4.3-2.4 7.9-5.9 13.8-6.8h2.6c9.5 1.1 12.5 8.6 12.2 19.5-.3 1.4 0 3.3-.1 5v8.2c-1 5.2 2.9 5.7 6.6 6.2.5 0 .4.7.4 1.2 0 .8-.3 1.4-.4 2.2-.4.2-1.2.1-1.8.1h-1.2c-.2-.3-.8 0-1.2-.1h-1.6c-.7-.3-1.9 0-2.8-.1h-2.4c-1.5.1-3.3-.2-4.6.1h-1.9c-.4.1-1.1-.2-1.3.1H197c.1-.6-.2-.8-.1-1.3v-1.2c-.1-.4.1-.6.1-.8 3.2-.5 6.5-1 5.8-5.4.3-.9 0-2.3.1-3.4v-2.7c.2-1.9.2-4.6 0-6.5v-1.9c-.1-.6.2-1.4-.1-1.8 0-6.3-2.7-10-8.5-10.6-.4-.2-1.6-.2-1.9 0-1.5.1-3.3.5-5 1.3-2.3 1.1-4.6 2.1-3.4 5.6v20.3c.1.5-.2 1.3.1 1.6.1 3.2 3.8 2.9 6.4 3.6.3 1.1 0 2.4-.2 3.3-.4.3-1.3.1-1.9.1h-2.2c-.8-.3-2.2 0-3.3-.1h-5.7c-.8.1-1.9-.2-2.5.1h-2.3c-1-.1-2.3.1-3.1-.1-.1-1-.3-2.4.1-3.3 3.2-.6 7-.5 6.4-4.8.3-.2 0-.8.1-1.2v-1.7c.3-.4 0-1.4.1-2.1v-1.6c.3-.4 0-1.4.1-2.1v-4.5c-.1-.5.2-1.4-.1-1.7v-1.2c-.1-.4.2-1.1-.1-1.3-.2-6.1-2.5-10.2-8.5-10.6-.1-.2-1.1-.2-1.2 0-1.8.1-3.7.6-5.4 1.5-1.5.7-3.7 1.8-4 3.6-.3 1.5 0 3.6-.1 5.3v12.8c.1 1.4-.2 3.1.1 4.4-.8 4.6 3 4.7 6.3 5.2.3 1 0 2.3-.1 3.3-.5.3-1.5.1-2.2.1h-1.5c-.2-.3-.9 0-1.3-.1h-1.7c-.8-.3-2.1 0-3-.1h-1.8c-1 .1-2.3-.2-3.1.1h-1.7c-.4.1-1-.2-1.2.1H142h-.1c-.2-1-.3-2.2 0-3.3 3.1-.8 7.2-.6 6.6-5.1.3-.2 0-.9.1-1.3V398c.3-.6 0-1.8.1-2.7v-2.1c.3-.9 0-2.3.1-3.4v-5.9c-.1-1.3.1-2.8-.2-3.8zM231.1 403.9c-5.5-5.8-7-19.4-2.3-26.7 3.7-5.9 10.5-9.6 18.6-10.3h2.9c12.4 1.2 19.5 9.7 18.5 22.6-.5 6.2-2.6 10.9-6.3 14.4-3.7 3.5-8.7 5.8-15.1 6.3h-1.2c-6.1-.1-10.4-2.1-13.8-5-.4-.4-.8-.9-1.3-1.3zm28.7-13.6c-.2-7.9-2.7-14.1-7.6-17.2-2.7-1.7-7.1-2.7-10.6-1.2-8.8 3.7-7.9 20.9-2.5 28.3 2.2 3 5.4 5.3 9.9 5.6.2.2 1.2.2 1.3 0 7.3-.7 9.5-6.4 9.6-14.3.1-.2.1-1.1-.1-1.2zM334.7 381.8c1-9.8 8.4-13.3 17.8-14.9h2.4c5.5 0 8.2 2.8 13.5 3 .4.2 1.6.2 2.1 0 2.7.2 4.3-1.5 5.7-2.2 1.4 5.7-2.9 8.8-8.1 7.3 0 1.2.6 2.8.6 4.4v1.6c-.4 8-4.4 11.9-10.3 14.4-1.4.6-2.7 1.1-4.2 1.5-2.5.5-6.9 0-7.3 2.9-.4 3.7 4.6 3.5 8 3.7 9.9.7 19.9.7 20.7 10.8v1.8c-1.8 11.5-11.4 17.4-23.5 18.6h-2.9c-8.8-.6-14.8-4-16.2-12.1v-1.2c1-6.2 6.9-7.5 10.4-11.2-1.6-1.1-3.3-1.6-4.6-3-.7-.7-2.1-2.6-1.8-4.1.2-1.1 2.5-2.2 3.7-2.9.9-.5 4-1.8 3.7-2.9-.1-.7-2.5-1.2-3.5-1.8-4-2.4-5.8-5.7-6.3-11.5.1-.8.1-1.5.1-2.2zm15.1-10.9c-4.6.6-6.5 3.8-6.9 8.6-.2.4-.2 1.6 0 1.9.5 6.3 2.9 10.8 8.9 11.6.3.2 1.5.2 1.8 0 10.5-.9 8.5-22.4-1.8-22.1-.3-.2-1.6-.2-2 0zm2.2 40.2c-1.6 0-3.5 0-4.6.4-4 1.5-8.3 6.1-6.2 11.4 1.7 4.2 6.7 6.5 12.5 6.7.5.2 1.8.2 2.3 0 4.9-.2 9-2 11-5.2 1.2-2 1.8-5.4.6-8-2-4.2-7.8-4.7-13.9-5.1-.3-.4-1.2-.2-1.7-.2zM383.6 386.4c1.4-12.3 9.3-18 21.5-19.5h2.9c11.4 1.3 17.6 7.8 18.5 19.6v2.1c-.9 13.5-8.6 20.2-21.5 21.6h-1.2c-12.8-.6-19-7.8-20.2-20v-1.3-1.3-1.2zm33.7 3.1c-.3-7.3-2.8-13.7-8-16.7-8.3-4.9-17.1 1.3-16.7 10.8-.2 1-.2 2.9 0 3.9.9 9.8 4.3 17.1 13.8 18.3.2.2 1.2.2 1.3 0 7-.6 9.3-5.9 9.6-13.3.2-.7.2-2.3 0-3z"/></g></svg>