<?xml version="1.0" encoding="utf-8"?>
<!-- Generator: Adobe Illustrator 15.1.0, SVG Export Plug-In . SVG Version: 6.00 Build 0)  -->
<!DOCTYPE svg PUBLIC "-//W3C//DTD SVG 1.1//EN" "http://www.w3.org/Graphics/SVG/1.1/DTD/svg11.dtd">
<svg version="1.1" id="Layer_1" xmlns="http://www.w3.org/2000/svg" xmlns:xlink="http://www.w3.org/1999/xlink" x="0px" y="0px"
	 width="506.667px" height="133.1px" viewBox="3.834 6 506.667 133.1" enable-background="new 3.834 6 506.667 133.1"
	 xml:space="preserve">
<g>
	<path fill="#E7E7E6" d="M411.872,49.4c1.896-0.2,4.593-0.2,6.389,0H411.872z"/>
	<path fill="#C2BFBF" d="M384.522,49.6c0.199-0.3,0.897-0.2,1.497-0.2h1.896c0.4,0.3,1.2,0,1.798,0.1h1.798
		c0.499,0.3,1.497,0,2.195,0.1h6.389c0.798-0.1,1.897,0.2,2.495-0.1h2.396c0.897-0.1,2.096,0.2,2.794-0.1h10.481
		c9.185,0.3,15.871,3,20.963,7.4c0.799,0.9,1.597,1.7,2.396,2.4c3.993,4.7,6.889,10.6,7.287,19v3.4
		c-1.599,20.5-14.274,30-34.639,31.7c-0.399,0.101-1.098-0.2-1.297,0.101h-8.884c-1.298-0.301-3.195,0-4.692-0.101h-4.192
		c-1.196-0.3-2.896,0-4.191-0.1h-4.594c-0.298-0.3-1.196,0-1.696-0.101c0-1.8,0.599-3,1.298-4c4.493-0.1,7.488-1.699,6.887-7
		c0.301-0.3,0-1.199,0.102-1.7v-2.5c0.298-8.5,0-17.5,0.1-26.2V67c-0.1-2,0.198-4.4-0.1-6.2c0.999-6.8-5.191-6.5-10.183-7.4
		C383.125,51.8,383.922,50.8,384.522,49.6L384.522,49.6z M411.174,54c-3.594,0.2-8.585-1-7.986,3.5c-0.3,0.8,0,2.1-0.1,3.1V71
		c-0.2,5.6-0.2,12.1,0,17.7v9.1c0.1,0.9-0.2,2.1,0.1,2.8c-0.3,7.4,7.587,8.301,14.774,7.9c5.491-0.3,9.683-2.8,12.178-5.2
		c0.499-0.399,0.998-0.899,1.497-1.5c3.894-4.3,6.29-10.2,6.488-18.3c0.199-1,0.199-2.9,0-3.9c-1.196-15.9-9.782-24.4-25.754-25.5
		C412.172,53.8,411.573,54.1,411.174,54z"/>
	<path fill="#E7E7E6" d="M387.914,49.4c0.602,0.1,1.398-0.2,1.798,0.1C389.115,49.4,388.215,49.7,387.914,49.4z M404.986,49.5
		c0.697-0.3,1.896,0,2.794-0.1C407.081,49.7,405.883,49.4,404.986,49.5z M391.51,49.5c0.698,0.1,1.696-0.2,2.195,0.1
		C393.007,49.6,392.009,49.8,391.51,49.5z M400.094,49.6c0.599-0.3,1.696,0,2.495-0.1C401.991,49.8,400.892,49.6,400.094,49.6z"/>
	<path fill="#C2BFBF" d="M463.58,59.4c0.799-5.9-4.991-5.1-9.285-5.9c0.103-1.8,0.899-2.9,1.699-4c0.898,0.1,1.897,0.1,2.896,0.1
		c0.198,0.3,0.998,0,1.497,0.1h2.194c2.896,0.2,6.589,0.2,9.384,0h3.894c1.197-0.1,2.695,0.2,3.693-0.1
		c13.176-0.6,24.257,2.3,24.257,14.5c0,6.9-4.692,10.7-9.783,13.1c7.487,2.4,13.876,5.9,14.574,15V94
		c-0.299,4.5-1.897,7.7-4.093,10.4c-0.599,0.5-1.197,1.1-1.696,1.699c-5.391,4.601-12.679,7.4-22.562,7.5h-6.886
		c-0.601-0.3-1.698,0-2.396-0.1h-2.296c-0.6-0.3-1.697,0-2.396-0.1h-2.495c-0.798-0.301-2.196,0-3.293-0.101
		c-1.997-0.1-4.394,0.2-6.191-0.1c-0.198-1.5,0.701-2.9,1.299-4c2.695-0.5,5.49-0.101,6.889-1.7c1.297-1.5,0.698-4.1,0.998-6.9
		c0.299-1.2,0-2.899,0.1-4.2V72.8C463.78,68.6,463.78,63.6,463.58,59.4L463.58,59.4z M475.757,54.5c-0.499,0-1.097,0-1.497,0.1
		c-0.896,0.7-0.697,2.7-0.697,4.4c-0.301,1.2,0,2.9-0.101,4.2v6.4c-0.2,1.9-0.2,4.6,0,6.5c0,0.2,0.101,0.3,0.101,0.4
		c0.697,0.2,1.797,0.1,2.694,0.1c0.499,0.3,1.598,0,2.297,0.1c8.785,0.9,14.374-1.9,14.973-8.7c0.698-8.4-4.892-13.6-13.076-13.5
		c-0.201-0.3-0.8,0-1.199-0.1h-2.294C476.557,54.4,475.959,54.2,475.757,54.5z M474.66,81.3c-0.599,0-1.098,0-1.198,0.5
		c-0.2,5-0.2,10.8,0,15.7v2.7c0.101,0.399-0.2,1.2,0.101,1.5c0.1,5.1,3.294,7.1,8.683,6.899c0.899,0.2,2.697,0.2,3.597,0
		c4.591-0.399,7.685-2.1,9.681-4.8c4.293-6,2.495-15.7-3.094-19.3c-3.295-2.1-6.888-2.8-11.681-3
		C478.953,81.1,476.358,81.1,474.66,81.3L474.66,81.3z"/>
	<path fill="#E7E7E6" d="M458.89,49.6c0.397,0.1,1.196-0.2,1.497,0.1C459.888,49.7,459.088,49.9,458.89,49.6z M475.757,49.8
		c0.999-0.3,2.496,0,3.695-0.1C478.454,49.9,476.957,49.7,475.757,49.8z M462.483,49.8h9.384C469.071,50,465.378,50,462.483,49.8z
		 M411.174,54c0.399,0.1,0.998-0.2,1.197,0.1C411.973,54,411.372,54.3,411.174,54z M475.757,54.5c0.202-0.3,0.8,0,1.2-0.1
		C476.756,54.6,476.157,54.4,475.757,54.5z M479.251,54.4c0.399,0.1,0.998-0.2,1.199,0.1C480.051,54.4,479.452,54.6,479.251,54.4z
		 M403.188,57.5c-0.1,1,0.199,2.3-0.1,3.1C403.188,59.6,402.888,58.3,403.188,57.5z M473.563,59c-0.101,1.4,0.198,3.1-0.101,4.2
		C473.563,61.8,473.262,60.1,473.563,59z M463.58,59.4c0.199,4.2,0.199,9.1,0,13.3V59.4z M392.906,60.7c0.301,1.8,0,4.2,0.102,6.2
		C392.806,65,393.007,62.7,392.906,60.7z"/>
	<path fill="#C2BFBF" d="M64.994,69.1c0.299,0.2,0,1,0.099,1.5h-0.099V69.1z"/>
	<path fill="#E7E7E6" d="M473.462,69.6v6.5C473.262,74.2,473.262,71.5,473.462,69.6z"/>
	<path fill="#69B240" d="M64.994,70.6h0.099v1.6h-0.099V70.6z"/>
	<path fill="#C2BFBF" d="M116.101,70.9c0.4-0.2,1.598-0.2,1.897,0H116.101z M141.955,70.9c0.4-0.2,1.697-0.2,2.196,0H141.955z
		 M192.465,70.9c0.699-0.2,2.196-0.2,2.895,0H192.465z M297.378,70.9c0.499-0.2,1.896-0.2,2.395,0H297.378z M349.883,70.9
		c0.699-0.2,2.197-0.2,2.896,0H349.883z"/>
	<path fill="#E7E7E6" d="M403.088,71v17.7C402.888,83.1,402.888,76.7,403.088,71z M393.107,71.5c-0.1,8.7,0.198,17.7-0.1,26.2
		C393.007,89.1,392.806,80,393.107,71.5z"/>
	<path fill="#C2BFBF" d="M64.994,72.1h0.099c-0.099,0.4,0.2,1.2-0.099,1.5V72.1z M315.346,74c-0.4,0.2-1.598,0.2-2.097,0H315.346z
		 M294.682,74.9c0.399-0.2,1.597-0.2,2.096,0H294.682z M101.927,76.9c-0.2-0.3-0.2-1.4,0-1.7V76.9z"/>
	<path fill="#E7E7E6" d="M476.257,76.6c0.7,0.1,1.798-0.2,2.297,0.1C477.754,76.7,476.756,76.9,476.257,76.6z"/>
	<path fill="#599636" d="M111.411,77.1c0.099-0.2,1.097-0.2,1.197,0H111.411z"/>
	<path fill="#C2BFBF" d="M137.464,77.5c0.4-0.2,1.597-0.2,1.897,0H137.464z M246.269,77.8c0.2-0.2,1.198-0.2,1.497,0H246.269z"/>
	<path fill="#E7E7E6" d="M449.007,78.2c0.198,0.8,0.198,2.5,0,3.4V78.2z M438.125,79.6c0.199,1,0.199,2.9,0,3.9V79.6z M474.66,81.3
		c1.697-0.2,4.293-0.2,5.989,0H474.66z"/>
	<path fill="#C2BFBF" d="M228.6,81.6c0.299,1,0,2.5,0.101,3.7C228.401,84.3,228.701,82.8,228.6,81.6z"/>
	<path fill="#E7E7E6" d="M473.462,81.8v15.7C473.262,92.6,473.262,86.8,473.462,81.8z"/>
	<path fill="#C2BFBF" d="M101.827,87.5c0.1-1.7-0.2-3.8,0.1-5.3C101.927,83.9,102.126,86,101.827,87.5z M313.548,83.4
		c0.2,0.2,0.2,1.3,0,1.6V83.4z"/>
	<path fill="#599636" d="M237.485,83.5v12.6C237.285,92.2,237.285,87.4,237.485,83.5z M287.795,83.5v1.9
		C287.594,85.1,287.594,83.9,287.795,83.5z M93.842,84.1c0.299,1,0,2.5,0.101,3.6h-0.101V84.1z"/>
	<path fill="#C2BFBF" d="M129.078,84.3c0.3,0.2,0,1,0.1,1.5h-0.1V84.3z"/>
	<path fill="#599636" d="M129.078,85.8h0.1v9.9h-0.1V85.8z"/>
	<path fill="#C2BFBF" d="M279.609,85.8v2.1C279.41,87.4,279.41,86.2,279.609,85.8z M265.135,86.2c0.3,0.3,0,1.1,0.1,1.6h-0.1V86.2z
		 M337.405,91.5c-0.198-1-0.198-2.9,0-3.9V91.5z M93.842,87.7h0.101v5.9h-0.101V87.7z M120.993,87.7c0.299,0.2,0,0.9,0.099,1.3
		C120.893,88.9,121.093,88.1,120.993,87.7z"/>
	<path fill="#599636" d="M265.135,87.7h0.1v10.8C264.936,95.1,265.235,91.3,265.135,87.7z"/>
	<path fill="#C2BFBF" d="M147.845,88.1c0.299,0.4,0,1.2,0.1,1.8C147.645,89.5,147.945,88.7,147.845,88.1z M256.351,89.4
		c0.299,0.7,0,1.9,0.1,2.8C256.151,91.5,256.451,90.3,256.351,89.4z"/>
	<path fill="#599636" d="M121.193,90.3c0.299,0.3,0,1.2,0.099,1.7h-0.099V90.3z M156.23,90.4v5h-0.099
		C156.23,93.7,156.03,91.8,156.23,90.4z"/>
	<path fill="#C2BFBF" d="M328.223,91.6c0.1-0.4-0.201-1,0.1-1.2v1.2H328.223z M371.245,90.5c0.199,0.4,0.199,1.6,0,2.1V90.5z"/>
	<path fill="#599636" d="M328.223,91.6h0.1v1.3h-0.1V91.6z M147.945,91.8c0.2,1.9,0.2,4.6,0,6.5V91.8z"/>
	<path fill="#C2BFBF" d="M121.193,92h0.099v4.5h-0.099V92z M328.223,92.9h0.1v1.3C328.123,94.1,328.323,93.3,328.223,92.9z
		 M362.063,93.5c0.198,0.7,0.198,2.2,0,2.9V93.5z"/>
	<path fill="#599636" d="M93.842,93.7h0.101c-0.101,1.1,0.199,2.5-0.101,3.4V93.7z"/>
	<path fill="#C2BFBF" d="M204.843,94.3c0.2,0.1,0.2,1.1,0,1.2V94.3z M156.131,95.4h0.099c-0.099,2.7,0.2,5.7-0.099,8.2V95.4z
		 M129.078,95.7h0.1v8.899h-0.1V95.7z"/>
	<path fill="#E7E7E6" d="M463.58,96.3c-0.1,1.4,0.199,3.1-0.1,4.2C463.481,99.2,463.281,97.5,463.58,96.3z"/>
	<path fill="#599636" d="M121.193,96.4h0.099c-0.099,0.6,0.2,1.6-0.099,2.1V96.4z"/>
	<path fill="#C2BFBF" d="M228.701,96.6v3.9H228.6C228.701,99.2,228.401,97.6,228.701,96.6z M298.575,97
		c-0.299,0.2-1.497,0.2-1.796,0H298.575z"/>
	<path fill="#E7E7E6" d="M403.088,97.8c0.299,0.7,0,1.9,0.1,2.8C402.888,99.9,403.188,98.7,403.088,97.8z"/>
	<path fill="#C2BFBF" d="M93.842,99.1c-0.1,0.8,0.2,2-0.1,2.7C93.842,100.9,93.641,99.7,93.842,99.1z M237.485,99.6
		c0.299,1,0,2.5,0.1,3.6C237.385,102.2,237.585,100.8,237.485,99.6z M121.193,100.1c-0.101,0.6,0.199,1.6-0.101,2.1
		C121.093,101.5,120.893,100.5,121.193,100.1z"/>
	<path fill="#E7E7E6" d="M473.462,100.2c0.299,0.2,0,1,0.101,1.5C473.262,101.4,473.563,100.6,473.462,100.2z"/>
	<path fill="#C2BFBF" d="M101.827,100.3c0.299,1.2,0,2.9,0.1,4.4C101.728,103.5,101.927,101.7,101.827,100.3z"/>
	<path fill="#E7E7E6" d="M392.906,100.3c-0.1,0.5,0.201,1.4-0.1,1.7C392.906,101.5,392.707,100.6,392.906,100.3z"/>
	<path fill="#599636" d="M228.6,100.4h0.101c-0.101,0.4,0.199,1-0.101,1.2V100.4z"/>
	<path fill="#C2BFBF" d="M147.845,104.4c0.1-1.101-0.2-2.5,0.1-3.4C147.845,102.1,148.145,103.5,147.845,104.4z M265.235,101.6
		c0.299,0.7,0,2,0.099,2.9C265.135,103.8,265.334,102.6,265.235,101.6z M228.6,102.7c-0.099,0.5,0.2,1.3-0.099,1.6
		C228.501,103.8,228.302,103,228.6,102.7z M93.742,103.6c-0.101,0.4,0.2,1.101-0.101,1.301C93.742,104.5,93.443,103.8,93.742,103.6z
		 M120.993,103.8c-0.1,0.4,0.2,1-0.1,1.2C120.993,104.7,120.793,104,120.993,103.8z"/>
	<path fill="#599636" d="M129.078,104.7h0.1v1.6C128.979,105.9,129.178,105.1,129.078,104.7z"/>
	<path fill="#E7E7E6" d="M482.245,108.5h3.597C484.943,108.7,483.244,108.7,482.245,108.5z"/>
	<path fill="#599636" d="M193.962,109.7h1.298C195.061,109.9,194.062,109.9,193.962,109.7z M351.182,109.7h1.296
		C352.379,109.9,351.38,109.9,351.182,109.7z"/>
	<path fill="#C2BFBF" d="M141.955,110.7v1.2C141.756,111.8,141.756,110.8,141.955,110.7z"/>
	<path fill="#599636" d="M250.262,112.2c-0.2-0.101-0.2-1.101,0-1.2V112.2z"/>
	<path fill="#C2BFBF" d="M93.542,113.1c0.798-0.3,2.096,0,3.094-0.1C95.838,113.3,94.54,113,93.542,113.1z M98.434,113
		c0.998,0.1,2.295-0.2,2.995,0.1C100.53,113,99.232,113.3,98.434,113z M147.246,113.1c1.297-0.3,3.095,0,4.592-0.1
		C150.54,113.3,148.743,113,147.246,113.1z M157.029,113.1c-0.898-0.1-2.096,0.2-2.795-0.1
		C155.133,113.1,156.33,112.8,157.029,113.1z"/>
	<path fill="#E7E7E6" d="M384.622,113c0.499,0.1,1.396-0.2,1.695,0.1C385.819,113,384.92,113.3,384.622,113z"/>
	<path fill="#C2BFBF" d="M90.647,113.2c0.2-0.3,0.8,0,1.198-0.101C91.645,113.4,90.948,113.2,90.647,113.2z M104.523,113.2
		c-0.4-0.101-1.098,0.2-1.298-0.101C103.624,113.2,104.323,113,104.523,113.2z M119.795,113.2c0.599-0.3,1.697,0,2.496-0.101
		C121.791,113.4,120.594,113.2,119.795,113.2z M128.08,113.1c0.998,0.101,2.396-0.199,3.294,0.101
		C130.277,113.2,128.88,113.4,128.08,113.1z M143.952,113.2c0.2-0.3,0.899,0,1.298-0.101C145.05,113.4,144.352,113.2,143.952,113.2z
		 M158.526,113.1c0.399,0.101,0.999-0.199,1.198,0.101C159.424,113.2,158.725,113.4,158.526,113.1z"/>
	<path fill="#E7E7E6" d="M390.909,113.1c1.397,0.101,3.097-0.199,4.193,0.101C393.804,113.2,392.109,113.4,390.909,113.1z"/>
	<path fill="#C2BFBF" d="M89.25,113.2c-0.4,0.2-1.697,0.2-2.196,0H89.25z"/>
	<path fill="#E7E7E6" d="M399.395,113.2c1.497,0.1,3.395-0.2,4.692,0.1C402.49,113.3,400.693,113.5,399.395,113.2z M412.971,113.4
		c0.199-0.301,0.897,0,1.297-0.101C414.07,113.5,413.369,113.3,412.971,113.4z M460.387,113.2c0.998,0.1,2.395-0.2,3.293,0.1
		C462.682,113.3,461.283,113.5,460.387,113.2z M466.176,113.4c0.798,0.1,1.896-0.2,2.395,0.1
		C467.873,113.4,466.774,113.6,466.176,113.4z"/>
	<path fill="#C2BFBF" d="M229.3,113.6c0.998-0.3,2.496,0,3.593-0.1C231.995,113.8,230.498,113.5,229.3,113.6z M237.385,113.6
		c-1.297-0.1-2.994,0.2-4.092-0.1C234.59,113.6,236.287,113.3,237.385,113.6z M257.449,113.6c0.799-0.3,2.195,0,3.294-0.1
		C259.844,113.8,258.448,113.5,257.449,113.6z M265.135,113.6c-1.298-0.1-2.995,0.2-4.093-0.1
		C262.34,113.6,264.037,113.3,265.135,113.6z"/>
	<path fill="#E7E7E6" d="M470.967,113.5c0.798,0.1,1.897-0.2,2.396,0.1C472.565,113.5,471.466,113.8,470.967,113.5z"/>
	<path fill="#C2BFBF" d="M225.806,113.7c0.299-0.3,1.097,0,1.597-0.101C227.103,113.9,226.305,113.7,225.806,113.7z M239.182,113.6
		c0.398,0.101,1.097-0.199,1.297,0.101C240.08,113.7,239.381,113.9,239.182,113.6z M254.554,113.7c0.199-0.3,0.798,0,1.198-0.101
		C255.552,113.9,254.853,113.7,254.554,113.7z M268.429,113.7c-0.4-0.101-1.098,0.2-1.298-0.101
		C267.431,113.7,268.23,113.5,268.429,113.7z"/>
	<path fill="#E7E7E6" d="M476.157,113.6h4.092C479.152,113.8,477.156,113.8,476.157,113.6z"/>
	<path fill="#C2BFBF" d="M222.811,113.9c0.2-0.301,0.998,0,1.498-0.101C224.009,114,223.211,113.8,222.811,113.9z M243.275,113.9
		c-0.4-0.101-1.198,0.199-1.498-0.101C242.277,113.8,243.074,113.6,243.275,113.9z M251.16,113.9c0.399-0.301,1.298,0,1.897-0.101
		C252.657,114,251.759,113.8,251.16,113.9z M269.727,113.7c0.399,0.1,1.198-0.2,1.498,0.1C270.725,113.8,269.927,114,269.727,113.7z
		 M192.465,114.2c-0.1,0.2-1.098,0.2-1.197,0H192.465z M349.784,114.2c-0.101,0.2-1.099,0.2-1.198,0H349.784z M296.879,115.1
		c0.5,0.101,1.397-0.199,1.696,0.101C298.076,115.1,297.178,115.3,296.879,115.1z M320.436,118.2c0.2,0.3,0.2,1.5,0,1.8V118.2z"/>
	<path fill="#599636" d="M277.913,126.5c-0.2-0.1-0.2-1.1,0-1.2V126.5z"/>
	<path fill="#E7E7E6" d="M38.241,130.5v3.3C38.042,133,38.042,131.3,38.241,130.5z"/>
	<path fill="#C2BFBF" d="M300.871,133.4c-0.499,0.199-1.797,0.199-2.296,0H300.871z"/>
	<path fill="#E7E7E6" d="M34.747,134.4c0.3,0.5,0,1.5,0.1,2.199C34.548,136.1,34.847,135.1,34.747,134.4z M38.241,135.9
		c0.3,0.199,0,0.899,0.1,1.3C38.042,137,38.341,136.3,38.241,135.9z"/>
	<path fill="#C2BFBF" d="M296.978,138.6c-0.699,0.2-2.196,0.2-2.895,0H296.978z"/>
	<path fill="#E7E7E6" d="M502.811,106.1c0.499-0.6,1.098-1.199,1.696-1.699C504.008,105,503.409,105.6,502.811,106.1z"/>
	<path fill="#C2BFBF" d="M35.745,106.1c0.399,6.101,0.599,13.4,4.692,15.4h0.1c-1.897,1.9-2.396,5.2-2.296,9.1
		c-0.199,0.801-0.199,2.5,0,3.301v2.1c0.1,0.4-0.199,1.1,0.1,1.3v1.8h-0.1c-1.098-0.5-2.296-0.8-3.394-1.199v-1.2
		c-0.1-0.7,0.2-1.7-0.1-2.2c-0.1-4.5-0.698-8.6-2.096-11.8c0.599,0.3,0.599-0.4,0.699-0.601c0.798-1.8,0.999-4.8,1.297-7.6
		C35.146,111.5,35.446,108.4,35.745,106.1L35.745,106.1z M45.129,117.7c0.4-0.5,0.798-0.9,1.198-1.2
		C45.927,117,45.529,117.4,45.129,117.7z M47.026,115.8c0.398-0.5,0.798-0.899,1.297-1.3C48.024,114.9,47.525,115.4,47.026,115.8z
		 M42.334,18.1c0.499,0.4,0.897,0.8,1.297,1.3C43.133,19,42.733,18.6,42.334,18.1z M24.466,115.2c0.798,0.7,1.498,1.399,2.196,2.2
		C25.864,116.7,25.165,116,24.466,115.2z"/>
	<path fill="#E7E7E6" d="M384.522,49.6c0-0.5,1.099-0.5,1.497-0.2C385.419,49.4,384.721,49.3,384.522,49.6z M439.323,56.8
		c0.899,0.8,1.698,1.6,2.396,2.4C440.821,58.4,440.023,57.6,439.323,56.8z M430.14,103.2c0.399-0.5,0.898-1,1.497-1.5
		C431.138,102.3,430.639,102.8,430.14,103.2z"/>
	<path fill="#FFFFFF" d="M5.699,68.1V6H508.6v86.2c-0.698-9.1-7.188-12.6-14.574-15c5.091-2.4,9.783-6.1,9.783-13.1
		c0-12.2-11.081-15.1-24.257-14.5c-1.198,0.1-2.695-0.2-3.693,0.1h-15.472c-0.201-0.3-0.998,0-1.497-0.1c-0.998,0-1.997,0-2.896-0.1
		c-0.8,1.1-1.597,2.2-1.699,4c4.294,0.8,10.084,0,9.285,5.9v36.9c-0.3,1.2,0,2.9-0.1,4.2c-0.2,2.8,0.299,5.4-0.998,6.9
		c-1.398,1.6-4.193,1.199-6.889,1.699c-0.598,1.101-1.497,2.5-1.299,4c1.798,0.301,4.194,0,6.191,0.101c0.797,0.3,2.195,0,3.293,0.1
		h2.495c0.601,0.3,1.698,0,2.396,0.101h2.296c0.6,0.3,1.696,0,2.396,0.1h2.794c1.098,0.2,2.994,0.2,4.092,0
		c9.883-0.1,17.171-2.9,22.562-7.5c0.599-0.5,1.197-1.1,1.696-1.7c2.195-2.7,3.794-5.9,4.093-10.4v45H38.341V137.1
		c-0.1-0.399,0.2-1.1-0.1-1.3v-2.1v-3.3c-0.1-3.9,0.399-7.101,2.296-9.101c1.597-1.2,3.094-2.5,4.591-3.7
		c0.499-0.399,0.899-0.8,1.198-1.199c0.299-0.2,0.499-0.4,0.699-0.7c0.499-0.4,0.897-0.8,1.297-1.3
		c8.984-10.2,15.871-22.4,16.67-40.9c0.299-0.2,0-1,0.099-1.5v-1.6c-0.099-0.4,0.2-1.2-0.099-1.5c-0.4-11.2-3.295-20.5-6.988-28.5
		c-3.694-8.1-8.585-15-14.375-21.2c-0.4-0.5-0.798-0.9-1.297-1.3c-3.294-2.8-5.291-6.9-7.287-11c0-0.4-0.2-0.6-0.2-1
		c-0.299,4.9-3.793,7-6.589,9.7c-5.589,5.2-9.882,11.3-13.674,18.4C9.492,43.6,6.598,54.1,5.699,68.1L5.699,68.1z M265.135,86.2
		c-0.3-8.8-5.191-16-13.875-15.5c-2.995,0.2-5.49,1.4-7.686,2.7c-2.296,1.3-4.093,3-6.189,4.1c-0.398-2.1,0.798-5.2-0.398-6.6
		c-2.596,0.9-5.092,1.8-8.186,2.5c-1.997,0.5-7.986,0.6-7.886,2.9c0.1,1.4,2.496,1.7,3.993,2.3c1.697,0.7,3.693,1.5,3.594,3
		c0.099,1.2-0.2,2.7,0.099,3.7v11.2c-0.299,1,0,2.6-0.099,3.9v2.3c-0.3,0.3,0,1.1-0.101,1.6c0.899,4.8-2.895,4.9-6.189,5.601
		c-0.399,1-0.299,2.8,0,3.899c0.2,0,0.2,0.2,0.499,0.101c0.4-0.101,1.198,0.199,1.497-0.101h1.598c0.499-0.1,1.297,0.2,1.597-0.1
		h1.897c1.198-0.101,2.695,0.2,3.593-0.101h0.4c1.098,0.301,2.795,0,4.092,0.101h1.797c0.2,0.3,0.899,0,1.298,0.1h1.297
		c0.2,0.3,0.999,0,1.498,0.101h0.398c0.499-1,0.699-2.7,0.499-4.101c-2.295-0.399-4.991,0-5.989-1.7
		c-0.698-1.199-0.399-2.8-0.499-4.8c-0.099-1.2,0.2-2.7-0.099-3.6v-3.5V83.6c0.598-4.2,4.591-5.1,8.784-5.7h1.497
		c6.289,0.5,8.885,4.6,8.584,11.6c0.101,0.9-0.198,2.1,0.101,2.8v8.2c0,2.7,0.499,6.2-0.499,7.7c-0.998,1.6-3.594,0.899-5.591,1.7
		c0,0.399-0.199,0.6-0.099,1.1c-0.2,0.1-0.2,1.1,0,1.2c-0.1,0.7,0.099,1.1,0.2,1.6c0.1,0.101,0.299,0.2,0.599,0.101
		c0.599-0.101,1.497,0.199,1.897-0.101h1.498c0.398-0.1,0.998,0.2,1.198-0.1h1.696c0.999-0.101,2.396,0.2,3.295-0.101h0.398
		c1.099,0.301,2.795,0,4.093,0.101h1.896c0.2,0.3,0.898,0,1.297,0.1h1.298c0.199,0.3,0.999,0,1.498,0.101
		c0.198,0,0.398,0,0.499-0.101c0.598-1,0.598-2.5,0.499-3.899c-3.095-1-7.687-0.4-6.789-5.301c-0.1-0.899,0.2-2.199-0.1-2.899v-3.1
		V87.8C265.235,87.2,265.434,86.4,265.135,86.2L265.135,86.2z M385.918,49.4c-0.298-0.2-1.396-0.2-1.497,0.2
		c-0.599,1.2-1.396,2.2-1.696,3.6c4.991,0.9,11.079,0.6,10.181,7.4c0.102,2-0.198,4.4,0.102,6.2v4.7c-0.3,8.5,0,17.5-0.102,26.2v2.5
		c-0.298,0.3,0,1.2-0.1,1.7c0.701,5.3-2.294,6.9-6.888,7c-0.697,1-1.296,2.199-1.296,4c0.298,0.3,1.196,0,1.695,0.1h4.592
		c1.199,0.301,2.895,0,4.193,0.1h4.191c1.299,0.301,3.196,0,4.693,0.101h8.883c0.399-0.101,1.099,0.2,1.299-0.101
		c20.363-1.699,33.04-11.1,34.637-31.7c0.201-0.8,0.201-2.5,0-3.4c-0.398-8.4-3.293-14.2-7.286-19c-0.799-0.9-1.597-1.7-2.396-2.4
		c-5.091-4.3-11.88-7.1-20.963-7.4c-1.896-0.2-4.591-0.2-6.389,0h-4.092c-0.899,0.1-2.097-0.2-2.796,0.1h-2.395
		c-0.8,0.1-1.897-0.2-2.496,0.1h-6.389c-0.499-0.3-1.497,0-2.197-0.1h-1.795c-0.4-0.3-1.2,0-1.798-0.1
		C387.217,49.4,386.618,49.4,385.918,49.4L385.918,49.4z M101.927,75.2c-0.1-1.5,0.399-3.1-0.1-4.2c-3.294,1.1-7.885,2.5-12.078,3.3
		c-1.497,0.3-3.693,0.3-3.594,1.7c0,1.1,2.896,1.7,3.993,2.2c2.796,1.2,4.393,1.8,3.694,6v15c-0.299,0.6,0,1.8-0.1,2.7v1.8
		c-0.3,0.2,0,0.899-0.101,1.3c0.6,4.5-3.593,4.3-6.587,5.1c-0.3,1-0.2,2.2,0,3.301h0.099c0.4,0.199,1.697,0.199,2.196,0h1.297
		c0.4-0.101,0.999,0.199,1.198-0.101h1.697c0.998-0.1,2.295,0.2,3.094-0.1h1.796c0.799,0.3,2.097,0,2.995,0.1h1.697
		c0.2,0.3,0.899,0,1.297,0.101h1.497c0.4,0.199,1.897,0.3,2.196-0.101c0.101-1,0.4-2.2,0.101-3.3c-3.295-0.5-7.088-0.6-6.29-5.2
		c-0.099-1.399,0.2-3.1-0.099-4.4V87.6c0.299-1.5,0-3.6,0.099-5.3c0.3-1.8,2.396-2.9,3.993-3.6c1.697-0.8,3.694-1.3,5.391-1.5h1.198
		c5.889,0.4,8.186,4.5,8.485,10.6c0.099,0.4-0.2,1.1,0.099,1.3v11.1c-0.299,0.399,0,1.399-0.099,2.1v1.7c-0.299,0.2,0,0.8-0.101,1.2
		c0.6,4.3-3.193,4.3-6.388,4.8c-0.399,0.8-0.2,2.3-0.1,3.3c0.599,0.5,2.396,0.3,3.095,0.101h2.295
		c0.798-0.101,1.897,0.199,2.496-0.101h5.69c0.798,0.3,2.196,0,3.294,0.101h2.196c0.398,0.199,1.697,0.3,1.896-0.101
		c0.2-0.899,0.5-2.2,0.2-3.3c-2.595-0.7-6.288-0.4-6.388-3.6V104.8v-8.9V86c-0.1-0.4,0.199-1.2-0.1-1.5
		c-1.198-3.5,0.998-4.5,3.395-5.6c1.697-0.8,3.393-1.2,4.991-1.3h1.896c5.69,0.6,8.385,4.3,8.484,10.6
		c0.101,0.6-0.199,1.4,0.101,1.8v11.1c-0.3,0.9,0,2.301-0.101,3.4c0.699,4.4-2.595,4.9-5.789,5.4c0,0.3-0.2,0.5-0.1,0.8
		c-0.2,0.1-0.2,1.1,0,1.2c-0.1,0.6,0.2,0.8,0.1,1.3h1.896c0.399-0.101,1.098,0.2,1.298-0.101h1.896c1.498-0.1,3.294,0.2,4.592-0.1
		h2.396c0.698,0.3,1.896,0,2.795,0.1h1.597c0.2,0.301,0.798,0,1.198,0.101h1.198c0.299,0.2,1.697,0.3,1.797-0.101
		c0.099-0.699,0.399-1.3,0.399-2.199c0.199-0.2,0.1-1,0-1.2h-0.399c-3.793-0.5-7.586-0.9-6.588-6.2c0.299-2.5,0-5.5,0.099-8.2v-5
		c0.3-10.9-2.695-18.4-12.178-19.5c-0.399-0.2-1.697-0.2-2.196,0h-0.399c-5.89,0.8-9.482,4.4-13.775,6.8
		c-2.296-3.2-4.692-6.3-9.783-6.8c-0.398-0.2-1.597-0.2-1.896,0c-3.095,0.4-5.49,1.5-7.587,2.7c-2.096,1.2-3.993,2.7-6.188,3.7
		c0-0.2-0.3-0.2-0.399-0.5C101.927,76.3,101.927,75.7,101.927,75.2L101.927,75.2z M192.465,70.9c-8.085,0.7-14.873,4.4-18.567,10.3
		c-4.691,7.3-3.194,20.899,2.296,26.7c0.399,0.5,0.798,0.899,1.297,1.3c3.294,2.899,7.686,4.8,13.776,5c0.099,0.2,1.098,0.2,1.197,0
		c6.389-0.5,11.38-2.8,15.073-6.3c3.694-3.5,5.79-8.2,6.289-14.4c0.998-12.9-6.09-21.4-18.467-22.6
		C194.661,70.7,193.164,70.7,192.465,70.9L192.465,70.9z M297.377,70.9c-9.284,1.5-16.67,5-17.768,14.9c-0.2,0.4-0.2,1.6,0,2.1
		c0.499,5.8,2.295,9.1,6.288,11.5c0.999,0.6,3.395,1.1,3.494,1.8c0.2,1.1-2.794,2.399-3.692,2.899c-1.198,0.7-3.494,1.801-3.694,2.9
		c-0.299,1.5,1.198,3.4,1.797,4.1c1.297,1.4,2.995,1.9,4.591,3c-3.494,3.7-9.382,5.101-10.381,11.2c-0.2,0.101-0.2,1.101,0,1.2
		c1.397,8.1,7.386,11.5,16.171,12.1c0.698,0.2,2.195,0.2,2.895,0c11.978-1.199,21.662-7.1,23.458-18.6c0.201-0.3,0.201-1.5,0-1.8
		c-0.797-10-10.78-10.101-20.663-10.8c-3.394-0.2-8.384,0-7.985-3.7c0.3-2.9,4.792-2.4,7.288-2.9c1.497-0.3,2.894-0.9,4.191-1.5
		c5.89-2.5,9.883-6.4,10.283-14.4c0.2-0.2,0.2-1.3,0-1.6c0-1.5-0.6-3.1-0.6-4.4c5.191,1.5,9.482-1.5,8.086-7.3
		c-1.396,0.7-2.895,2.4-5.69,2.2h-2.097c-5.29-0.2-8.085-3-13.476-3C299.274,70.7,297.876,70.7,297.377,70.9L297.377,70.9z
		 M349.883,70.9c-12.178,1.5-20.163,7.2-21.462,19.5c-0.298,0.2,0,0.8-0.099,1.2v1.3c0.099,0.4-0.199,1.1,0.099,1.3
		c1.2,12.2,7.388,19.399,20.165,20c0.1,0.2,1.098,0.2,1.198,0c12.877-1.5,20.662-8.101,21.461-21.6c0.199-0.4,0.199-1.6,0-2.1
		c-0.898-11.8-7.087-18.3-18.467-19.6C352.08,70.7,350.582,70.7,349.883,70.9L349.883,70.9z"/>
	<path fill="#C2BFBF" d="M105.92,113.2c0.698-0.101,1.696,0.1,2.195-0.101C107.816,113.6,106.419,113.4,105.92,113.2z
		 M114.406,113.1c0.798,0.301,2.096,0,3.094,0.101C116.801,113.4,114.905,113.6,114.406,113.1z M133.471,113.2
		c0.598-0.101,1.498,0.1,1.896-0.101C135.168,113.5,133.87,113.4,133.471,113.2z M161.021,113.2c0.599-0.101,1.398,0.1,1.797-0.101
		C162.619,113.5,161.322,113.4,161.021,113.2z M163.118,110.9c0-0.5,0.1-1.2-0.399-1.2h0.399
		C163.318,109.9,163.418,110.8,163.118,110.9z"/>
	<path fill="#E7E7E6" d="M176.195,107.9c0.499,0.399,0.898,0.8,1.297,1.3C176.992,108.9,176.594,108.4,176.195,107.9z"/>
	<path fill="#69B240" d="M5.699,68.1c0.899-14.1,3.894-24.6,8.885-34c3.792-7,7.985-13.1,13.674-18.4C31.154,13,34.647,11,34.847,6
		c0,0.4,0.299,0.5,0.2,1c1.397,19.7,1.297,41,1.297,62.1c0,12.3,0.399,25-0.699,36.9c-0.299,2.2-0.599,5.4-0.999,8.2
		c-0.399,2.8-0.499,5.899-1.297,7.6c-0.1,0.2-0.1,0.9-0.699,0.601c-1.997-1.7-4.093-3.4-5.989-5.2c-0.699-0.8-1.398-1.5-2.196-2.2
		C14.782,104.5,6.997,92.2,5.6,73.3C5.699,71.7,5.699,69.9,5.699,68.1L5.699,68.1z"/>
	<path fill="#599636" d="M35.146,7.1c1.997,4.1,3.994,8.2,7.287,11c0.4,0.5,0.798,0.9,1.297,1.3c5.69,6.1,10.681,13.1,14.375,21.2
		c3.693,8,6.588,17.3,6.987,28.5v4.6c-0.699,18.4-7.687,30.7-16.67,40.899c-0.499,0.4-0.897,0.801-1.297,1.301
		c-0.2,0.3-0.4,0.5-0.699,0.699c-0.499,0.4-0.897,0.801-1.198,1.2c-1.498,1.3-2.995,2.601-4.591,3.7h-0.1
		c-4.093-1.9-4.293-9.2-4.692-15.4C37.044,94.2,36.545,81.6,36.545,69.2C36.444,48.1,36.444,26.8,35.146,7.1L35.146,7.1z"/>
	<path fill="#FFFFFF" d="M480.45,54.5c8.185,0,13.774,5.2,13.076,13.5c-0.599,6.8-6.188,9.6-14.973,8.7
		c-0.499-0.3-1.597,0-2.297-0.1c-0.897,0-1.997,0.1-2.694-0.1c-0.101-0.1-0.101-0.2-0.101-0.4v-6.5v-6.4c0.299-1.2,0-2.9,0.101-4.2
		c0-1.7-0.199-3.6,0.697-4.4c0.4-0.2,0.899-0.1,1.497-0.1c0.4-0.1,0.999,0.2,1.2-0.1h2.294C479.452,54.6,480.051,54.4,480.45,54.5z
		 M296.779,74.9c10.382-0.3,12.277,21.2,1.796,22.1h-1.796c-6.089-0.8-8.385-5.3-8.884-11.6v-1.9c0.399-4.8,2.296-8,6.887-8.6
		H296.779z M193.962,109.7c-4.492-0.3-7.685-2.5-9.881-5.601c-5.391-7.399-6.189-24.6,2.495-28.3c3.494-1.5,7.885-0.5,10.581,1.2
		c4.892,3.1,7.387,9.2,7.587,17.2v1.2c-0.101,7.9-2.297,13.6-9.583,14.3H193.962L193.962,109.7z M298.575,115.2
		c6.09,0.399,11.879,0.899,13.875,5.1c1.198,2.601,0.599,5.9-0.6,8c-1.996,3.2-6.088,5-10.979,5.2h-2.296
		c-5.689-0.2-10.78-2.5-12.478-6.7c-2.096-5.3,2.097-9.899,6.189-11.399c0.998-0.4,2.995-0.4,4.592-0.4
		C297.178,115.3,298.076,115.1,298.575,115.2L298.575,115.2z M403.188,57.5c-0.697-4.5,4.293-3.3,7.986-3.5
		c0.198,0.3,0.799,0,1.197,0.1c15.972,1.1,24.558,9.6,25.754,25.5v3.9c-0.198,8.1-2.595,13.9-6.488,18.3
		c-0.499,0.4-0.998,0.9-1.497,1.5c-2.495,2.4-6.687,4.9-12.178,5.2c-7.188,0.4-15.074-0.5-14.774-7.9c-0.1-0.899,0.199-2.1-0.1-2.8
		v-9.1V71V60.6C403.387,59.8,403.088,58.5,403.188,57.5z M5.699,73.5c1.298,18.9,9.184,31.2,18.867,41.7
		c0.698,0.8,1.397,1.5,2.195,2.2c1.897,1.8,3.993,3.5,5.99,5.199c1.397,3.301,1.997,7.301,2.097,11.801
		c0.099,0.699-0.2,1.699,0.099,2.199v1.2c1.099,0.4,2.296,0.7,3.395,1.2H5.799C5.699,117.2,5.699,95.3,5.699,73.5L5.699,73.5z
		 M337.405,87.6c-0.398-9.5,8.286-15.6,16.672-10.8c5.091,3,7.686,9.4,7.986,16.7v2.9c-0.301,7.4-2.495,12.7-9.585,13.3h-1.296
		c-9.483-1.2-12.878-8.4-13.777-18.3V87.6L337.405,87.6z M473.462,81.8c0.101-0.5,0.6-0.5,1.198-0.5h5.989
		c4.792,0.2,8.484,0.9,11.68,3c5.59,3.7,7.486,13.3,3.094,19.3c-1.996,2.801-5.09,4.5-9.684,4.801h-3.593
		c-5.391,0.199-8.584-1.801-8.685-6.9c-0.099-0.4,0.2-1.2-0.099-1.5v-2.7C473.462,92.3,473.462,87,473.462,81.8L473.462,81.8z"/>
	<path fill="#47474A" d="M228.6,81.6c0-1.5-1.896-2.3-3.593-3c-1.497-0.6-3.894-0.9-3.993-2.3c-0.2-2.3,5.889-2.4,7.885-2.9
		c3.095-0.7,5.591-1.7,8.186-2.5c1.198,1.5,0,4.6,0.4,6.6c2.096-1.1,3.893-2.9,6.188-4.1c2.196-1.2,4.692-2.5,7.687-2.7
		c8.685-0.5,13.576,6.6,13.875,15.5v1.6c0.099,3.5-0.2,7.4,0.099,10.8v3.1c0.101,0.899-0.199,2.2,0.101,2.899
		c-0.898,5,3.693,4.301,6.788,5.301c0.099,1.399,0.099,2.899-0.499,3.899c-0.101,0.101-0.3,0.101-0.499,0.101
		c-0.2-0.301-0.999,0-1.498-0.101h-1.297c-0.2-0.3-0.899,0-1.298-0.1h-1.896c-1.098-0.3-2.794,0-4.093-0.101h-0.398
		c-0.999,0.101-2.396-0.199-3.294,0.101h-1.697c-0.4,0.1-0.999-0.2-1.198,0.1h-1.498c-0.599,0.101-1.498-0.2-1.897,0.101
		c-0.299,0-0.499,0-0.599-0.101c-0.1-0.5-0.299-0.899-0.2-1.6V111c-0.1-0.5,0.1-0.7,0.1-1.1c1.896-0.801,4.492-0.101,5.59-1.7
		c0.998-1.5,0.499-5,0.499-7.7v-8.2c-0.1-0.9,0.2-2.1-0.1-2.8c0.3-7-2.296-11.1-8.585-11.6c-0.199-0.2-1.197-0.2-1.497,0
		c-4.192,0.6-8.185,1.5-8.784,5.7c-0.2,3.9-0.2,8.7,0,12.6v3.5c0.1,1.2-0.2,2.7,0.1,3.6c0.099,2.101-0.2,3.7,0.499,4.8
		c0.999,1.7,3.693,1.2,5.988,1.7c0.301,1.4,0,3.101-0.499,4.101h-0.398c-0.2-0.301-0.998,0-1.498-0.101h-1.297
		c-0.2-0.3-0.899,0-1.297-0.1h-1.798c-1.098-0.3-2.795,0-4.092-0.101h-0.4c-1.197,0.101-2.694-0.199-3.593,0.101h-1.897
		c-0.5,0.1-1.297-0.2-1.597,0.1h-1.597c-0.4,0.101-1.198-0.2-1.497,0.101c-0.3,0.1-0.3-0.101-0.499-0.101c-0.3-1.1-0.4-2.8,0-3.899
		c3.293-0.601,6.987-0.801,6.188-5.601c0.3-0.3,0-1.1,0.101-1.6V101.6c0.299-0.199,0-0.8,0.099-1.2v-3.9V85.3
		C228.6,84.1,228.9,82.6,228.6,81.6L228.6,81.6z M93.842,84.1c0.6-4.2-0.999-4.9-3.694-6c-1.097-0.4-3.893-1.1-3.993-2.2
		c-0.099-1.4,2.097-1.4,3.594-1.7c4.193-0.8,8.685-2.2,12.078-3.3c0.599,1.2,0,2.8,0.1,4.2c-0.2,0.3-0.2,1.4,0,1.7
		c0,0.2,0.299,0.2,0.399,0.5c2.196-1.1,3.993-2.6,6.189-3.7c2.196-1.2,4.492-2.3,7.586-2.7h1.897c5.09,0.4,7.486,3.6,9.782,6.8
		c4.292-2.4,7.887-5.9,13.776-6.8h2.595c9.483,1.1,12.478,8.6,12.179,19.5c-0.3,1.4,0,3.3-0.101,5v8.2
		c-0.998,5.2,2.896,5.7,6.589,6.2c0.499,0,0.399,0.7,0.399,1.2c0,0.8-0.299,1.4-0.399,2.2c-0.399,0.2-1.198,0.1-1.797,0.1h-1.197
		c-0.2-0.3-0.799,0-1.198-0.1h-1.598c-0.698-0.3-1.896,0-2.795-0.101h-2.395c-1.497,0.101-3.294-0.199-4.592,0.101h-1.896
		c-0.4,0.1-1.098-0.2-1.298,0.1h-1.896c0.099-0.6-0.2-0.8-0.1-1.3v-1.2c-0.1-0.399,0.1-0.6,0.1-0.8c3.194-0.5,6.488-1,5.79-5.4
		c0.299-0.899,0-2.299,0.099-3.399v-2.7c0.2-1.9,0.2-4.6,0-6.5v-1.9c-0.099-0.6,0.2-1.4-0.099-1.8c0-6.3-2.695-10-8.485-10.6
		c-0.4-0.2-1.597-0.2-1.897,0c-1.497,0.1-3.293,0.5-4.991,1.3c-2.295,1.1-4.591,2.1-3.394,5.6v20.3c0.1,0.5-0.2,1.3,0.1,1.6
		c0.1,3.2,3.792,2.9,6.389,3.6c0.299,1.101,0,2.4-0.2,3.301c-0.4,0.3-1.298,0.1-1.897,0.1h-2.195c-0.799-0.3-2.196,0-3.294-0.1
		h-5.689c-0.8,0.1-1.897-0.2-2.496,0.1h-2.296c-0.998-0.1-2.295,0.1-3.094-0.1c-0.099-1-0.299-2.4,0.1-3.301
		c3.194-0.6,6.987-0.5,6.389-4.799c0.299-0.201,0-0.801,0.099-1.201V102.4c0.3-0.4,0-1.4,0.101-2.101v-1.6
		c0.299-0.4,0-1.4,0.099-2.1v-4.5c-0.099-0.5,0.2-1.4-0.099-1.7v-1.2c-0.101-0.4,0.199-1.1-0.101-1.3
		c-0.199-6.1-2.496-10.2-8.485-10.6c-0.1-0.2-1.098-0.2-1.197,0c-1.797,0.1-3.694,0.6-5.391,1.5c-1.497,0.7-3.693,1.8-3.993,3.6
		c-0.299,1.5,0,3.6-0.1,5.3v12.8c0.1,1.4-0.2,3.1,0.1,4.4c-0.799,4.6,2.995,4.699,6.289,5.199c0.299,1,0,2.301-0.1,3.301
		c-0.499,0.3-1.497,0.1-2.196,0.1h-1.497c-0.2-0.3-0.899,0-1.298-0.1h-1.697c-0.799-0.301-2.096,0-2.995-0.101h-1.796
		c-0.998,0.101-2.295-0.2-3.095,0.101h-1.696c-0.4,0.1-0.998-0.2-1.198,0.1h-3.494h-0.101c-0.199-1-0.299-2.2,0-3.3
		c3.095-0.8,7.188-0.601,6.589-5.101c0.299-0.199,0-0.899,0.1-1.3V102c0.299-0.6,0-1.8,0.101-2.7v-2.1c0.299-0.9,0-2.3,0.099-3.4
		v-5.9C93.942,86.6,94.141,85.1,93.842,84.1L93.842,84.1z M176.195,107.9c-5.491-5.801-6.988-19.4-2.296-26.7
		c3.694-5.9,10.481-9.6,18.567-10.3h2.895c12.378,1.2,19.465,9.7,18.467,22.6c-0.499,6.2-2.595,10.9-6.289,14.4
		c-3.693,3.5-8.685,5.8-15.073,6.3h-1.197c-6.09-0.101-10.382-2.101-13.776-5C177.093,108.8,176.694,108.3,176.195,107.9
		L176.195,107.9z M204.843,94.3c-0.2-7.9-2.695-14.1-7.586-17.2c-2.695-1.7-7.088-2.7-10.582-1.2c-8.784,3.7-7.885,20.9-2.496,28.3
		c2.196,3,5.391,5.3,9.882,5.6c0.2,0.2,1.198,0.2,1.298,0c7.287-0.7,9.483-6.399,9.583-14.3C205.043,95.3,205.043,94.4,204.843,94.3
		L204.843,94.3z M279.609,85.8c0.998-9.8,8.385-13.3,17.769-14.9h2.395c5.49,0,8.185,2.8,13.476,3c0.399,0.2,1.598,0.2,2.097,0
		c2.693,0.2,4.292-1.5,5.688-2.2c1.397,5.7-2.894,8.8-8.085,7.3c0,1.2,0.599,2.8,0.599,4.4V85c-0.398,8-4.391,11.9-10.281,14.4
		c-1.397,0.6-2.695,1.1-4.193,1.5c-2.495,0.5-6.887,0-7.287,2.899c-0.398,3.7,4.592,3.5,7.986,3.7c9.883,0.7,19.865,0.7,20.663,10.8
		v1.8c-1.796,11.5-11.38,17.4-23.458,18.601h-2.895c-8.784-0.601-14.774-4-16.17-12.101V125.4c0.998-6.201,6.887-7.5,10.381-11.201
		c-1.597-1.1-3.294-1.6-4.592-3c-0.699-0.699-2.097-2.6-1.796-4.1c0.199-1.1,2.496-2.199,3.693-2.9
		c0.899-0.5,3.993-1.799,3.693-2.899c-0.099-0.7-2.496-1.2-3.494-1.8c-3.993-2.4-5.79-5.7-6.289-11.5
		C279.609,87.2,279.609,86.5,279.609,85.8L279.609,85.8z M294.682,74.9c-4.592,0.6-6.488,3.8-6.888,8.6c-0.2,0.4-0.2,1.6,0,1.9
		c0.499,6.3,2.895,10.8,8.884,11.6c0.299,0.2,1.497,0.2,1.796,0c10.481-0.9,8.484-22.4-1.796-22.1
		C296.38,74.7,295.081,74.7,294.682,74.9z M296.879,115.1c-1.598,0-3.494,0-4.592,0.4c-3.993,1.5-8.285,6.1-6.189,11.4
		c1.697,4.199,6.688,6.5,12.478,6.699c0.499,0.2,1.797,0.2,2.296,0c4.891-0.199,8.983-2,10.979-5.199c1.198-2,1.798-5.4,0.6-8
		c-1.996-4.2-7.786-4.7-13.875-5.101C298.276,114.9,297.378,115.1,296.879,115.1L296.879,115.1z M328.421,90.4
		c1.398-12.3,9.284-18,21.462-19.5h2.896c11.38,1.3,17.568,7.8,18.467,19.6v2.1c-0.898,13.5-8.584,20.2-21.461,21.6h-1.198
		c-12.777-0.601-18.965-7.8-20.165-20v-1.3v-1.3V90.4L328.421,90.4z M362.063,93.5c-0.301-7.3-2.796-13.7-7.986-16.7
		c-8.285-4.9-17.07,1.3-16.672,10.8c-0.198,1-0.198,2.9,0,3.9c0.899,9.8,4.294,17.1,13.777,18.3c0.198,0.2,1.197,0.2,1.296,0
		c6.987-0.6,9.284-5.899,9.585-13.3C362.261,95.8,362.261,94.2,362.063,93.5L362.063,93.5z"/>
</g>
</svg>
