<?xml version="1.0" encoding="utf-8"?>
<!-- Generator: Adobe Illustrator 15.1.0, SVG Export Plug-In . SVG Version: 6.00 Build 0)  -->
<!DOCTYPE svg PUBLIC "-//W3C//DTD SVG 1.1//EN" "http://www.w3.org/Graphics/SVG/1.1/DTD/svg11.dtd">
<svg version="1.1" id="Layer_1" xmlns="http://www.w3.org/2000/svg" xmlns:xlink="http://www.w3.org/1999/xlink" x="0px" y="0px"
	 width="464.5px" height="463.09px" viewBox="0 0 464.5 463.09" enable-background="new 0 0 464.5 463.09" xml:space="preserve">
<path fill="#FFFFFF" d="M393.14,69.01C349.96,25.83,292.579,2,231.47,2C105.51,2,2.94,104.5,2.94,230.45
	C2.87,270.72,13.4,310.019,33.42,344.679L1,463.09l121.17-31.819C155.49,449.5,193.15,459.06,231.4,459.13h0.069
	c125.96,0,228.45-102.5,228.529-228.53C460,169.57,436.24,112.19,393.14,69.01z M231.47,420.51h-0.069
	c-34.069,0-67.541-9.188-96.67-26.45l-6.95-4.108l-71.949,18.83l19.199-70.08l-4.479-7.17c-19.05-30.25-29.06-65.222-29.06-101.08
	c0-104.66,85.239-189.83,190.05-189.83c50.729,0,98.39,19.8,134.25,55.66c35.859,35.93,55.59,83.6,55.59,134.32
	C421.38,335.34,336.13,420.51,231.47,420.51z"/>
<path fill="#25D366" d="M365.789,96.28c-35.859-35.86-83.521-55.66-134.25-55.66c-104.81,0-190.049,85.17-190.049,189.83
	c0,35.858,10.01,70.83,29.06,101.08l4.479,7.17L55.83,408.78l71.949-18.83l6.95,4.108c29.13,17.262,62.601,26.45,96.67,26.45h0.069
	c104.66,0,189.91-85.17,189.91-189.91C421.38,179.88,401.651,132.21,365.789,96.28z M343.31,312.11
	c-4.779,13.369-27.569,25.55-38.55,27.188c-9.859,1.42-22.34,2.021-36.01-2.31c-8.29-2.62-18.9-6.13-32.5-12.03
	c-57.3-24.729-94.73-82.4-97.57-86.141c-2.83-3.811-23.3-31-23.3-59.089s14.71-41.91,19.939-47.59c5.23-5.75,11.431-7.17,15.24-7.17
	c3.811,0,7.62,0,10.91,0.15c3.51,0.22,8.22-1.35,12.85,9.78c4.78,11.43,16.21,39.6,17.631,42.44c1.42,2.84,2.39,6.2,0.52,10.01
	c-1.94,3.81-2.91,6.2-5.75,9.49c-2.84,3.36-5.97,7.47-8.59,10.01c-2.84,2.84-5.83,5.9-2.46,11.65c3.28,5.68,14.79,24.43,31.75,39.52
	c21.81,19.5,40.189,25.552,45.939,28.392c5.68,2.84,9.04,2.319,12.33-1.42c3.359-3.812,14.27-16.66,18.079-22.41
	c3.811-5.68,7.62-4.78,12.851-2.84c5.221,1.87,33.311,15.688,38.99,18.528c5.76,2.91,9.561,4.33,10.979,6.722
	C348.01,287.38,348.01,298.81,343.31,312.11z"/>
<path fill="#FFFFFF" d="M343.31,312.11c-4.779,13.369-27.569,25.55-38.55,27.188c-9.859,1.42-22.34,2.021-36.01-2.31
	c-8.29-2.62-18.9-6.13-32.5-12.03c-57.3-24.729-94.73-82.4-97.57-86.141c-2.83-3.811-23.3-31-23.3-59.089s14.71-41.91,19.939-47.59
	c5.23-5.75,11.431-7.17,15.24-7.17c3.811,0,7.62,0,10.91,0.15c3.51,0.22,8.22-1.35,12.85,9.78c4.78,11.43,16.21,39.6,17.631,42.44
	c1.42,2.84,2.39,6.2,0.52,10.01c-1.94,3.81-2.91,6.2-5.75,9.49c-2.84,3.36-5.97,7.47-8.59,10.01c-2.84,2.84-5.83,5.9-2.46,11.65
	c3.28,5.68,14.79,24.43,31.75,39.52c21.81,19.5,40.189,25.552,45.939,28.392c5.68,2.84,9.04,2.319,12.33-1.42
	c3.359-3.812,14.27-16.66,18.079-22.41c3.811-5.68,7.62-4.78,12.851-2.84c5.221,1.87,33.311,15.688,38.99,18.528
	c5.76,2.91,9.561,4.33,10.979,6.722C348.01,287.38,348.01,298.81,343.31,312.11z"/>
</svg>
