<?xml version="1.0" encoding="utf-8"?>
<!-- Generator: Adobe Illustrator 15.1.0, SVG Export Plug-In . SVG Version: 6.00 Build 0)  -->
<!DOCTYPE svg PUBLIC "-//W3C//DTD SVG 1.1//EN" "http://www.w3.org/Graphics/SVG/1.1/DTD/svg11.dtd">
<svg version="1.1" id="Layer_1" xmlns="http://www.w3.org/2000/svg" xmlns:xlink="http://www.w3.org/1999/xlink" x="0px" y="0px"
	 width="612px" height="792px" viewBox="0 0 612 792" enable-background="new 0 0 612 792" xml:space="preserve">
<g>
	<path fill-rule="evenodd" clip-rule="evenodd" fill="#B5D0FF" d="M399.9,309.9c4-0.9,11.8-0.9,15.8,0
		C410.4,309.9,405.1,309.9,399.9,309.9z"/>
	<path fill-rule="evenodd" clip-rule="evenodd" fill="#488AFF" d="M297.8,309.9c0,26.7,0,53.5,0,80.2c-6.4,0-12.7,0-19.1,0
		c0.4-26.6-0.7-54.6,0.5-80.2C285.5,309.9,291.7,309.9,297.8,309.9z"/>
	<path fill-rule="evenodd" clip-rule="evenodd" fill="#DDEAFF" d="M399.9,309.9c0,26.7,0,53.5,0,80.2
		C399,364.7,399,335.4,399.9,309.9z"/>
	<path fill-rule="evenodd" clip-rule="evenodd" fill="#488AFF" d="M508.4,309.9c0,26.7,0,53.5,0,80.2c-6.4,0-12.7,0-19.1,0
		c0.4-26.6-0.7-54.6,0.5-80.2C496.1,309.9,502.2,309.9,508.4,309.9z"/>
	<path fill-rule="evenodd" clip-rule="evenodd" fill="#87B2FF" d="M419,390.1c0.4-16.4-0.7-34.2,0.5-49.6
		C419.1,356.8,420.2,374.7,419,390.1z"/>
	<path fill-rule="evenodd" clip-rule="evenodd" fill="#639CFF" d="M458.2,342.7c1.3,14.7,0.2,31.8,0.5,47.5
		C457.5,375.4,458.6,358.3,458.2,342.7z"/>
	<path fill-rule="evenodd" clip-rule="evenodd" fill="#DDEAFF" d="M230.7,345.9c0.9,1.5,0.9,6.7,0,8.2
		C230.7,351.4,230.7,348.7,230.7,345.9z"/>
	<path fill-rule="evenodd" clip-rule="evenodd" fill="#B5D0FF" d="M399.9,390.1c6.4,0,12.7,0,19.1,0C413.9,391,405,391,399.9,390.1z
		"/>
	<path fill-rule="evenodd" clip-rule="evenodd" fill="#B5D0FF" d="M477.9,390.1c-5.1,0.9-14,0.9-19.1,0
		C465.1,390.1,471.5,390.1,477.9,390.1z"/>
	<path fill-rule="evenodd" clip-rule="evenodd" fill="#488AFF" d="M76.3,281.6c-0.1-0.5,0.2-0.5,0.5-0.5c19.4-22,72.3-32,104.8-13.1
		c-1.4,4.4-8.2,8.2-9.8,14.2C118.3,257.7,58,296.4,62.7,355.8c3.5,43.3,39.6,72.9,81.8,69.8c21.8-1.6,40.4-12.9,52.4-27.3
		c13.9-16.7,24.1-51.8,10.9-78.6c6.2-1.3,10.6-7.3,14.2-9.3c4.4,10.3,8.1,21.4,8.7,35.5c0,2.7,0,5.5,0,8.2
		c-5.5,51.9-35,79.9-84,88.4c-5.6,0-11.3,0-16.9,0c-22.5-3.3-40.2-11.5-53.5-24c-2-2.4-4.1-4.6-6.5-6.5
		c-13.7-15.3-26.4-39.3-24-68.7c1.8-23.1,12.3-42.2,24-55.1C72.2,286.1,74.4,284,76.3,281.6z"/>
	<path fill-rule="evenodd" clip-rule="evenodd" fill="#FFFFFF" d="M76.3,281.6c-2.4,2-4.6,4.1-6.5,6.5c-11.8,12.9-22.2,32-24,55.1
		c-2.3,29.4,10.3,53.4,24,68.7c2,2.4,4.1,4.6,6.5,6.5c13.3,12.5,31,20.7,53.5,24c-29.8,0-59.7,0-89.5,0c0-61.8,0-123.7,0-185.5
		c186.2,0,372.5,0,558.7,0c0,61.8,0,123.7,0,185.5c-150.8,0-301.5,0-452.3,0c49-8.5,78.5-36.5,84-88.4c0.9-1.5,0.9-6.7,0-8.2
		c-0.6-14.1-4.3-25.1-8.7-35.5c-3.6,2-8,8-14.2,9.3c13.2,26.7,3,61.9-10.9,78.6c-12,14.4-30.6,25.7-52.4,27.3
		c-42.2,3-78.4-26.6-81.8-69.8c-4.7-59.4,55.6-98,109.1-73.7c1.6-6,8.4-9.7,9.8-14.2C149.2,249,96.2,259,76.9,281
		C76.5,281,76.2,281.1,76.3,281.6z M180,295.2c0.8,19.5,28.6,19.2,35.5,7.6c10.5-17.8-12.7-39.6-29.5-25.1c-2.7,2.4-5,6.5-6,12
		C179.1,290.3,179.1,294.6,180,295.2z M96.5,354.7c3.1,22,20.2,39.1,44.7,37.6c37.1-2.3,49.8-46.2,28.9-70.4
		c-21.7-25.1-71.7-13.8-73.7,23.5C95.6,347.2,95.6,352.8,96.5,354.7z M306.6,352.5c3.2,43.9,63.9,53.5,80.7,16.4
		c14.1-31.1-10.6-65.9-44.7-60.6C322.5,311.5,304.8,328.1,306.6,352.5z M477.9,390.1c-1.1-17.4,1.5-34.7,0-50.2
		c-2.6-26.5-25.5-39.9-50.7-28.4c-3.6,1.6-6.6,5.5-10.4,6c0-2.9,0.2-6-1.1-7.6c-4-0.9-11.8-0.9-15.8,0c-0.9,25.5-0.9,54.7,0,80.2
		c5.1,0.9,14,0.9,19.1,0c1.3-15.5,0.2-33.3,0.5-49.6c3.8-20.3,39.9-22.4,38.7,2.2c0.4,15.6-0.7,32.7,0.5,47.5
		C463.9,391,472.8,391,477.9,390.1z M554.3,308.3c-23,3.2-39.4,22.8-37.1,45.3c2.1,21.3,19.4,40.6,46.4,38.7
		c13.8-1,22.6-9.5,30-19.1c-4-3.7-8.8-6.5-13.6-9.3c-5.2,5.2-8.6,10.2-15.8,11.5c-36.9,6.2-38.5-58,0.5-50.7
		c7.1,1.3,10.4,7.3,15.8,11.5c4.2-3.5,10-5.3,13.1-9.8C584.7,315.7,573.6,305.6,554.3,308.3z M278.2,311c0,26.4,0,52.7,0,79.1
		c5.5,1.2,13.3,0.2,19.6,0.5c0.9-25.8,0.9-55.5,0-81.3c-6.2,0-12.4,0-18.5,0C278.6,309.6,278.2,310.1,278.2,311z M488.8,311
		c0,26.4,0,52.7,0,79.1c5.5,1.2,13.3,0.2,19.6,0.5c0.9-25.8,0.9-55.5,0-81.3c-6.2,0-12.4,0-18.5,0
		C489.2,309.6,488.8,310.1,488.8,311z"/>
	<path fill-rule="evenodd" clip-rule="evenodd" fill="#639CFF" d="M69.8,288.1c2-2.4,4.1-4.6,6.5-6.5
		C74.4,284,72.2,286.1,69.8,288.1z"/>
	<path fill-rule="evenodd" clip-rule="evenodd" fill="#639CFF" d="M76.3,418.5c-2.4-2-4.6-4.1-6.5-6.5
		C72.2,413.9,74.4,416.1,76.3,418.5z"/>
	<path fill-rule="evenodd" clip-rule="evenodd" fill="#B5D0FF" d="M279.3,309.4c6.2,0,12.4,0,18.5,0c0.9,25.8,0.9,55.5,0,81.3
		c-6.4-0.3-14.2,0.7-19.6-0.5c0-26.4,0-52.7,0-79.1C278.2,310.1,278.6,309.6,279.3,309.4z M279.3,309.9c-1.3,25.6-0.2,53.6-0.5,80.2
		c6.4,0,12.7,0,19.1,0c0-26.7,0-53.5,0-80.2C291.7,309.9,285.5,309.9,279.3,309.9z"/>
	<path fill-rule="evenodd" clip-rule="evenodd" fill="#B5D0FF" d="M489.9,309.4c6.2,0,12.4,0,18.5,0c0.9,25.8,0.9,55.5,0,81.3
		c-6.4-0.3-14.2,0.7-19.6-0.5c0-26.4,0-52.7,0-79.1C488.8,310.1,489.2,309.6,489.9,309.4z M489.9,309.9c-1.3,25.6-0.2,53.6-0.5,80.2
		c6.4,0,12.7,0,19.1,0c0-26.7,0-53.5,0-80.2C502.2,309.9,496.1,309.9,489.9,309.9z"/>
	<path fill-rule="evenodd" clip-rule="evenodd" fill="#B5D0FF" d="M180,289.7c0,1.8,0,3.6,0,5.5C179.1,294.6,179.1,290.3,180,289.7z
		"/>
	<path fill-rule="evenodd" clip-rule="evenodd" fill="#FFFFFF" d="M345.8,324.7c13.5-1.5,23.4,6.5,26.2,17.5
		c5.9,23-19.1,44.1-38.2,28.4C318.8,358.1,323.4,327.1,345.8,324.7z"/>
	<path fill-rule="evenodd" clip-rule="evenodd" fill="#488AFF" d="M180,289.7c1-5.5,3.3-9.6,6-12c16.7-14.5,40,7.3,29.5,25.1
		c-6.9,11.5-34.7,11.9-35.5-7.6C180,293.4,180,291.6,180,289.7z"/>
	<path fill-rule="evenodd" clip-rule="evenodd" fill="#488AFF" d="M96.5,345.4c2-37.2,51.9-48.6,73.7-23.5
		c20.9,24.1,8.2,68.1-28.9,70.4c-24.5,1.5-41.7-15.7-44.7-37.6C96.5,351.6,96.5,348.5,96.5,345.4z"/>
	<path fill-rule="evenodd" clip-rule="evenodd" fill="#488AFF" d="M342.6,308.3c34.1-5.4,58.8,29.5,44.7,60.6
		c-16.8,37.1-77.5,27.5-80.7-16.4C304.8,328.1,322.5,311.5,342.6,308.3z M333.8,370.5c19.1,15.7,44.1-5.4,38.2-28.4
		c-2.8-11-12.7-18.9-26.2-17.5C323.4,327.1,318.8,358.1,333.8,370.5z"/>
	<path fill-rule="evenodd" clip-rule="evenodd" fill="#488AFF" d="M415.7,309.9c1.3,1.6,1.1,4.7,1.1,7.6c3.8-0.6,6.8-4.4,10.4-6
		c25.3-11.6,48.2,1.9,50.7,28.4c1.5,15.5-1.1,32.8,0,50.2c-6.4,0-12.7,0-19.1,0c-0.4-15.6,0.7-32.7-0.5-47.5
		c1.2-24.6-35-22.5-38.7-2.2c-1.3,15.5-0.2,33.3-0.5,49.6c-6.4,0-12.7,0-19.1,0c0-26.7,0-53.5,0-80.2
		C405.1,309.9,410.4,309.9,415.7,309.9z"/>
	<path fill-rule="evenodd" clip-rule="evenodd" fill="#488AFF" d="M593.5,326.3c-3.1,4.6-8.9,6.3-13.1,9.8
		c-5.4-4.1-8.7-10.1-15.8-11.5c-39-7.3-37.4,56.9-0.5,50.7c7.3-1.2,10.6-6.3,15.8-11.5c4.9,2.8,9.7,5.6,13.6,9.3
		c-7.4,9.6-16.2,18.1-30,19.1c-27,1.9-44.2-17.4-46.4-38.7c-2.3-22.5,14.1-42.1,37.1-45.3C573.6,305.6,584.7,315.7,593.5,326.3z"/>
	<path fill-rule="evenodd" clip-rule="evenodd" fill="#87B2FF" d="M96.5,345.4c0,3.1,0,6.2,0,9.3C95.6,352.8,95.6,347.2,96.5,345.4z
		"/>
</g>
</svg>
