<svg width="469" height="132" viewBox="0 0 512 139" xmlns="http://www.w3.org/2000/svg" xmlns:xlink="http://www.w3.org/1999/xlink">
  <g fill="none" fill-rule="evenodd">
    <path
      d="M163.773 106.518H155V38.765h39.844v8.324h-31.07v22.244h28.024v8.132h-28.025v29.053zm47.567-58.002a6.246 6.246 0 0 1-7.843.782 6.14 6.14 0 0 1-2.3-7.483c1.13-2.72 4.04-4.268 6.947-3.697 2.908.57 5.004 3.102 5.006 6.044a5.892 5.892 0 0 1-1.817 4.354h.007zm0 58.002h-8.773V60.152h8.773v46.366zm19.252 0h-8.773V60.152h8.386v7.57h.38a11.907 11.907 0 0 1 5.481-6.247 15.767 15.767 0 0 1 8.058-2.462 16.823 16.823 0 0 1 6.577 1.139l-3.337 8.132a13.355 13.355 0 0 0-4.67-.666 11.5 11.5 0 0 0-8.438 3.74c-2.447 2.495-3.671 5.76-3.671 9.796l.007 25.364zm44.15 1.478c-7.056 0-12.79-2.333-17.205-7-4.414-4.668-6.623-10.555-6.628-17.661a25.415 25.415 0 0 1 6.435-17.41 20.921 20.921 0 0 1 16.444-7.289c6.926 0 12.472 2.24 16.638 6.72 4.165 4.48 6.246 10.473 6.24 17.979l-.096 1.611h-36.903c.254 4.667 1.827 8.364 4.722 11.09a14.363 14.363 0 0 0 10.151 4.065c6.29 0 10.548-2.649 12.773-7.947l7.82 3.216a20.823 20.823 0 0 1-7.53 9.033c-3.5 2.396-7.788 3.593-12.862 3.593zm12.585-30.31c-.188-2.65-1.412-5.174-3.671-7.569-2.26-2.395-5.618-3.568-10.077-3.519a12.635 12.635 0 0 0-8.438 3.031 15.444 15.444 0 0 0-4.908 8.132l27.094-.074zm41.036 30.31a19.96 19.96 0 0 1-9.547-2.218 16.135 16.135 0 0 1-6.338-5.677h-.38v6.417h-8.393V38.765h8.773v21.387l-.38 6.431h.38a16.135 16.135 0 0 1 6.338-5.677 19.967 19.967 0 0 1 9.547-2.27c6.038 0 11.25 2.366 15.64 7.097 4.39 4.731 6.581 10.599 6.576 17.602 0 7.003-2.192 12.87-6.576 17.601-4.384 4.731-9.597 7.085-15.64 7.06zm-1.43-7.947a13.996 13.996 0 0 0 10.486-4.59c2.925-3.061 4.387-7.115 4.387-12.161 0-5.047-1.462-9.1-4.387-12.16a14.355 14.355 0 0 0-10.498-4.587 14.356 14.356 0 0 0-10.518 4.542c-2.89 3.026-4.335 7.094-4.335 12.205 0 5.11 1.46 9.191 4.38 12.242a14.02 14.02 0 0 0 10.515 4.546l-.03-.037zm45.981 7.947c-4.965 0-9.11-1.42-12.437-4.258-3.327-2.839-4.995-6.592-5.005-11.259 0-5.046 1.971-9.004 5.914-11.872 3.942-2.868 8.802-4.303 14.582-4.303 5.148 0 9.369.947 12.66 2.84V77.82a10.314 10.314 0 0 0-3.53-8.184 12.719 12.719 0 0 0-8.661-3.038 13.52 13.52 0 0 0-6.911 1.797 9.29 9.29 0 0 0-4.245 4.923l-8.007-3.408c1.083-2.785 3.213-5.367 6.39-7.747 3.178-2.38 7.373-3.564 12.587-3.549 5.958 0 10.923 1.725 14.895 5.175 3.972 3.45 5.943 8.339 5.913 14.667v28.062h-8.416v-6.432h-.38c-3.5 5.273-8.616 7.91-15.349 7.91zm1.43-7.947a14.333 14.333 0 0 0 9.876-3.984 12.441 12.441 0 0 0 4.468-9.507c-2.482-2.02-6.206-3.031-11.171-3.031-4.26 0-7.47.914-9.63 2.743a8.215 8.215 0 0 0-3.24 6.431 6.184 6.184 0 0 0 2.98 5.397 11.845 11.845 0 0 0 6.717 1.988v-.037zm48.52 7.947c-5.213 0-9.517-1.262-12.913-3.785a22.417 22.417 0 0 1-7.448-9.462l7.82-3.216c2.483 5.806 6.703 8.708 12.66 8.708 2.368.097 4.707-.53 6.704-1.796a5.498 5.498 0 0 0 2.621-4.731c0-3.026-2.13-5.076-6.39-6.15l-9.436-2.27A22.516 22.516 0 0 1 408 80.99a10.32 10.32 0 0 1-4.006-8.56c0-4.1 1.827-7.427 5.481-9.98a22.132 22.132 0 0 1 13.01-3.83c3.87-.06 7.687.907 11.053 2.802a15.773 15.773 0 0 1 6.956 8l-7.619 3.09c-1.713-4.101-5.273-6.151-10.68-6.151-2.3-.076-4.576.481-6.576 1.611a4.897 4.897 0 0 0-2.666 4.354c0 2.652 2.066 4.45 6.196 5.397l9.243 2.18c4.384.986 7.626 2.711 9.726 5.175a12.513 12.513 0 0 1 3.143 8.324 12.867 12.867 0 0 1-5.146 10.409c-3.431 2.79-7.847 4.184-13.25 4.184zm47.188 0c-7.055 0-12.79-2.333-17.204-7-4.413-4.668-6.623-10.567-6.628-17.698a25.415 25.415 0 0 1 6.435-17.41 20.96 20.96 0 0 1 16.466-7.252c6.951 0 12.497 2.24 16.638 6.72 4.14 4.48 6.221 10.473 6.241 17.979l-.097 1.611h-36.932c.253 4.667 1.827 8.364 4.722 11.09a14.363 14.363 0 0 0 10.173 4.05c6.29 0 10.548-2.649 12.772-7.947l7.82 3.216a20.816 20.816 0 0 1-7.53 9.034c-3.5 2.405-7.792 3.607-12.876 3.607zm12.586-30.31c-.188-2.65-1.412-5.174-3.671-7.569-2.26-2.395-5.613-3.568-10.062-3.519a12.643 12.643 0 0 0-8.438 3.031 15.444 15.444 0 0 0-4.908 8.132l27.08-.074z"
      fill="#000" fill-rule="nonzero" opacity=".54"/>
    <g>
      <g>
        <path
          d="M0 105.76L16.132 2.532a2.98 2.98 0 0 1 5.571-.946l16.684 31.118 6.65-12.662a2.98 2.98 0 0 1 5.274 0l45.022 85.718H0z"
          fill="#FFA000"/>
        <path fill="#F57C00" d="M55.733 65.55L38.379 32.688 0 105.76l55.733-40.21z"/>
      </g>
      <g>
        <path
          d="M95.333 105.76L82.977 29.3a2.98 2.98 0 0 0-5.042-1.609L0 105.761l43.123 24.183a8.938 8.938 0 0 0 8.714 0l43.496-24.184z"
          fill="#FFCA28"/>
      </g>
    </g>
  </g>
</svg>
