<svg xmlns="http://www.w3.org/2000/svg" viewBox="0 0 640 640">
  <path fill="black" d="M379.576 444.726c0,-18.9805 -4.6536,-33.7918 -13.9608,-44.5754 -9.43712,-10.7718 -25.7247,-20.9412 -49.229,-30.4964 -23.3861,-9.54342 -45.0596,-19.2286 -64.9024,-29.02 -19.8428,-9.80327 -36.9808,-21.1892 -51.3077,-34.1579 -14.3269,-12.8742 -25.3468,-27.8035 -33.0713,-44.8352 -7.58277,-16.89 -11.3742,-37.465 -11.3742,-61.7134 0,-40.406 13.5947,-73.7253 40.9021,-99.7926 27.1775,-26.209 63.5559,-41.5163 108.982,-45.8037l0 -54.3314 57.0598 0 0 55.796c43.7249,6.37803 78.1191,24.3783 103.112,54.0007 24.9688,29.5279 37.595,66.993 37.595,112.419l-121.348 0c0,-24.8507 -4.77171,-43.9494 -14.3388,-57.4259 -9.54342,-13.3466 -23.1381,-20.079 -40.9021,-20.079 -15.7915,0 -28.0397,5.00794 -36.7209,14.9293 -8.70483,9.92138 -13.1104,23.516 -13.1104,41.0202 0,17.764 5.01975,31.7248 15.0592,42.1423 10.0395,10.3938 26.209,20.3152 48.3667,29.8586 22.2877,9.43712 43.2289,19.2404 63.0598,29.398 19.7247,10.1694 36.7445,21.6853 51.0597,34.5359 14.3388,12.9805 25.6066,28.0515 33.6973,45.3076 8.19695,17.138 12.2364,37.8312 12.2364,61.9614 0,40.9021 -12.9805,74.3395 -38.9414,100.171 -25.9609,25.831 -61.2291,40.9021 -106.041,45.1895l0 50.7762 -56.9416 0 0 -51.1542c-52.1817,-5.504 -92.2216,-23.3743 -120.013,-53.6345 -27.9216,-30.2366 -41.8824,-70.1583 -41.8824,-119.624l120.994 0c0,27.3074 5.98826,47.9888 18.1183,62.3157 12.0001,14.2088 29.15,21.3192 51.4258,21.3192 16.2876,0 29.02,-4.91345 38.4572,-14.575 9.3072,-9.67335 13.9608,-23.0318 13.9608,-39.9218z"/>
</svg>
