<svg version="1.1" id="Capa_1" xmlns="http://www.w3.org/2000/svg" xmlns:xlink="http://www.w3.org/1999/xlink" x="0px" y="0px"
	 width="396.39px" height="792px" viewBox="0 0 396.39 792" enable-background="new 0 0 396.39 792" xml:space="preserve">
<g fill="#FFF">
	<path d="M324.501,792c0,0,71.889,0,71.889-71.997V71.997C396.389,0,324.501,0,324.501,0H72.889C72.889,0,1,0,1,71.997v648.006
		C1.001,792,72.889,792,72.889,792H324.501z M198.696,762.022c-19.842,0-35.944-16.104-35.944-35.944
		c0-19.842,16.103-35.944,35.944-35.944s35.943,16.104,35.943,35.944S218.537,762.022,198.696,762.022z M144.778,43.888
		c0-4.457,2.121-7.944,4.78-7.944h98.272c2.624,0,4.781,3.559,4.781,7.944v2.121c0,4.457-2.157,7.944-4.781,7.944h-98.272
		c-2.624,0-4.78-3.559-4.78-7.944V43.888z M36.946,89.861h323.5v575.111h-323.5V89.861z"/>
</g>
</svg>
