<svg xmlns="http://www.w3.org/2000/svg" xmlns:xlink="http://www.w3.org/1999/xlink" x="0px" y="0px"
	 width="609.669px" height="161.89px" viewBox="5.167 320.497 609.669 161.89"
	 enable-background="new 5.167 320.497 609.669 161.89" xml:space="preserve">
<path fill="#E7E7E6" d="M496.7,374.037c2.29-0.241,5.548-0.241,7.717,0H496.7z"/>
<path fill="#C2BFBF" d="M463.664,374.279c0.24-0.362,1.084-0.242,1.809-0.242h2.29c0.483,0.362,1.449,0,2.172,0.121h2.172
	c0.603,0.362,1.808,0,2.651,0.121h7.717c0.964-0.121,2.292,0.242,3.014-0.121h2.895c1.083-0.121,2.531,0.241,3.375-0.121h12.659
	c11.095,0.362,19.171,3.624,25.321,8.938c0.965,1.087,1.93,2.054,2.895,2.899c4.823,5.677,8.321,12.803,8.802,22.95v4.107
	c-1.932,24.762-17.241,36.236-41.84,38.29c-0.482,0.122-1.327-0.241-1.567,0.122h-10.73c-1.568-0.363-3.859,0-5.668-0.122h-5.063
	c-1.444-0.362-3.498,0-5.062-0.121h-5.55c-0.359-0.362-1.444,0-2.048-0.122c0-2.174,0.723-3.623,1.567-4.831
	c5.427-0.121,9.045-2.053,8.318-8.455c0.364-0.362,0-1.448,0.124-2.054v-3.02c0.359-10.268,0-21.139,0.12-31.646v-5.676
	c-0.12-2.416,0.239-5.315-0.12-7.489c1.206-8.213-6.271-7.851-12.301-8.938C461.977,376.936,462.94,375.729,463.664,374.279z
	 M495.858,379.594c-4.342,0.241-10.37-1.208-9.646,4.228c-0.362,0.966,0,2.537-0.121,3.744v12.563
	c-0.241,6.765-0.241,14.615,0,21.38v10.991c0.121,1.087-0.241,2.537,0.121,3.383c-0.362,8.938,9.164,10.026,17.846,9.542
	c6.632-0.362,11.695-3.382,14.709-6.281c0.604-0.481,1.206-1.086,1.809-1.812c4.703-5.194,7.598-12.32,7.837-22.104
	c0.24-1.208,0.24-3.503,0-4.711c-1.444-19.206-11.815-29.473-31.108-30.801C497.063,379.352,496.339,379.714,495.858,379.594z"/>
<path fill="#E7E7E6" d="M467.762,374.037c0.727,0.121,1.688-0.241,2.172,0.121C469.212,374.037,468.125,374.399,467.762,374.037z
	 M488.383,374.158c0.842-0.362,2.29,0,3.375-0.121C490.913,374.399,489.466,374.037,488.383,374.158z M472.106,374.158
	c0.843,0.121,2.048-0.242,2.65,0.121C473.913,374.279,472.708,374.521,472.106,374.158z M482.474,374.279
	c0.724-0.362,2.049,0,3.014-0.121C484.765,374.521,483.438,374.279,482.474,374.279z"/>
<path fill="#C2BFBF" d="M559.158,386.116c0.965-7.126-6.029-6.16-11.216-7.126c0.125-2.174,1.086-3.503,2.053-4.832
	c1.084,0.121,2.291,0.121,3.498,0.121c0.239,0.362,1.205,0,1.808,0.121h2.65c3.498,0.242,7.959,0.242,11.335,0h4.703
	c1.446-0.121,3.256,0.242,4.461-0.121c15.915-0.725,29.3,2.778,29.3,17.515c0,8.334-5.667,12.924-11.816,15.824
	c9.043,2.898,16.761,7.126,17.604,18.118v2.174c-0.361,5.436-2.291,9.301-4.943,12.563c-0.724,0.604-1.446,1.328-2.049,2.052
	c-6.512,5.558-15.314,8.938-27.253,9.06h-8.317c-0.726-0.362-2.051,0-2.894-0.121h-2.773c-0.725-0.362-2.05,0-2.895-0.121H559.4
	c-0.964-0.363-2.652,0-3.978-0.121c-2.412-0.121-5.308,0.241-7.479-0.121c-0.238-1.813,0.848-3.503,1.569-4.832
	c3.256-0.604,6.632-0.122,8.321-2.053c1.566-1.813,0.844-4.953,1.206-8.335c0.36-1.449,0-3.502,0.12-5.073v-28.504
	C559.4,397.229,559.4,391.189,559.158,386.116z M573.866,380.197c-0.603,0-1.325,0-1.808,0.121
	c-1.083,0.846-0.842,3.261-0.842,5.314c-0.364,1.45,0,3.503-0.122,5.073v7.73c-0.242,2.295-0.242,5.557,0,7.852
	c0,0.241,0.122,0.362,0.122,0.483c0.842,0.241,2.17,0.121,3.254,0.121c0.603,0.361,1.93,0,2.774,0.12
	c10.611,1.087,17.362-2.295,18.086-10.509c0.843-10.146-5.909-16.427-15.795-16.307c-0.242-0.362-0.966,0-1.448-0.121h-2.771
	C574.833,380.077,574.111,379.835,573.866,380.197z M572.541,412.568c-0.723,0-1.326,0-1.446,0.604
	c-0.242,6.04-0.242,13.045,0,18.964v3.262c0.122,0.481-0.242,1.449,0.122,1.812c0.12,6.16,3.979,8.576,10.487,8.333
	c1.086,0.242,3.258,0.242,4.345,0c5.546-0.481,9.283-2.536,11.694-5.798c5.186-7.247,3.014-18.964-3.737-23.312
	c-3.98-2.537-8.32-3.383-14.109-3.624C577.727,412.328,574.593,412.328,572.541,412.568z"/>
<path fill="#E7E7E6" d="M553.493,374.279c0.479,0.121,1.444-0.242,1.808,0.121C554.698,374.399,553.733,374.641,553.493,374.279z
	 M573.866,374.521c1.207-0.362,3.015,0,4.464-0.121C577.124,374.641,575.317,374.399,573.866,374.521z M557.833,374.521h11.335
	C565.79,374.762,561.33,374.762,557.833,374.521z M495.858,379.594c0.481,0.121,1.205-0.242,1.445,0.121
	C496.823,379.594,496.097,379.956,495.858,379.594z M573.866,380.197c0.244-0.362,0.967,0,1.45-0.121
	C575.073,380.318,574.35,380.077,573.866,380.197z M578.087,380.077c0.481,0.121,1.205-0.242,1.448,0.121
	C579.053,380.077,578.33,380.318,578.087,380.077z M486.211,383.821c-0.121,1.208,0.24,2.778-0.121,3.744
	C486.211,386.358,485.849,384.788,486.211,383.821z M571.217,385.633c-0.122,1.691,0.238,3.745-0.122,5.073
	C571.217,389.015,570.853,386.962,571.217,385.633z M559.158,386.116c0.24,5.073,0.24,10.991,0,16.065V386.116z M473.791,387.687
	c0.364,2.174,0,5.073,0.123,7.489C473.671,392.88,473.913,390.102,473.791,387.687z"/>
<path fill="#C2BFBF" d="M77.709,397.833c0.36,0.241,0,1.208,0.119,1.812h-0.119V397.833z"/>
<path fill="#E7E7E6" d="M571.095,398.437v7.852C570.853,403.993,570.853,400.731,571.095,398.437z"/>
<rect x="77.709" y="399.645" fill="#69B240" width="0.119" height="1.933"/>
<path fill="#C2BFBF" d="M139.441,400.007c0.483-0.241,1.93-0.241,2.291,0H139.441z M170.669,400.007c0.483-0.241,2.05-0.241,2.653,0
	H170.669z M231.68,400.007c0.845-0.241,2.653-0.241,3.497,0H231.68z M358.404,400.007c0.603-0.241,2.29-0.241,2.894,0H358.404z
	 M421.824,400.007c0.844-0.241,2.653-0.241,3.498,0H421.824z"/>
<path fill="#E7E7E6" d="M486.09,400.128v21.38C485.849,414.743,485.849,407.013,486.09,400.128z M474.034,400.731
	c-0.121,10.509,0.239,21.38-0.121,31.647C473.913,421.99,473.671,410.999,474.034,400.731z"/>
<path fill="#C2BFBF" d="M77.709,401.457h0.119c-0.119,0.482,0.241,1.449-0.119,1.811V401.457z M380.108,403.752
	c-0.483,0.241-1.931,0.241-2.533,0H380.108z M355.148,404.838c0.481-0.24,1.929-0.24,2.531,0H355.148z M122.32,407.254
	c-0.241-0.361-0.241-1.69,0-2.053V407.254z"/>
<path fill="#E7E7E6" d="M574.471,406.893c0.846,0.12,2.172-0.242,2.774,0.12C576.279,407.013,575.073,407.254,574.471,406.893z"/>
<path fill="#599636" d="M133.776,407.496c0.119-0.242,1.325-0.242,1.446,0H133.776z"/>
<path fill="#C2BFBF" d="M165.244,407.979c0.483-0.241,1.93-0.241,2.292,0H165.244z M296.67,408.342c0.241-0.242,1.446-0.242,1.808,0
	H296.67z"/>
<path fill="#E7E7E6" d="M541.556,408.824c0.239,0.967,0.239,3.02,0,4.107V408.824z M528.411,410.516c0.24,1.208,0.24,3.503,0,4.711
	V410.516z M572.541,412.568c2.05-0.24,5.186-0.24,7.234,0H572.541z"/>
<path fill="#C2BFBF" d="M275.327,412.932c0.361,1.207,0,3.02,0.122,4.469C275.087,416.193,275.449,414.381,275.327,412.932z"/>
<path fill="#E7E7E6" d="M571.095,413.173v18.964C570.853,426.218,570.853,419.213,571.095,413.173z"/>
<path fill="#C2BFBF" d="M122.199,420.059c0.12-2.055-0.242-4.591,0.12-6.402C122.32,415.709,122.561,418.246,122.199,420.059z
	 M377.936,415.105c0.241,0.242,0.241,1.57,0,1.933V415.105z"/>
<path fill="#599636" d="M286.06,415.227v15.22C285.818,425.735,285.818,419.938,286.06,415.227z M346.828,415.227v2.295
	C346.586,417.159,346.586,415.709,346.828,415.227z M112.554,415.951c0.361,1.208,0,3.02,0.122,4.349h-0.122V415.951z"/>
<path fill="#C2BFBF" d="M155.115,416.193c0.362,0.241,0,1.207,0.121,1.811h-0.121V416.193z"/>
<rect x="155.115" y="418.004" fill="#599636" width="0.121" height="11.959"/>
<path fill="#C2BFBF" d="M336.941,418.004v2.537C336.7,419.938,336.7,418.488,336.941,418.004z M319.457,418.488
	c0.362,0.361,0,1.328,0.121,1.932h-0.121V418.488z M406.752,424.89c-0.239-1.208-0.239-3.503,0-4.711V424.89z M112.554,420.3h0.122
	v7.126h-0.122V420.3z M145.35,420.3c0.361,0.241,0,1.087,0.119,1.57C145.229,421.749,145.47,420.783,145.35,420.3z"/>
<path fill="#599636" d="M319.457,420.3h0.121v13.045C319.217,429.238,319.578,424.648,319.457,420.3z"/>
<path fill="#C2BFBF" d="M177.784,420.783c0.36,0.482,0,1.449,0.12,2.174C177.542,422.474,177.905,421.508,177.784,420.783z
	 M308.848,422.353c0.36,0.846,0,2.296,0.12,3.383C308.606,424.89,308.968,423.44,308.848,422.353z"/>
<path fill="#599636" d="M145.591,423.44c0.361,0.362,0,1.449,0.12,2.053h-0.12V423.44z M187.912,423.561v6.04h-0.12
	C187.912,427.547,187.67,425.252,187.912,423.561z"/>
<path fill="#C2BFBF" d="M395.661,425.011c0.121-0.483-0.243-1.208,0.121-1.45v1.45H395.661z M447.627,423.682
	c0.24,0.483,0.24,1.933,0,2.536V423.682z"/>
<path fill="#599636" d="M395.661,425.011h0.121v1.57h-0.121V425.011z M177.905,425.252c0.242,2.295,0.242,5.557,0,7.852V425.252z"/>
<path fill="#C2BFBF" d="M145.591,425.493h0.12v5.436h-0.12V425.493z M395.661,426.581h0.121v1.57
	C395.54,428.03,395.782,427.063,395.661,426.581z M436.536,427.306c0.239,0.846,0.239,2.657,0,3.503V427.306z"/>
<path fill="#599636" d="M112.554,427.547h0.122c-0.122,1.329,0.24,3.02-0.122,4.106V427.547z"/>
<path fill="#C2BFBF" d="M246.631,428.271c0.242,0.121,0.242,1.329,0,1.449V428.271z M187.792,429.601h0.12
	c-0.12,3.261,0.241,6.885-0.12,9.904V429.601z M155.115,429.963h0.121v10.749h-0.121V429.963z"/>
<path fill="#E7E7E6" d="M559.158,430.688c-0.121,1.691,0.24,3.744-0.121,5.073C559.038,434.19,558.797,432.137,559.158,430.688z"/>
<path fill="#599636" d="M145.591,430.809h0.12c-0.12,0.725,0.241,1.933-0.12,2.536V430.809z"/>
<path fill="#C2BFBF" d="M275.449,431.05v4.711h-0.122C275.449,434.19,275.087,432.258,275.449,431.05z M359.85,431.533
	c-0.361,0.241-1.809,0.241-2.17,0H359.85z"/>
<path fill="#E7E7E6" d="M486.09,432.499c0.361,0.846,0,2.295,0.121,3.383C485.849,435.036,486.211,433.586,486.09,432.499z"/>
<path fill="#C2BFBF" d="M112.554,434.069c-0.121,0.967,0.242,2.416-0.121,3.262C112.554,436.244,112.312,434.794,112.554,434.069z
	 M286.06,434.674c0.361,1.208,0,3.02,0.12,4.348C285.939,437.814,286.18,436.123,286.06,434.674z M145.591,435.277
	c-0.122,0.725,0.24,1.933-0.122,2.537C145.47,436.969,145.229,435.761,145.591,435.277z"/>
<path fill="#E7E7E6" d="M571.095,435.398c0.36,0.241,0,1.208,0.122,1.812C570.853,436.848,571.217,435.882,571.095,435.398z"/>
<path fill="#C2BFBF" d="M122.199,435.519c0.361,1.45,0,3.503,0.12,5.315C122.079,439.385,122.32,437.21,122.199,435.519z"/>
<path fill="#E7E7E6" d="M473.791,435.519c-0.12,0.604,0.243,1.691-0.12,2.054C473.791,436.969,473.551,435.882,473.791,435.519z"/>
<path fill="#599636" d="M275.327,435.64h0.122c-0.122,0.483,0.24,1.208-0.122,1.449V435.64z"/>
<path fill="#C2BFBF" d="M177.784,440.472c0.12-1.33-0.242-3.02,0.12-4.107C177.784,437.693,178.147,439.385,177.784,440.472z
	 M319.578,437.089c0.361,0.846,0,2.416,0.119,3.503C319.457,439.747,319.698,438.297,319.578,437.089z M275.327,438.418
	c-0.119,0.604,0.241,1.57-0.119,1.933C275.208,439.747,274.968,438.78,275.327,438.418z M112.433,439.505
	c-0.121,0.483,0.242,1.33-0.121,1.571C112.433,440.592,112.073,439.747,112.433,439.505z M145.35,439.747
	c-0.121,0.482,0.241,1.207-0.121,1.449C145.35,440.834,145.108,439.988,145.35,439.747z"/>
<path fill="#599636" d="M155.115,440.834h0.121v1.933C154.996,442.283,155.237,441.317,155.115,440.834z"/>
<path fill="#E7E7E6" d="M581.703,445.424h4.345C584.962,445.665,582.91,445.665,581.703,445.424z"/>
<path fill="#599636" d="M233.489,446.873h1.567C234.816,447.115,233.61,447.115,233.489,446.873z M423.393,446.873h1.566
	C424.839,447.115,423.632,447.115,423.393,446.873z"/>
<path fill="#C2BFBF" d="M170.669,448.081v1.449C170.429,449.41,170.429,448.202,170.669,448.081z"/>
<path fill="#599636" d="M301.492,449.893c-0.241-0.122-0.241-1.329,0-1.449V449.893z"/>
<path fill="#C2BFBF" d="M112.192,450.98c0.964-0.362,2.532,0,3.737-0.121C114.965,451.222,113.398,450.859,112.192,450.98z
	 M118.101,450.859c1.205,0.121,2.772-0.241,3.617,0.121C120.632,450.859,119.065,451.222,118.101,450.859z M177.061,450.98
	c1.566-0.362,3.738,0,5.546-0.121C181.039,451.222,178.868,450.859,177.061,450.98z M188.877,450.98
	c-1.085-0.121-2.531,0.241-3.376-0.121C186.587,450.98,188.033,450.618,188.877,450.98z"/>
<path fill="#E7E7E6" d="M463.785,450.859c0.603,0.121,1.687-0.241,2.047,0.121C465.231,450.859,464.145,451.222,463.785,450.859z"/>
<path fill="#C2BFBF" d="M108.695,451.101c0.242-0.362,0.967,0,1.447-0.122C109.901,451.343,109.059,451.101,108.695,451.101z
	 M125.455,451.101c-0.482-0.122-1.326,0.242-1.567-0.122C124.369,451.101,125.214,450.859,125.455,451.101z M143.903,451.101
	c0.724-0.362,2.05,0,3.015-0.122C146.314,451.343,144.867,451.101,143.903,451.101z M153.91,450.98
	c1.205,0.122,2.894-0.241,3.979,0.122C156.564,451.101,154.876,451.343,153.91,450.98z M173.081,451.101
	c0.242-0.362,1.086,0,1.568-0.122C174.407,451.343,173.565,451.101,173.081,451.101z M190.686,450.98
	c0.481,0.122,1.206-0.241,1.447,0.122C191.77,451.101,190.926,451.343,190.686,450.98z"/>
<path fill="#E7E7E6" d="M471.379,450.98c1.688,0.122,3.741-0.241,5.064,0.122C474.876,451.101,472.828,451.343,471.379,450.98z"/>
<path fill="#C2BFBF" d="M107.007,451.101c-0.482,0.242-2.05,0.242-2.652,0H107.007z"/>
<path fill="#E7E7E6" d="M481.629,451.101c1.809,0.121,4.102-0.241,5.668,0.121C485.367,451.222,483.198,451.463,481.629,451.101z
	 M498.028,451.343c0.24-0.364,1.084,0,1.567-0.122C499.356,451.463,498.509,451.222,498.028,451.343z M555.301,451.101
	c1.206,0.121,2.894-0.241,3.978,0.121C558.073,451.222,556.384,451.463,555.301,451.101z M562.294,451.343
	c0.964,0.12,2.29-0.242,2.893,0.12C564.344,451.343,563.016,451.584,562.294,451.343z"/>
<path fill="#C2BFBF" d="M276.173,451.584c1.205-0.362,3.015,0,4.34-0.121C279.428,451.825,277.62,451.463,276.173,451.584z
	 M285.939,451.584c-1.566-0.121-3.616,0.241-4.942-0.121C282.563,451.584,284.613,451.222,285.939,451.584z M310.174,451.584
	c0.965-0.362,2.651,0,3.979-0.121C313.067,451.825,311.38,451.463,310.174,451.584z M319.457,451.584
	c-1.567-0.121-3.617,0.241-4.943-0.121C316.081,451.584,318.131,451.222,319.457,451.584z"/>
<path fill="#E7E7E6" d="M568.081,451.463c0.964,0.121,2.291-0.241,2.894,0.121C570.011,451.463,568.684,451.825,568.081,451.463z"/>
<path fill="#C2BFBF" d="M271.952,451.705c0.361-0.362,1.325,0,1.93-0.122C273.519,451.946,272.555,451.705,271.952,451.705z
	 M288.11,451.584c0.48,0.122,1.325-0.24,1.566,0.122C289.195,451.705,288.35,451.946,288.11,451.584z M306.677,451.705
	c0.24-0.362,0.964,0,1.447-0.122C307.882,451.946,307.038,451.705,306.677,451.705z M323.437,451.705
	c-0.483-0.122-1.326,0.241-1.568-0.122C322.231,451.705,323.197,451.463,323.437,451.705z"/>
<path fill="#E7E7E6" d="M574.35,451.584h4.942C577.967,451.825,575.557,451.825,574.35,451.584z"/>
<path fill="#C2BFBF" d="M268.335,451.946c0.241-0.363,1.205,0,1.81-0.122C269.782,452.067,268.819,451.825,268.335,451.946z
	 M293.053,451.946c-0.482-0.122-1.446,0.24-1.81-0.122C291.848,451.825,292.811,451.584,293.053,451.946z M302.577,451.946
	c0.481-0.363,1.567,0,2.291-0.122C304.386,452.067,303.301,451.825,302.577,451.946z M325.004,451.705
	c0.482,0.12,1.447-0.242,1.81,0.12C326.21,451.825,325.246,452.067,325.004,451.705z M231.68,452.309
	c-0.12,0.242-1.326,0.242-1.445,0H231.68z M421.704,452.309c-0.122,0.242-1.327,0.242-1.446,0H421.704z M357.801,453.396
	c0.604,0.122,1.688-0.24,2.049,0.122C359.247,453.396,358.162,453.638,357.801,453.396z M386.255,457.141
	c0.242,0.362,0.242,1.812,0,2.174V457.141z"/>
<path fill="#599636" d="M334.892,467.166c-0.241-0.121-0.241-1.329,0-1.449V467.166z"/>
<path fill="#E7E7E6" d="M45.394,471.997v3.986C45.154,475.018,45.154,472.964,45.394,471.997z"/>
<path fill="#C2BFBF" d="M362.623,475.5c-0.604,0.24-2.171,0.24-2.773,0H362.623z"/>
<path fill="#E7E7E6" d="M41.174,476.708c0.362,0.604,0,1.813,0.12,2.656C40.933,478.762,41.294,477.554,41.174,476.708z
	 M45.394,478.521c0.362,0.24,0,1.086,0.121,1.57C45.154,479.849,45.515,479.003,45.394,478.521z"/>
<path fill="#C2BFBF" d="M357.92,481.781c-0.844,0.242-2.652,0.242-3.496,0H357.92z"/>
<path fill="#E7E7E6" d="M606.545,442.524c0.603-0.725,1.326-1.448,2.049-2.052C607.99,441.196,607.268,441.921,606.545,442.524z"/>
<path fill="#C2BFBF" d="M42.379,442.524c0.481,7.37,0.724,16.187,5.667,18.602h0.121c-2.291,2.295-2.894,6.281-2.773,10.992
	c-0.24,0.968-0.24,3.02,0,3.987v2.536c0.121,0.483-0.24,1.329,0.121,1.57v2.175h-0.121c-1.326-0.604-2.773-0.967-4.1-1.448v-1.449
	c-0.12-0.846,0.242-2.054-0.12-2.658c-0.121-5.436-0.844-10.388-2.532-14.253c0.724,0.362,0.724-0.483,0.845-0.726
	c0.964-2.175,1.206-5.798,1.566-9.18C41.656,449.048,42.018,445.303,42.379,442.524z M53.714,456.536
	c0.483-0.604,0.964-1.087,1.447-1.449C54.678,455.69,54.198,456.174,53.714,456.536z M56.005,454.241
	c0.481-0.604,0.964-1.086,1.566-1.57C57.211,453.154,56.608,453.758,56.005,454.241z M50.338,336.23
	c0.603,0.483,1.083,0.966,1.566,1.57C51.303,337.317,50.82,336.834,50.338,336.23z M28.755,453.517
	c0.964,0.846,1.81,1.689,2.652,2.657C30.444,455.328,29.6,454.483,28.755,453.517z"/>
<path fill="#E7E7E6" d="M463.664,374.279c0-0.604,1.328-0.604,1.809-0.242C464.748,374.037,463.905,373.917,463.664,374.279z
	 M529.859,382.976c1.086,0.966,2.051,1.933,2.894,2.899C531.668,384.908,530.703,383.942,529.859,382.976z M518.766,439.021
	c0.482-0.604,1.085-1.207,1.809-1.812C519.972,437.935,519.369,438.539,518.766,439.021z"/>
<path fill="none" d="M6.087,396.625v-75.01h607.45v104.121c-0.843-10.992-8.682-15.22-17.604-18.118
	c6.149-2.899,11.816-7.369,11.816-15.824c0-14.736-13.385-18.239-29.3-17.515c-1.447,0.121-3.255-0.242-4.461,0.121h-18.688
	c-0.242-0.362-1.205,0-1.808-0.121c-1.206,0-2.412,0-3.498-0.121c-0.967,1.329-1.93,2.657-2.053,4.832
	c5.187,0.966,12.181,0,11.216,7.126v44.571c-0.362,1.449,0,3.503-0.121,5.073c-0.241,3.382,0.361,6.522-1.205,8.334
	c-1.689,1.933-5.065,1.448-8.321,2.053c-0.723,1.33-1.809,3.02-1.569,4.831c2.172,0.364,5.066,0,7.479,0.122
	c0.962,0.362,2.651,0,3.978,0.121h3.014c0.726,0.362,2.051,0,2.894,0.122h2.773c0.725,0.362,2.049,0,2.895,0.121h3.375
	c1.326,0.241,3.616,0.241,4.942,0c11.938-0.121,20.74-3.503,27.252-9.06c0.724-0.604,1.446-1.329,2.049-2.054
	c2.651-3.261,4.583-7.126,4.944-12.562v54.354H45.515v-2.175c-0.121-0.482,0.241-1.329-0.121-1.57v-2.537v-3.985
	c-0.12-4.711,0.482-8.577,2.773-10.993c1.929-1.449,3.737-3.02,5.546-4.47c0.603-0.481,1.086-0.966,1.446-1.448
	c0.361-0.241,0.604-0.482,0.845-0.846c0.603-0.482,1.083-0.966,1.566-1.569c10.852-12.321,19.171-27.058,20.136-49.403
	c0.361-0.241,0-1.208,0.12-1.812v-1.934c-0.12-0.482,0.241-1.449-0.12-1.811c-0.483-13.529-3.979-24.763-8.44-34.426
	c-4.462-9.784-10.37-18.118-17.363-25.607c-0.483-0.604-0.964-1.087-1.567-1.57c-3.979-3.382-6.391-8.334-8.802-13.287
	c0-0.483-0.241-0.725-0.241-1.208c-0.361,5.919-4.582,8.456-7.959,11.717c-6.751,6.281-11.937,13.649-16.517,22.225
	C10.668,367.031,7.173,379.714,6.087,396.625z M319.457,418.488c-0.362-10.63-6.27-19.326-16.759-18.723
	c-3.618,0.241-6.632,1.691-9.284,3.262c-2.773,1.57-4.943,3.623-7.476,4.951c-0.48-2.536,0.964-6.28-0.48-7.972
	c-3.136,1.087-6.15,2.175-9.888,3.021c-2.412,0.604-9.646,0.725-9.525,3.502c0.12,1.691,3.015,2.054,4.823,2.778
	c2.05,0.846,4.46,1.812,4.341,3.624c0.119,1.449-0.241,3.262,0.119,4.469v13.528c-0.36,1.208,0,3.141-0.119,4.711v2.778
	c-0.362,0.362,0,1.329-0.122,1.933c1.086,5.798-3.497,5.919-7.476,6.766c-0.482,1.208-0.361,3.382,0,4.709
	c0.241,0,0.241,0.242,0.603,0.122c0.483-0.122,1.447,0.24,1.809-0.122h1.93c0.603-0.12,1.566,0.242,1.93-0.12h2.291
	c1.447-0.122,3.255,0.241,4.34-0.122h0.483c1.326,0.363,3.376,0,4.942,0.122h2.171c0.241,0.362,1.086,0,1.567,0.12h1.566
	c0.242,0.363,1.207,0,1.81,0.122h0.481c0.603-1.208,0.844-3.261,0.603-4.953c-2.772-0.482-6.028,0-7.234-2.054
	c-0.843-1.448-0.481-3.382-0.603-5.798c-0.12-1.449,0.241-3.261-0.12-4.349v-4.228v-15.219c0.723-5.074,5.546-6.16,10.61-6.885
	h1.809c7.596,0.604,10.731,5.556,10.368,14.011c0.122,1.087-0.239,2.537,0.122,3.382v9.905c0,3.261,0.603,7.489-0.603,9.301
	c-1.206,1.933-4.342,1.086-6.754,2.054c0,0.481-0.24,0.725-0.119,1.328c-0.241,0.121-0.241,1.329,0,1.449
	c-0.121,0.846,0.119,1.329,0.241,1.933c0.121,0.122,0.361,0.242,0.724,0.122c0.724-0.122,1.809,0.24,2.292-0.122h1.809
	c0.481-0.12,1.206,0.242,1.447-0.12h2.049c1.207-0.122,2.895,0.241,3.979-0.122h0.481c1.327,0.363,3.376,0,4.943,0.122h2.29
	c0.242,0.362,1.085,0,1.567,0.12h1.567c0.24,0.362,1.207,0,1.81,0.122c0.239,0,0.48,0,0.603-0.122
	c0.723-1.207,0.723-3.02,0.603-4.709c-3.738-1.208-9.285-0.483-8.2-6.403c-0.121-1.086,0.242-2.656-0.121-3.502v-3.744V420.42
	C319.578,419.695,319.819,418.729,319.457,418.488z M465.351,374.037c-0.36-0.241-1.687-0.241-1.809,0.242
	c-0.724,1.45-1.686,2.657-2.049,4.349c6.029,1.087,13.383,0.725,12.298,8.938c0.123,2.416-0.239,5.315,0.123,7.489v5.677
	c-0.362,10.268,0,21.139-0.123,31.647v3.02c-0.359,0.362,0,1.449-0.121,2.054c0.848,6.401-2.771,8.334-8.319,8.455
	c-0.842,1.208-1.565,2.656-1.565,4.831c0.359,0.362,1.444,0,2.047,0.121h5.547c1.448,0.363,3.497,0,5.064,0.121h5.063
	c1.569,0.363,3.86,0,5.669,0.122h10.729c0.482-0.122,1.327,0.241,1.569-0.122c24.597-2.053,39.909-13.408,41.838-38.291
	c0.242-0.966,0.242-3.02,0-4.106c-0.481-10.146-3.978-17.152-8.801-22.95c-0.966-1.087-1.929-2.053-2.895-2.899
	c-6.149-5.194-14.35-8.576-25.321-8.938c-2.29-0.242-5.545-0.242-7.717,0h-4.942c-1.086,0.121-2.533-0.242-3.378,0.121h-2.893
	c-0.966,0.121-2.291-0.242-3.015,0.121h-7.718c-0.603-0.362-1.808,0-2.653-0.121h-2.168c-0.483-0.362-1.45,0-2.172-0.121
	C466.92,374.037,466.197,374.037,465.351,374.037z M122.32,405.201c-0.12-1.813,0.482-3.744-0.12-5.073
	c-3.979,1.329-9.524,3.02-14.589,3.985c-1.809,0.363-4.461,0.363-4.342,2.054c0,1.329,3.498,2.054,4.823,2.657
	c3.377,1.449,5.307,2.175,4.462,7.248v18.118c-0.361,0.725,0,2.174-0.121,3.262v2.174c-0.362,0.241,0,1.086-0.121,1.57
	c0.725,5.436-4.341,5.193-7.957,6.16c-0.362,1.208-0.241,2.657,0,3.987h0.12c0.482,0.24,2.05,0.24,2.652,0h1.566
	c0.483-0.122,1.207,0.24,1.447-0.122h2.05c1.205-0.121,2.771,0.241,3.737-0.121h2.169c0.965,0.362,2.533,0,3.618,0.121h2.05
	c0.241,0.362,1.086,0,1.566,0.122h1.809c0.482,0.24,2.291,0.362,2.652-0.122c0.122-1.208,0.482-2.657,0.122-3.986
	c-3.98-0.604-8.562-0.725-7.598-6.281c-0.12-1.689,0.241-3.744-0.12-5.314v-15.461c0.361-1.812,0-4.349,0.12-6.401
	c0.362-2.175,2.894-3.504,4.823-4.349c2.05-0.966,4.462-1.57,6.512-1.812h1.446c7.113,0.482,9.888,5.436,10.249,12.803
	c0.12,0.483-0.241,1.329,0.12,1.57v13.408c-0.361,0.481,0,1.689-0.12,2.536v2.054c-0.361,0.241,0,0.966-0.122,1.449
	c0.726,5.194-3.856,5.194-7.716,5.798c-0.481,0.967-0.241,2.778-0.121,3.986c0.724,0.604,2.895,0.362,3.739,0.122h2.771
	c0.964-0.122,2.292,0.24,3.016-0.122h6.872c0.964,0.362,2.653,0,3.979,0.122h2.652c0.48,0.24,2.05,0.362,2.29-0.122
	c0.241-1.086,0.604-2.657,0.241-3.986c-3.134-0.846-7.595-0.482-7.716-4.349v-1.933v-10.75v-11.958
	c-0.121-0.482,0.24-1.449-0.121-1.812c-1.446-4.228,1.206-5.436,4.102-6.765c2.05-0.967,4.098-1.449,6.028-1.57h2.29
	c6.873,0.725,10.128,5.194,10.248,12.804c0.122,0.725-0.24,1.691,0.122,2.175v13.407c-0.362,1.087,0,2.779-0.122,4.106
	c0.844,5.315-3.135,5.919-6.992,6.523c0,0.362-0.242,0.604-0.121,0.966c-0.242,0.121-0.242,1.329,0,1.449
	c-0.121,0.725,0.241,0.967,0.121,1.57h2.29c0.481-0.122,1.326,0.242,1.567-0.122h2.29c1.81-0.12,3.979,0.242,5.547-0.12h2.895
	c0.843,0.362,2.29,0,3.376,0.12h1.929c0.241,0.364,0.964,0,1.447,0.122h1.447c0.36,0.242,2.05,0.362,2.17-0.122
	c0.12-0.844,0.482-1.57,0.482-2.656c0.24-0.241,0.12-1.207,0-1.449h-0.482c-4.581-0.604-9.163-1.087-7.957-7.488
	c0.36-3.021,0-6.644,0.119-9.905v-6.039c0.362-13.167-3.255-22.226-14.71-23.554c-0.481-0.242-2.05-0.242-2.652,0h-0.481
	c-7.115,0.966-11.454,5.314-16.639,8.213c-2.773-3.865-5.668-7.609-11.817-8.213c-0.48-0.242-1.929-0.242-2.29,0
	c-3.738,0.482-6.632,1.812-9.164,3.261c-2.532,1.45-4.823,3.261-7.475,4.47c0-0.242-0.362-0.242-0.482-0.604
	C122.32,406.529,122.32,405.805,122.32,405.201z M231.68,400.007c-9.766,0.846-17.965,5.315-22.427,12.441
	c-5.666,8.817-3.858,25.244,2.773,32.251c0.482,0.604,0.964,1.086,1.566,1.57c3.979,3.501,9.284,5.798,16.641,6.039
	c0.119,0.242,1.326,0.242,1.445,0c7.718-0.604,13.746-3.382,18.207-7.609c4.462-4.228,6.993-9.905,7.596-17.394
	c1.206-15.582-7.355-25.849-22.306-27.299C234.333,399.766,232.525,399.766,231.68,400.007z M358.403,400.007
	c-11.214,1.812-20.136,6.04-21.462,17.997c-0.241,0.484-0.241,1.934,0,2.537c0.603,7.006,2.772,10.992,7.596,13.891
	c1.206,0.725,4.101,1.329,4.22,2.175c0.242,1.328-3.375,2.897-4.459,3.501c-1.447,0.846-4.221,2.176-4.462,3.503
	c-0.361,1.813,1.446,4.107,2.17,4.953c1.567,1.69,3.618,2.295,5.546,3.623c-4.221,4.47-11.333,6.162-12.539,13.528
	c-0.242,0.122-0.242,1.33,0,1.45c1.688,9.783,8.921,13.891,19.532,14.615c0.844,0.241,2.651,0.241,3.497,0
	c14.469-1.448,26.165-8.576,28.335-22.467c0.243-0.362,0.243-1.812,0-2.175c-0.963-12.078-13.021-12.2-24.959-13.045
	c-4.1-0.241-10.127,0-9.645-4.469c0.362-3.503,5.788-2.899,8.803-3.503c1.809-0.362,3.496-1.088,5.063-1.813
	c7.114-3.02,11.938-7.73,12.421-17.394c0.241-0.241,0.241-1.57,0-1.933c0-1.812-0.725-3.744-0.725-5.314
	c6.27,1.812,11.453-1.812,9.767-8.817c-1.687,0.846-3.497,2.898-6.873,2.657h-2.532c-6.391-0.241-9.767-3.624-16.278-3.624
	C360.694,399.766,359.005,399.766,358.403,400.007z M421.824,400.007c-14.71,1.812-24.355,8.696-25.924,23.554
	c-0.36,0.242,0,0.967-0.12,1.45v1.57c0.12,0.482-0.24,1.328,0.12,1.57c1.449,14.736,8.924,23.432,24.357,24.157
	c0.12,0.242,1.326,0.242,1.446,0c15.555-1.812,24.958-9.785,25.923-26.091c0.24-0.482,0.24-1.932,0-2.536
	c-1.085-14.253-8.561-22.104-22.306-23.675C424.478,399.766,422.668,399.766,421.824,400.007z"/>
<path fill="#C2BFBF" d="M127.143,451.101c0.844-0.122,2.049,0.121,2.651-0.122C129.433,451.584,127.745,451.343,127.143,451.101z
	 M137.393,450.98c0.964,0.363,2.532,0,3.737,0.122C140.286,451.343,137.996,451.584,137.393,450.98z M160.422,451.101
	c0.722-0.122,1.809,0.121,2.29-0.122C162.472,451.463,160.904,451.343,160.422,451.101z M193.699,451.101
	c0.724-0.122,1.688,0.121,2.17-0.122C195.629,451.463,194.063,451.343,193.699,451.101z M196.232,448.322
	c0-0.604,0.121-1.449-0.481-1.449h0.481C196.474,447.115,196.595,448.202,196.232,448.322z"/>
<path fill="#E7E7E6" d="M212.028,444.699c0.603,0.481,1.085,0.966,1.566,1.57C212.99,445.907,212.51,445.303,212.028,444.699z"/>
<path fill="#69B240" d="M6.087,396.625c1.086-17.031,4.703-29.714,10.731-41.068c4.581-8.456,9.646-15.824,16.517-22.226
	c3.498-3.261,7.718-5.677,7.959-11.716c0,0.483,0.361,0.604,0.242,1.208c1.688,23.795,1.566,49.523,1.566,75.01
	c0,14.856,0.481,30.197-0.845,44.571c-0.361,2.657-0.724,6.522-1.206,9.904s-0.604,7.126-1.567,9.181
	c-0.12,0.241-0.12,1.087-0.844,0.726c-2.412-2.054-4.944-4.107-7.234-6.281c-0.844-0.966-1.688-1.812-2.652-2.657
	c-11.696-12.685-21.1-27.541-22.787-50.37C6.087,400.973,6.087,398.799,6.087,396.625z"/>
<path fill="#599636" d="M41.656,322.943c2.412,4.952,4.824,9.905,8.802,13.287c0.483,0.604,0.964,1.087,1.566,1.57
	c6.873,7.368,12.902,15.824,17.364,25.607c4.46,9.663,7.957,20.896,8.439,34.425v5.556c-0.845,22.226-9.285,37.083-20.136,49.402
	c-0.603,0.482-1.084,0.967-1.566,1.571c-0.242,0.362-0.483,0.604-0.845,0.844c-0.603,0.483-1.083,0.968-1.447,1.45
	c-1.81,1.57-3.617,3.142-5.545,4.469h-0.121c-4.943-2.295-5.186-11.112-5.667-18.602c1.448-14.372,0.845-29.592,0.845-44.57
	C43.224,372.467,43.224,346.739,41.656,322.943z"/>
<path fill="none" d="M579.535,380.197c9.887,0,16.638,6.281,15.794,16.307c-0.723,8.214-7.474,11.596-18.085,10.509
	c-0.604-0.362-1.93,0-2.775-0.12c-1.083,0-2.412,0.12-3.254-0.121c-0.122-0.121-0.122-0.242-0.122-0.483v-7.852v-7.73
	c0.361-1.449,0-3.503,0.122-5.073c0-2.053-0.24-4.348,0.842-5.314c0.483-0.242,1.086-0.121,1.809-0.121
	c0.483-0.121,1.207,0.242,1.449-0.121h2.771C578.33,380.318,579.053,380.077,579.535,380.197z M357.68,404.838
	c12.541-0.361,14.83,25.608,2.17,26.695h-2.17c-7.354-0.967-10.128-6.402-10.73-14.012v-2.295c0.481-5.798,2.773-9.663,8.318-10.389
	H357.68z M233.489,446.873c-5.426-0.362-9.283-3.02-11.936-6.766c-6.512-8.937-7.476-29.714,3.014-34.184
	c4.221-1.811,9.524-0.604,12.781,1.45c5.909,3.744,8.923,11.112,9.164,20.775v1.45c-0.122,9.542-2.774,16.427-11.575,17.272
	L233.489,446.873L233.489,446.873z M359.85,453.517c7.355,0.482,14.349,1.086,16.76,6.16c1.446,3.142,0.723,7.127-0.726,9.663
	c-2.41,3.865-7.354,6.04-13.261,6.281h-2.773c-6.872-0.241-13.021-3.02-15.072-8.093c-2.532-6.402,2.533-11.957,7.476-13.769
	c1.205-0.483,3.618-0.483,5.547-0.483C358.162,453.638,359.247,453.396,359.85,453.517z M486.211,383.821
	c-0.842-5.436,5.186-3.986,9.646-4.228c0.238,0.362,0.965,0,1.445,0.121c19.293,1.329,29.664,11.596,31.108,30.801v4.711
	c-0.239,9.784-3.135,16.79-7.837,22.104c-0.603,0.483-1.205,1.087-1.809,1.812c-3.014,2.899-8.077,5.919-14.709,6.281
	c-8.683,0.483-18.208-0.604-17.846-9.542c-0.121-1.086,0.24-2.537-0.121-3.383v-10.991v-21.38v-12.563
	C486.451,386.599,486.09,385.029,486.211,383.821z M6.087,403.147c1.567,22.829,11.093,37.687,22.789,50.369
	c0.843,0.967,1.688,1.812,2.651,2.657c2.291,2.175,4.823,4.228,7.235,6.28c1.688,3.987,2.412,8.818,2.532,14.254
	c0.12,0.845-0.241,2.053,0.12,2.656v1.449c1.327,0.483,2.773,0.846,4.101,1.45H6.207C6.087,455.933,6.087,429.479,6.087,403.147z
	 M406.752,420.179c-0.48-11.476,10.009-18.843,20.138-13.045c6.149,3.624,9.284,11.354,9.646,20.172v3.503
	c-0.363,8.938-3.014,15.34-11.577,16.064h-1.566c-11.454-1.449-15.555-10.146-16.641-22.104V420.179z M571.095,413.173
	c0.122-0.604,0.725-0.604,1.446-0.604h7.234c5.788,0.242,10.248,1.088,14.108,3.625c6.752,4.469,9.042,16.064,3.737,23.312
	c-2.411,3.384-6.148,5.436-11.697,5.799h-4.34c-6.512,0.241-10.369-2.175-10.491-8.334c-0.119-0.483,0.242-1.449-0.119-1.812v-3.262
	C571.095,425.855,571.095,419.454,571.095,413.173z"/>
<path fill="#47474A" d="M275.327,412.932c0-1.813-2.29-2.778-4.34-3.624c-1.809-0.725-4.703-1.087-4.823-2.778
	c-0.241-2.777,7.113-2.898,9.524-3.502c3.738-0.846,6.753-2.055,9.888-3.021c1.447,1.812,0,5.557,0.483,7.972
	c2.531-1.328,4.702-3.502,7.475-4.951c2.652-1.45,5.667-3.021,9.284-3.262c10.491-0.604,16.398,7.972,16.76,18.723v1.932
	c0.119,4.229-0.241,8.938,0.119,13.046v3.744c0.122,1.086-0.24,2.657,0.122,3.502c-1.084,6.039,4.461,5.195,8.199,6.403
	c0.12,1.689,0.12,3.501-0.603,4.709c-0.122,0.122-0.362,0.122-0.603,0.122c-0.241-0.363-1.207,0-1.81-0.122h-1.566
	c-0.241-0.362-1.086,0-1.568-0.12h-2.29c-1.326-0.363-3.374,0-4.943-0.122h-0.481c-1.206,0.122-2.894-0.241-3.979,0.122h-2.05
	c-0.483,0.12-1.206-0.242-1.447,0.12h-1.809c-0.724,0.122-1.81-0.241-2.292,0.122c-0.361,0-0.603,0-0.724-0.122
	c-0.12-0.604-0.361-1.086-0.241-1.933v-1.448c-0.121-0.604,0.121-0.846,0.121-1.328c2.29-0.968,5.426-0.122,6.752-2.054
	c1.205-1.812,0.603-6.04,0.603-9.301v-9.905c-0.121-1.087,0.241-2.536-0.121-3.382c0.362-8.455-2.773-13.407-10.369-14.011
	c-0.24-0.242-1.446-0.242-1.809,0c-5.063,0.725-9.887,1.811-10.609,6.885c-0.242,4.711-0.242,10.508,0,15.219v4.228
	c0.12,1.45-0.242,3.262,0.12,4.349c0.12,2.538-0.241,4.47,0.603,5.798c1.207,2.054,4.461,1.449,7.233,2.054
	c0.363,1.691,0,3.745-0.603,4.953h-0.481c-0.241-0.363-1.205,0-1.809-0.122h-1.567c-0.241-0.362-1.086,0-1.566-0.12h-2.172
	c-1.326-0.362-3.376,0-4.942-0.122h-0.483c-1.445,0.122-3.254-0.24-4.34,0.122h-2.291c-0.604,0.12-1.567-0.242-1.93,0.12h-1.929
	c-0.483,0.122-1.447-0.241-1.809,0.122c-0.362,0.121-0.362-0.122-0.603-0.122c-0.362-1.328-0.483-3.382,0-4.709
	c3.978-0.727,8.439-0.968,7.475-6.766c0.362-0.362,0-1.329,0.122-1.933v-1.329c0.361-0.24,0-0.966,0.119-1.449v-4.711V417.4
	C275.327,415.951,275.69,414.139,275.327,412.932z M112.554,415.951c0.725-5.073-1.206-5.919-4.462-7.248
	c-1.325-0.482-4.702-1.328-4.823-2.656c-0.119-1.691,2.533-1.691,4.342-2.054c5.064-0.966,10.49-2.657,14.589-3.986
	c0.724,1.45,0,3.382,0.12,5.073c-0.241,0.362-0.241,1.691,0,2.054c0,0.241,0.361,0.241,0.482,0.604
	c2.652-1.329,4.823-3.14,7.476-4.47c2.652-1.449,5.426-2.777,9.163-3.261h2.291c6.148,0.483,9.043,4.349,11.816,8.214
	c5.184-2.898,9.526-7.127,16.64-8.214h3.135c11.454,1.329,15.071,10.388,14.711,23.554c-0.363,1.691,0,3.986-0.122,6.04v9.904
	c-1.206,6.281,3.498,6.885,7.958,7.489c0.604,0,0.482,0.846,0.482,1.449c0,0.967-0.361,1.691-0.482,2.657
	c-0.481,0.242-1.446,0.121-2.17,0.121h-1.446c-0.241-0.362-0.965,0-1.447-0.121h-1.93c-0.843-0.362-2.29,0-3.376-0.122h-2.894
	c-1.808,0.122-3.979-0.24-5.546,0.122h-2.29c-0.483,0.121-1.327-0.241-1.568,0.121h-2.29c0.119-0.725-0.241-0.967-0.121-1.57v-1.449
	c-0.12-0.482,0.121-0.725,0.121-0.967c3.858-0.604,7.837-1.208,6.994-6.522c0.36-1.086,0-2.777,0.119-4.105v-3.262
	c0.241-2.295,0.241-5.556,0-7.851V423.2c-0.119-0.726,0.241-1.691-0.119-2.175c0-7.609-3.256-12.078-10.249-12.804
	c-0.483-0.241-1.93-0.241-2.292,0c-1.808,0.121-3.978,0.604-6.028,1.57c-2.772,1.329-5.546,2.536-4.1,6.765v24.52
	c0.121,0.604-0.241,1.57,0.121,1.933c0.12,3.865,4.58,3.503,7.717,4.349c0.361,1.33,0,2.899-0.241,3.987
	c-0.483,0.362-1.568,0.121-2.292,0.121h-2.651c-0.965-0.362-2.652,0-3.979-0.121h-6.872c-0.966,0.121-2.291-0.241-3.015,0.121
	h-2.773c-1.205-0.121-2.771,0.121-3.737-0.121c-0.119-1.208-0.36-2.898,0.121-3.987c3.858-0.725,8.439-0.604,7.717-5.797
	c0.361-0.242,0-0.967,0.12-1.45v-2.055c0.362-0.483,0-1.691,0.122-2.538v-1.933c0.361-0.482,0-1.69,0.119-2.536v-5.436
	c-0.119-0.604,0.242-1.691-0.119-2.054v-1.449c-0.122-0.483,0.24-1.329-0.122-1.57c-0.24-7.368-3.015-12.321-10.249-12.804
	c-0.121-0.242-1.326-0.242-1.446,0c-2.17,0.121-4.462,0.725-6.512,1.813c-1.808,0.845-4.46,2.174-4.823,4.348
	c-0.36,1.813,0,4.349-0.12,6.402v15.461c0.12,1.69-0.242,3.744,0.12,5.314c-0.965,5.557,3.618,5.676,7.597,6.28
	c0.361,1.207,0,2.779-0.12,3.986c-0.604,0.363-1.809,0.121-2.653,0.121h-1.808c-0.242-0.362-1.086,0-1.568-0.121h-2.05
	c-0.965-0.363-2.531,0-3.617-0.121h-2.17c-1.205,0.121-2.771-0.242-3.738,0.121h-2.049c-0.482,0.121-1.205-0.241-1.446,0.121h-4.221
	h-0.122c-0.24-1.208-0.361-2.657,0-3.986c3.738-0.966,8.683-0.726,7.959-6.161c0.361-0.24,0-1.086,0.121-1.57v-2.172
	c0.36-0.725,0-2.174,0.122-3.261v-2.537c0.36-1.087,0-2.778,0.119-4.106v-7.127C112.675,418.971,112.915,417.159,112.554,415.951z
	 M212.028,444.699c-6.632-7.007-8.44-23.434-2.773-32.251c4.462-7.126,12.66-11.596,22.428-12.441h3.496
	c14.951,1.45,23.512,11.717,22.307,27.299c-0.603,7.488-3.135,13.166-7.597,17.394c-4.461,4.228-10.49,7.006-18.206,7.609h-1.446
	c-7.356-0.122-12.54-2.538-16.64-6.039C213.113,445.786,212.63,445.183,212.028,444.699z M246.631,428.271
	c-0.241-9.542-3.255-17.031-9.163-20.775c-3.255-2.054-8.562-3.262-12.781-1.449c-10.61,4.469-9.524,25.244-3.016,34.183
	c2.653,3.624,6.513,6.402,11.937,6.765c0.242,0.241,1.447,0.241,1.568,0c8.802-0.846,11.454-7.729,11.575-17.273
	C246.873,429.479,246.873,428.393,246.631,428.271z M336.941,418.004c1.205-11.837,10.128-16.064,21.463-17.997h2.894
	c6.631,0,9.886,3.382,16.277,3.624c0.481,0.241,1.93,0.241,2.533,0c3.252,0.241,5.184-1.813,6.87-2.658
	c1.688,6.886-3.496,10.63-9.766,8.818c0,1.449,0.724,3.382,0.724,5.314v1.933c-0.481,9.663-5.305,14.374-12.419,17.394
	c-1.688,0.725-3.255,1.329-5.064,1.813c-3.014,0.604-8.318,0-8.802,3.501c-0.48,4.47,5.547,4.228,9.646,4.47
	c11.938,0.846,23.994,0.846,24.958,13.045v2.175c-2.169,13.891-13.745,21.017-28.335,22.468h-3.496
	c-10.61-0.727-17.846-4.832-19.532-14.617v-1.448c1.206-7.49,8.319-9.059,12.539-13.529c-1.929-1.329-3.979-1.933-5.546-3.624
	c-0.845-0.844-2.533-3.141-2.17-4.952c0.24-1.328,3.015-2.656,4.461-3.503c1.086-0.604,4.823-2.173,4.461-3.502
	c-0.12-0.845-3.016-1.449-4.221-2.174c-4.823-2.899-6.993-6.885-7.597-13.891C336.941,419.695,336.941,418.85,336.941,418.004z
	 M355.148,404.838c-5.547,0.726-7.837,4.591-8.32,10.389c-0.241,0.482-0.241,1.933,0,2.295c0.603,7.609,3.497,13.045,10.73,14.012
	c0.361,0.241,1.809,0.241,2.17,0c12.66-1.087,10.248-27.057-2.17-26.695C357.198,404.598,355.629,404.598,355.148,404.838z
	 M357.801,453.396c-1.93,0-4.221,0-5.547,0.483c-4.823,1.812-10.007,7.368-7.476,13.771c2.05,5.071,8.078,7.851,15.072,8.091
	c0.603,0.242,2.171,0.242,2.773,0c5.907-0.24,10.851-2.415,13.262-6.279c1.446-2.416,2.172-6.522,0.725-9.663
	c-2.411-5.073-9.405-5.678-16.76-6.162C359.489,453.154,358.404,453.396,357.801,453.396z M395.901,423.561
	c1.688-14.857,11.214-21.742,25.924-23.554h3.498c13.746,1.57,21.22,9.422,22.306,23.675v2.536
	c-1.084,16.307-10.368,24.4-25.922,26.091h-1.447c-15.434-0.726-22.908-9.422-24.357-24.157v-1.57v-1.57L395.901,423.561
	L395.901,423.561z M436.536,427.306c-0.363-8.817-3.377-16.548-9.646-20.172c-10.007-5.919-20.618,1.569-20.138,13.045
	c-0.239,1.208-0.239,3.503,0,4.711c1.086,11.837,5.187,20.655,16.641,22.104c0.239,0.241,1.446,0.241,1.566,0
	c8.439-0.725,11.214-7.125,11.577-16.065C436.776,430.084,436.776,428.151,436.536,427.306z"/>
<g>
	<line fill="none" stroke="#000000" stroke-width="0.3" x1="5.967" y1="267.494" x2="5.967" y2="303.494"/>
	<line fill="none" stroke="#000000" stroke-width="0.3" x1="-48.033" y1="321.494" x2="-12.033" y2="321.494"/>
	<line fill="none" stroke="#000000" stroke-width="0.3" x1="-48.033" y1="482.387" x2="-12.033" y2="482.387"/>
	<line fill="none" stroke="#000000" stroke-width="0.3" x1="5.967" y1="536.387" x2="5.967" y2="500.387"/>
	<line fill="none" stroke="#000000" stroke-width="0.3" x1="613.537" y1="267.494" x2="613.537" y2="303.494"/>
	<line fill="none" stroke="#000000" stroke-width="0.3" x1="667.537" y1="321.494" x2="631.537" y2="321.494"/>
	<line fill="none" stroke="#000000" stroke-width="0.3" x1="667.537" y1="482.387" x2="631.537" y2="482.387"/>
	<line fill="none" stroke="#000000" stroke-width="0.3" x1="613.537" y1="536.387" x2="613.537" y2="500.387"/>
</g>
</svg>
