<svg viewBox="0 0 1792 1792" xmlns="http://www.w3.org/2000/svg" xmlns:xlink="http://www.w3.org/1999/xlink"><style>:root>svg{display:none}:root>svg:target{display:block}</style><svg viewBox="0 0 512 512" preserveAspectRatio="xMinYMid" id="icon-at--blue" xmlns="http://www.w3.org/2000/svg"><path fill="#267cb5" d="M256 8C118.941 8 8 118.919 8 256c0 137.059 110.919 248 248 248 48.154 0 95.342-14.14 135.408-40.223 12.005-7.815 14.625-24.288 5.552-35.372l-10.177-12.433c-7.671-9.371-21.179-11.667-31.373-5.129C325.92 429.757 291.314 440 256 440c-101.458 0-184-82.542-184-184S154.542 72 256 72c100.139 0 184 57.619 184 160 0 38.786-21.093 79.742-58.17 83.693-17.349-.454-16.91-12.857-13.476-30.024l23.433-121.11C394.653 149.75 383.308 136 368.225 136h-44.981a13.518 13.518 0 0 0-13.432 11.993l-.01.092c-14.697-17.901-40.448-21.775-59.971-21.775-74.58 0-137.831 62.234-137.831 151.46 0 65.303 36.785 105.87 96 105.87 26.984 0 57.369-15.637 74.991-38.333 9.522 34.104 40.613 34.103 70.71 34.103C462.609 379.41 504 307.798 504 232 504 95.653 394.023 8 256 8zm-21.68 304.43c-22.249 0-36.07-15.623-36.07-40.771 0-44.993 30.779-72.729 58.63-72.729 22.292 0 35.601 15.241 35.601 40.77 0 45.061-33.875 72.73-58.161 72.73z"/></svg><svg viewBox="0 0 512 512" preserveAspectRatio="xMinYMid" id="icon-at--white" xmlns="http://www.w3.org/2000/svg"><path fill="#FFF" d="M256 8C118.941 8 8 118.919 8 256c0 137.059 110.919 248 248 248 48.154 0 95.342-14.14 135.408-40.223 12.005-7.815 14.625-24.288 5.552-35.372l-10.177-12.433c-7.671-9.371-21.179-11.667-31.373-5.129C325.92 429.757 291.314 440 256 440c-101.458 0-184-82.542-184-184S154.542 72 256 72c100.139 0 184 57.619 184 160 0 38.786-21.093 79.742-58.17 83.693-17.349-.454-16.91-12.857-13.476-30.024l23.433-121.11C394.653 149.75 383.308 136 368.225 136h-44.981a13.518 13.518 0 0 0-13.432 11.993l-.01.092c-14.697-17.901-40.448-21.775-59.971-21.775-74.58 0-137.831 62.234-137.831 151.46 0 65.303 36.785 105.87 96 105.87 26.984 0 57.369-15.637 74.991-38.333 9.522 34.104 40.613 34.103 70.71 34.103C462.609 379.41 504 307.798 504 232 504 95.653 394.023 8 256 8zm-21.68 304.43c-22.249 0-36.07-15.623-36.07-40.771 0-44.993 30.779-72.729 58.63-72.729 22.292 0 35.601 15.241 35.601 40.77 0 45.061-33.875 72.73-58.161 72.73z"/></svg><svg viewBox="0 0 74.364 74.364" id="icon-bug" xmlns="http://www.w3.org/2000/svg"><path d="M72.123 42.782H59.58v-2.688c0-1.12 0-2.017-.227-2.912 7.617-1.567 13.666-9.856 13.666-19.937 0-1.344-.896-2.238-2.24-2.238s-2.239.896-2.239 2.238c0 8.064-4.479 14.562-10.526 15.457-1.121-1.567-2.465-2.017-4.257-2.017-.448-6.495-3.36-11.872-7.616-15.231 2.912-2.465 4.93-6.271 4.93-10.527 0-1.346-.896-2.24-2.239-2.24-1.345 0-2.24.896-2.24 2.24 0 3.359-1.792 6.496-4.704 8.062-1.566-.672-3.136-.896-4.704-.896-1.566 0-3.136.224-4.704.896-2.688-1.566-4.704-4.703-4.704-8.062 0-1.346-.896-2.24-2.238-2.24-1.346 0-2.24.896-2.24 2.24 0 4.256 1.792 8.062 4.928 10.527-4.031 3.359-6.942 8.959-7.616 15.231-1.792 0-3.358.673-4.256 2.017-6.048-.896-10.526-7.393-10.526-15.457 0-1.344-.896-2.238-2.24-2.238-1.344 0-2.24.896-2.24 2.238 0 9.856 5.824 18.146 13.664 19.938 0 .896-.224 1.792-.224 2.912v2.688H2.24c-1.346 0-2.24.896-2.24 2.24s.896 2.24 2.24 2.24h13.216c.448 1.792.896 3.809 1.566 5.376-8.287 1.12-14.782 8.063-14.782 16.8 0 1.344.896 2.24 2.238 2.24 1.346 0 2.24-.896 2.24-2.24a12.525 12.525 0 0 1 12.544-12.544c4.032 6.72 10.528 11.2 17.92 11.2 7.394 0 13.664-4.48 17.919-11.2a12.526 12.526 0 0 1 12.545 12.544c0 1.344.896 2.24 2.24 2.24 1.344 0 2.238-.896 2.238-2.24 0-8.512-6.496-15.68-14.783-16.8.672-1.792 1.344-3.584 1.568-5.376h13.215c1.346 0 2.239-.896 2.239-2.24s-1.119-2.241-2.24-2.241zm-19.711 3.806h-4.705c-.672 4.703-4.256 8.287-8.959 8.961v4.703c0 .896-.672 1.568-1.568 1.568s-1.566-.674-1.566-1.568v-4.703c-4.704-.674-8.288-4.258-8.96-8.961h-4.705c-.896 0-1.568-.672-1.568-1.567s.672-1.567 1.568-1.567h4.704c.672-4.703 4.256-8.288 8.96-8.959V29.79c0-.896.672-1.566 1.566-1.566.896 0 1.568.672 1.568 1.566v4.705c4.703.672 8.287 4.256 8.959 8.959h4.705c.896 0 1.565.672 1.565 1.567s-.667 1.567-1.564 1.567z"/><path d="M29.788 43.454h6.048v-6.049c-3.135.674-5.599 3.135-6.048 6.049zM38.748 52.415c2.912-.672 5.375-2.912 6.048-6.049h-6.048v6.049zM38.748 37.404v6.049h6.048c-.673-2.913-3.136-5.374-6.048-6.049zM35.613 52.415v-6.049h-6.05c.674 3.134 3.138 5.599 6.05 6.049z"/></svg><svg viewBox="0 0 576 512" id="icon-comment-alt" xmlns="http://www.w3.org/2000/svg"><path fill="#FFF" d="M576 240c0 115-129 208-288 208-48.3 0-93.9-8.6-133.9-23.8-40.3 31.2-89.8 50.3-142.4 55.7-5.2.6-10.2-2.8-11.5-7.7-1.3-5 2.7-8.1 6.6-11.8 19.3-18.4 42.7-32.8 51.9-94.6C21.9 330.9 0 287.3 0 240 0 125.1 129 32 288 32s288 93.1 288 208zm-416-48c-26.5 0-48 21.5-48 48s21.5 48 48 48 48-21.5 48-48-21.5-48-48-48zm128 0c-26.5 0-48 21.5-48 48s21.5 48 48 48 48-21.5 48-48-21.5-48-48-48zm128 0c-26.5 0-48 21.5-48 48s21.5 48 48 48 48-21.5 48-48-21.5-48-48-48z"/></svg><svg viewBox="0 0 1792 1792" id="icon-comments" xmlns="http://www.w3.org/2000/svg"><path d="M1408 768q0 139-94 257t-256.5 186.5T704 1280q-86 0-176-16-124 88-278 128-36 9-86 16h-3q-11 0-20.5-8t-11.5-21q-1-3-1-6.5t.5-6.5 2-6l2.5-5 3.5-5.5 4-5 4.5-5 4-4.5q5-6 23-25t26-29.5 22.5-29 25-38.5 20.5-44q-124-72-195-177T0 768q0-139 94-257t256.5-186.5T704 256t353.5 68.5T1314 511t94 257zm384 256q0 120-71 224.5T1526 1425q10 24 20.5 44t25 38.5 22.5 29 26 29.5 23 25q1 1 4 4.5t4.5 5 4 5 3.5 5.5l2.5 5 2 6 .5 6.5-1 6.5q-3 14-13 22t-22 7q-50-7-86-16-154-40-278-128-90 16-176 16-271 0-472-132 58 4 88 4 161 0 309-45t264-129q125-92 192-212t67-254q0-77-23-152 129 71 204 178t75 230z"/></svg><svg viewBox="0 0 88.5 88.5" id="icon-cross" xmlns="http://www.w3.org/2000/svg"><path stroke="#FFF" stroke-width="13" d="M4 4.375l80 80-80-80zm0 80l80-80-80 80z"/></svg><svg viewBox="0 0 512 512" id="icon-crosshairs" xmlns="http://www.w3.org/2000/svg"><path d="M500 224h-30.364C455.724 130.325 381.675 56.276 288 42.364V12c0-6.627-5.373-12-12-12h-40c-6.627 0-12 5.373-12 12v30.364C130.325 56.276 56.276 130.325 42.364 224H12c-6.627 0-12 5.373-12 12v40c0 6.627 5.373 12 12 12h30.364C56.276 381.675 130.325 455.724 224 469.636V500c0 6.627 5.373 12 12 12h40c6.627 0 12-5.373 12-12v-30.364C381.675 455.724 455.724 381.675 469.636 288H500c6.627 0 12-5.373 12-12v-40c0-6.627-5.373-12-12-12zM288 404.634V364c0-6.627-5.373-12-12-12h-40c-6.627 0-12 5.373-12 12v40.634C165.826 392.232 119.783 346.243 107.366 288H148c6.627 0 12-5.373 12-12v-40c0-6.627-5.373-12-12-12h-40.634C119.768 165.826 165.757 119.783 224 107.366V148c0 6.627 5.373 12 12 12h40c6.627 0 12-5.373 12-12v-40.634C346.174 119.768 392.217 165.757 404.634 224H364c-6.627 0-12 5.373-12 12v40c0 6.627 5.373 12 12 12h40.634C392.232 346.174 346.243 392.217 288 404.634zM288 256c0 17.673-14.327 32-32 32s-32-14.327-32-32c0-17.673 14.327-32 32-32s32 14.327 32 32z"/></svg><svg viewBox="0 0 576 512" preserveAspectRatio="xMinYMid" id="icon-external-link-alt" xmlns="http://www.w3.org/2000/svg"><path fill="#fff" d="M576 24v127.984c0 21.461-25.96 31.98-40.971 16.971l-35.707-35.709-243.523 243.523c-9.373 9.373-24.568 9.373-33.941 0l-22.627-22.627c-9.373-9.373-9.373-24.569 0-33.941L442.756 76.676l-35.703-35.705C391.982 25.9 402.656 0 424.024 0H552c13.255 0 24 10.745 24 24zM407.029 270.794l-16 16A23.999 23.999 0 0 0 384 303.765V448H64V128h264a24.003 24.003 0 0 0 16.97-7.029l16-16C376.089 89.851 365.381 64 344 64H48C21.49 64 0 85.49 0 112v352c0 26.51 21.49 48 48 48h352c26.51 0 48-21.49 48-48V287.764c0-21.382-25.852-32.09-40.971-16.97z"/></svg><svg viewBox="0 0 576 512" preserveAspectRatio="xMinYMid" id="icon-external-link-alt--black" xmlns="http://www.w3.org/2000/svg"><path d="M576 24v127.984c0 21.461-25.96 31.98-40.971 16.971l-35.707-35.709-243.523 243.523c-9.373 9.373-24.568 9.373-33.941 0l-22.627-22.627c-9.373-9.373-9.373-24.569 0-33.941L442.756 76.676l-35.703-35.705C391.982 25.9 402.656 0 424.024 0H552c13.255 0 24 10.745 24 24zM407.029 270.794l-16 16A23.999 23.999 0 0 0 384 303.765V448H64V128h264a24.003 24.003 0 0 0 16.97-7.029l16-16C376.089 89.851 365.381 64 344 64H48C21.49 64 0 85.49 0 112v352c0 26.51 21.49 48 48 48h352c26.51 0 48-21.49 48-48V287.764c0-21.382-25.852-32.09-40.971-16.97z"/></svg><svg viewBox="0 0 509 331.5" id="icon-hamburger" xmlns="http://www.w3.org/2000/svg"><path fill="#FFF" d="M-1 0h510v76.5H-1V0zm0 127.5h510V204H-1v-76.5zM-1 255h510v76.5H-1V255z"/></svg><svg viewBox="-25 -14 440.113 438.707" id="icon-invoice" xmlns="http://www.w3.org/2000/svg"><path d="M359.55 326.328V36.35c0-20.202-12.503-50.251-46.966-50.251H44.535c-4.822-.361-22.577-.508-39.377 14.352C-14.854 18.156-25 49.509-25 93.664v13.642h54.541v271.44c0 16.205 4.37 28.6 12.992 36.818 6.817 6.498 14.234 8.391 18.563 8.922v.221h285.841c53.93 0 68.177-55.496 68.177-84.842v-13.672l-55.564.135zM2.644 80.028c1.94-33.079 10.852-49.431 18.868-57.522 3.861 3.048 8.029 10.937 8.029 27.754v29.768H2.644zm82.191 260.589c0 42.932-12.688 55.777-20.716 56.744-3.452-.635-7.313-5.82-7.313-18.623V50.26c0-16.432-3.372-28.403-8.28-36.983l264.06.092c17.956 0 19.614 17.656 19.688 22.981V326.4l-247.438.62-.001 13.597zm262.102 56.813H101.658c5-10.172 8.808-24.113 10.03-43.221l274.923-.68c-2.716 17.051-11.48 43.901-39.674 43.901M217.89 71.907h85.166v27.271H217.89V71.907zm0 60.6h85.166v27.265H217.89v-27.265zm0 59.18h85.166v27.265H217.89v-27.265zm-116.232 62.16h202.565v27.271H101.658v-27.271zm80.161-102.454c0 3.47-.526 6.958-1.565 10.354-1.064 3.507-2.87 6.787-5.355 9.743-2.453 2.925-5.673 5.478-9.559 7.564-3.231 1.732-7.101 3.072-11.519 3.984v19.927h-26.17v-19.21c-6.73-.704-12.387-1.879-16.836-3.495-4.986-1.799-8.609-3.274-11.07-4.517l-2.454-1.23 8.979-24.021 3.029 1.469c3.544 1.726 7.852 3.323 12.797 4.743 4.841 1.401 10.043 2.111 15.459 2.111 7.57 0 10.441-1.279 11.476-2.038 1.592-1.163 2.331-2.729 2.331-4.933 0-1.408-.3-2.546-.918-3.476-.71-1.071-1.805-2.087-3.249-3.017-1.635-1.059-3.765-2.124-6.335-3.158-2.717-1.102-5.855-2.276-9.412-3.531a138.947 138.947 0 0 1-10.525-4.321c-3.55-1.634-6.824-3.672-9.73-6.059-3.029-2.497-5.483-5.582-7.308-9.18-1.86-3.647-2.803-8.048-2.803-13.078 0-3.794.557-7.509 1.651-11.016a29.968 29.968 0 0 1 5.228-9.835c2.368-2.956 5.465-5.49 9.197-7.528 3.029-1.658 6.556-2.956 10.503-3.868V56.024h26.169v16.854c4.504.532 8.519 1.267 11.971 2.179 4.101 1.095 7.448 2.215 9.943 3.354l2.346 1.059-6.469 25.024-3.27-1.389c-3.315-1.401-7.246-2.638-11.665-3.654-4.375-1.003-9.045-1.512-13.874-1.512-5.459 0-7.974 1.047-9.124 1.916-1.48 1.132-2.143 2.436-2.143 4.248 0 1.15.215 2.124.637 2.87.44.777 1.199 1.518 2.258 2.191 1.322.857 3.005 1.702 5.007 2.534 2.131.894 4.7 1.848 7.705 2.889 4.816 1.756 9.29 3.69 13.354 5.741 4.198 2.136 7.895 4.614 10.991 7.375a31.333 31.333 0 0 1 7.576 10.123c1.816 3.916 2.746 8.47 2.746 13.567z"/></svg><svg viewBox="0 0 97.385 63.96" id="icon-laptop" xmlns="http://www.w3.org/2000/svg"><g fill="#FFF"><path d="M97.265 54.548a.497.497 0 0 0-.373-.172H.494a.494.494 0 0 0-.489.568c.014.09 1.468 9.016 12.753 9.016h71.869c11.284 0 12.738-8.926 12.753-9.016a.506.506 0 0 0-.115-.396zm-41.323 6.286h-14.5V57.5h14.5v3.334zM10.507 50.906h76.37a2 2 0 0 0 2-2V2a2 2 0 0 0-2-2h-76.37a2 2 0 0 0-2 2v46.906a2 2 0 0 0 2 2zm5-43.906h66.37v36.906h-66.37V7z"/></g></svg><svg viewBox="0 0 384 512" preserveAspectRatio="xMinYMid" id="icon-map-marker-alt" xmlns="http://www.w3.org/2000/svg"><path fill="#dd4c40" d="M172.268 501.67C26.97 291.031 0 269.413 0 192 0 85.961 85.961 0 192 0s192 85.961 192 192c0 77.413-26.97 99.031-172.268 309.67-9.535 13.774-29.93 13.773-39.464 0zM192 272c44.183 0 80-35.817 80-80s-35.817-80-80-80-80 35.817-80 80 35.817 80 80 80z"/></svg><svg viewBox="0 0 369.728 369.728" id="icon-math" xmlns="http://www.w3.org/2000/svg"><g fill="#FFF"><path d="M222.796 170.7h121.929c13.469 0 24.386-10.917 24.386-24.386V24.386C369.11 10.917 358.194 0 344.725 0H222.796c-13.469 0-24.386 10.917-24.386 24.386v121.929c0 13.468 10.925 24.385 24.386 24.385zm18.484-95.153h32.677V42.87c0-5.422 4.398-9.811 9.803-9.811 5.422 0 9.811 4.398 9.811 9.811v32.677h32.677c5.414 0 9.803 4.389 9.803 9.803 0 5.414-4.389 9.803-9.803 9.803h-32.677v32.677c0 5.414-4.389 9.795-9.811 9.795-5.406 0-9.803-4.389-9.803-9.795V95.153H241.28c-5.414 0-9.803-4.389-9.803-9.803.009-5.414 4.39-9.803 9.803-9.803zM25.003 369.728h121.929c13.469 0 24.386-10.917 24.386-24.386V223.414c0-13.469-10.917-24.386-24.386-24.386H25.003c-13.469 0-24.386 10.917-24.386 24.386v121.929c.001 13.46 10.917 24.385 24.386 24.385zm23.996-122.319c3.837-3.837 10.031-3.837 13.859 0l23.101 23.11 23.11-23.11c3.829-3.829 10.039-3.829 13.867 0 3.829 3.837 3.829 10.039 0 13.867l-23.11 23.11 23.11 23.101c3.829 3.829 3.82 10.031-.008 13.859-3.829 3.829-10.031 3.837-13.859 0l-23.11-23.101-23.101 23.101a9.796 9.796 0 0 1-13.859 0c-3.82-3.82-3.829-10.031 0-13.859L72.1 284.386l-23.101-23.118c-3.837-3.82-3.829-10.03 0-13.859zM25.003 170.7h121.929c13.469 0 24.386-10.917 24.386-24.386V24.386C171.318 10.917 160.401 0 146.932 0H25.003C11.534 0 .618 10.917.618 24.386v121.929c0 13.468 10.916 24.385 24.385 24.385zm24.386-93.479h73.157c4.487 0 8.129 3.642 8.129 8.129s-3.642 8.129-8.129 8.129H49.389c-4.487 0-8.129-3.642-8.129-8.129s3.642-8.129 8.129-8.129zM222.796 369.728h121.929c13.469 0 24.386-10.917 24.386-24.386V223.414c0-13.469-10.917-24.386-24.386-24.386H222.796c-13.461 0-24.386 10.917-24.386 24.386v121.929c0 13.46 10.925 24.385 24.386 24.385zm60.964-34.489c-6.73 0-12.193-5.454-12.193-12.193s5.462-12.193 12.193-12.193c6.739 0 12.193 5.454 12.193 12.193a12.182 12.182 0 0 1-12.193 12.193zm0-89.415c6.739 0 12.193 5.454 12.193 12.193s-5.454 12.193-12.193 12.193c-6.73 0-12.193-5.454-12.193-12.193.001-6.738 5.463-12.193 12.193-12.193zm-36.578 37.595h73.157a8.132 8.132 0 0 1 8.129 8.129 8.132 8.132 0 0 1-8.129 8.129h-73.157a8.132 8.132 0 0 1-8.129-8.129 8.132 8.132 0 0 1 8.129-8.129z"/></g></svg><svg viewBox="0 0 396.39 792" id="icon-mobile" xmlns="http://www.w3.org/2000/svg"><path d="M324.501 792s71.889 0 71.889-71.997V71.997C396.389 0 324.501 0 324.501 0H72.889S1 0 1 71.997v648.006C1.001 792 72.889 792 72.889 792h251.612zm-125.805-29.978c-19.842 0-35.944-16.104-35.944-35.944 0-19.842 16.103-35.944 35.944-35.944s35.943 16.104 35.943 35.944-16.102 35.944-35.943 35.944zM144.778 43.888c0-4.457 2.121-7.944 4.78-7.944h98.272c2.624 0 4.781 3.559 4.781 7.944v2.121c0 4.457-2.157 7.944-4.781 7.944h-98.272c-2.624 0-4.78-3.559-4.78-7.944v-2.121zM36.946 89.861h323.5v575.111h-323.5V89.861z" fill="#FFF"/></svg><svg viewBox="0 0 640 512" id="icon-sitemap" xmlns="http://www.w3.org/2000/svg"><path fill="#FFF" d="M616 320h-48v-48c0-22.056-17.944-40-40-40H344v-40h48c13.255 0 24-10.745 24-24V24c0-13.255-10.745-24-24-24H248c-13.255 0-24 10.745-24 24v144c0 13.255 10.745 24 24 24h48v40H112c-22.056 0-40 17.944-40 40v48H24c-13.255 0-24 10.745-24 24v144c0 13.255 10.745 24 24 24h144c13.255 0 24-10.745 24-24V344c0-13.255-10.745-24-24-24h-48v-40h176v40h-48c-13.255 0-24 10.745-24 24v144c0 13.255 10.745 24 24 24h144c13.255 0 24-10.745 24-24V344c0-13.255-10.745-24-24-24h-48v-40h176v40h-48c-13.255 0-24 10.745-24 24v144c0 13.255 10.745 24 24 24h144c13.255 0 24-10.745 24-24V344c0-13.255-10.745-24-24-24z"/></svg><svg viewBox="0 0 576 512" id="icon-star" xmlns="http://www.w3.org/2000/svg"><path d="M259.3 17.8L194 150.2 47.9 171.5c-26.2 3.8-36.7 36.1-17.7 54.6l105.7 103-25 145.5c-4.5 26.3 23.2 46 46.4 33.7L288 439.6l130.7 68.7c23.2 12.2 50.9-7.4 46.4-33.7l-25-145.5 105.7-103c19-18.5 8.5-50.8-17.7-54.6L382 150.2 316.7 17.8c-11.7-23.6-45.6-23.9-57.4 0z"/></svg><svg viewBox="0 0 512 512" id="icon-tasks" xmlns="http://www.w3.org/2000/svg"><path d="M208 132h288c8.8 0 16-7.2 16-16V76c0-8.8-7.2-16-16-16H208c-8.8 0-16 7.2-16 16v40c0 8.8 7.2 16 16 16zm0 160h288c8.8 0 16-7.2 16-16v-40c0-8.8-7.2-16-16-16H208c-8.8 0-16 7.2-16 16v40c0 8.8 7.2 16 16 16zm0 160h288c8.8 0 16-7.2 16-16v-40c0-8.8-7.2-16-16-16H208c-8.8 0-16 7.2-16 16v40c0 8.8 7.2 16 16 16zM64 368c-26.5 0-48.6 21.5-48.6 48s22.1 48 48.6 48 48-21.5 48-48-21.5-48-48-48zm92.5-299l-72.2 72.2-15.6 15.6c-4.7 4.7-12.9 4.7-17.6 0L3.5 109.4c-4.7-4.7-4.7-12.3 0-17l15.7-15.7c4.7-4.7 12.3-4.7 17 0l22.7 22.1 63.7-63.3c4.7-4.7 12.3-4.7 17 0l17 16.5c4.6 4.7 4.6 12.3-.1 17zm0 159.6l-72.2 72.2-15.7 15.7c-4.7 4.7-12.9 4.7-17.6 0L3.5 269c-4.7-4.7-4.7-12.3 0-17l15.7-15.7c4.7-4.7 12.3-4.7 17 0l22.7 22.1 63.7-63.7c4.7-4.7 12.3-4.7 17 0l17 17c4.6 4.6 4.6 12.2-.1 16.9z"/></svg><svg viewBox="0 0 640 512" id="icon-users" xmlns="http://www.w3.org/2000/svg"><path d="M320 64c57.99 0 105 47.01 105 105s-47.01 105-105 105-105-47.01-105-105S262.01 64 320 64zm113.463 217.366l-39.982-9.996c-49.168 35.365-108.766 27.473-146.961 0l-39.982 9.996C174.485 289.379 152 318.177 152 351.216V412c0 19.882 16.118 36 36 36h264c19.882 0 36-16.118 36-36v-60.784c0-33.039-22.485-61.837-54.537-69.85zM528 300c38.66 0 70-31.34 70-70s-31.34-70-70-70-70 31.34-70 70 31.34 70 70 70zm-416 0c38.66 0 70-31.34 70-70s-31.34-70-70-70-70 31.34-70 70 31.34 70 70 70zm24 112v-60.784c0-16.551 4.593-32.204 12.703-45.599-29.988 14.72-63.336 8.708-85.69-7.37l-26.655 6.664C14.99 310.252 0 329.452 0 351.477V392c0 13.255 10.745 24 24 24h112.169a52.417 52.417 0 0 1-.169-4zm467.642-107.09l-26.655-6.664c-27.925 20.086-60.89 19.233-85.786 7.218C499.369 318.893 504 334.601 504 351.216V412c0 1.347-.068 2.678-.169 4H616c13.255 0 24-10.745 24-24v-40.523c0-22.025-14.99-41.225-36.358-46.567z"/></svg><svg viewBox="0 0 416 512" id="icon-utensils" xmlns="http://www.w3.org/2000/svg"><path fill="#FFF" d="M207.9 15.2c.8 4.7 16.1 94.5 16.1 128.8 0 52.3-27.8 89.6-68.9 104.6L168 486.7c.7 13.7-10.2 25.3-24 25.3H80c-13.7 0-24.7-11.5-24-25.3l12.9-238.1C27.7 233.6 0 196.2 0 144 0 109.6 15.3 19.9 16.1 15.2 19.3-5.1 61.4-5.4 64 16.3v141.2c1.3 3.4 15.1 3.2 16 0 1.4-25.3 7.9-139.2 8-141.8 3.3-20.8 44.7-20.8 47.9 0 .2 2.7 6.6 116.5 8 141.8.9 3.2 14.8 3.4 16 0V16.3c2.6-21.6 44.8-21.4 48-1.1zm119.2 285.7l-15 185.1c-1.2 14 9.9 26 23.9 26h56c13.3 0 24-10.7 24-24V24c0-13.2-10.7-24-24-24-82.5 0-221.4 178.5-64.9 300.9z"/></svg><svg viewBox="0 -1 125 148" id="logo-android" xmlns="http://www.w3.org/2000/svg"><path fill="#78C257" d="M8.973 47.635C3.911 47.635 0 51.776 0 56.608v37.963c0 5.061 4.141 9.202 9.203 9.202 5.062 0 9.203-4.142 8.973-9.202V56.608c0-4.832-4.142-8.973-9.203-8.973m73.393-34.281L88.809 1.85c.23-.69.23-1.381-.46-1.611s-1.381 0-1.61.46l-6.442 11.733c-5.292-2.301-11.504-3.681-17.716-3.681a44.32 44.32 0 0 0-17.716 3.681L38.422.7c-.229-.69-1.15-.92-1.61-.46-.69.23-.92 1.15-.46 1.611l6.442 11.503c-13.114 6.442-21.398 18.866-21.398 32.9h81.907c.001-14.034-8.512-26.458-20.937-32.9M43.714 31.299c-1.841 0-3.451-1.61-3.451-3.451 0-1.84 1.61-3.451 3.451-3.451s3.451 1.611 3.451 3.451c0 2.071-1.61 3.451-3.451 3.451m37.272 0c-1.841 0-3.451-1.61-3.451-3.451 0-1.84 1.61-3.451 3.451-3.451s3.451 1.611 3.451 3.451c.001 2.071-1.61 3.451-3.451 3.451M21.627 49.245v58.9c0 5.291 4.371 9.663 9.663 9.663h6.672v20.246c0 5.062 4.142 9.203 8.974 9.203 5.062 0 9.202-4.142 9.202-9.203v-20.246h12.194v20.246c0 5.062 4.142 9.203 8.973 8.973 5.062 0 9.203-4.141 9.203-9.202v-20.017h6.673c5.291 0 9.663-4.372 9.663-9.663v-58.9H21.627zM124.7 56.608c0-5.062-4.141-8.973-8.973-8.973-5.062 0-8.973 4.142-8.973 9.203V94.8c0 5.062 4.141 8.973 8.973 8.973 5.062 0 8.973-4.142 8.973-9.202V56.608z"/></svg><svg viewBox="0 -1 125 148" id="logo-android--white" xmlns="http://www.w3.org/2000/svg"><path fill="#FFF" d="M8.973 47.635C3.911 47.635 0 51.776 0 56.608v37.963c0 5.061 4.141 9.202 9.203 9.202 5.062 0 9.203-4.142 8.973-9.202V56.608c0-4.832-4.142-8.973-9.203-8.973m73.393-34.281L88.809 1.85c.23-.69.23-1.381-.46-1.611s-1.381 0-1.61.46l-6.442 11.733c-5.292-2.301-11.504-3.681-17.716-3.681a44.32 44.32 0 0 0-17.716 3.681L38.422.7c-.229-.69-1.15-.92-1.61-.46-.69.23-.92 1.15-.46 1.611l6.442 11.503c-13.114 6.442-21.398 18.866-21.398 32.9h81.907c.001-14.034-8.512-26.458-20.937-32.9M43.714 31.299c-1.841 0-3.451-1.61-3.451-3.451 0-1.84 1.61-3.451 3.451-3.451s3.451 1.611 3.451 3.451c0 2.071-1.61 3.451-3.451 3.451m37.272 0c-1.841 0-3.451-1.61-3.451-3.451 0-1.84 1.61-3.451 3.451-3.451s3.451 1.611 3.451 3.451c.001 2.071-1.61 3.451-3.451 3.451M21.627 49.245v58.9c0 5.291 4.371 9.663 9.663 9.663h6.672v20.246c0 5.062 4.142 9.203 8.974 9.203 5.062 0 9.202-4.142 9.202-9.203v-20.246h12.194v20.246c0 5.062 4.142 9.203 8.973 8.973 5.062 0 9.203-4.141 9.203-9.202v-20.017h6.673c5.291 0 9.663-4.372 9.663-9.663v-58.9H21.627zM124.7 56.608c0-5.062-4.141-8.973-8.973-8.973-5.062 0-8.973 4.142-8.973 9.203V94.8c0 5.062 4.141 8.973 8.973 8.973 5.062 0 8.973-4.142 8.973-9.202V56.608z"/></svg><svg viewBox="0 0 512 139" id="logo-angular2" xmlns="http://www.w3.org/2000/svg"><g fill="none" fill-rule="evenodd"><path d="M150.6 102.8v-63h8.1l38.5 50.7V39.8h7.7v63h-8.1l-38.5-51.2v51.2h-7.7zm117-2.5c-5.1 1.9-10.6 2.9-16.4 2.9-22.8 0-34.2-10.9-34.2-32.8 0-20.7 11-31.1 33-31.1 6.3 0 12.2.9 17.6 2.6v7c-5.4-2.1-11-3.1-16.7-3.1-17.2 0-25.8 8.2-25.8 24.4 0 17.5 8.5 26.2 25.4 26.2 2.7 0 5.7-.4 9-1.1V74.2h8.1v26.1zm13-21.8V39.8h8.1v38.7c0 12.1 6 18.2 18.1 18.2 12 0 18.1-6.1 18.1-18.2V39.8h8.1v38.7c0 16.5-8.7 24.8-26.2 24.8s-26.2-8.3-26.2-24.8zm75-38.7v56.4h33v6.6h-41.1v-63h8.1zm44.7 63h-8.5l31.3-71.3 31.3 71.3h-9L437.3 83h-20.8l2.2-6.6h15.9l-11.8-28.5-22.5 54.9zm62.8 0v-63H490c12 0 18 5 18 15.1 0 8.2-5.9 14.3-17.6 18.2l21.6 29.7h-10.7l-20-28.3v-5.3c12-1.9 18.1-6.5 18.1-13.9 0-5.8-3.3-8.7-10-8.7h-18v56.2h-8.3z" fill="#B52E31"/><path d="M0 23L64.5 0l66.2 22.6-10.7 85.3-55.5 30.7-54.6-30.3L0 23z" fill="#E23237"/><path d="M130.7 22.6L64.5 0v138.6l55.5-30.7 10.7-85.3z" fill="#B52E31"/><path d="M64.6 16.2l-40.2 89.4 15-.3 8.1-20.2h35.9l8.8 20.4 14.3.3-41.9-89.6zm.1 28.7l13.6 28.4H52.8l11.9-28.4z" fill="#FFF"/></g></svg><svg viewBox="0 0 512 139" id="logo-firebase" xmlns="http://www.w3.org/2000/svg"><g fill="none" fill-rule="evenodd"><path d="M163.773 106.518H155V38.765h39.844v8.324h-31.07v22.244h28.024v8.132h-28.025v29.053zm47.567-58.002a6.246 6.246 0 0 1-7.843.782 6.14 6.14 0 0 1-2.3-7.483c1.13-2.72 4.04-4.268 6.947-3.697 2.908.57 5.004 3.102 5.006 6.044a5.892 5.892 0 0 1-1.817 4.354h.007zm0 58.002h-8.773V60.152h8.773v46.366zm19.252 0h-8.773V60.152h8.386v7.57h.38a11.907 11.907 0 0 1 5.481-6.247 15.767 15.767 0 0 1 8.058-2.462 16.823 16.823 0 0 1 6.577 1.139l-3.337 8.132a13.355 13.355 0 0 0-4.67-.666 11.5 11.5 0 0 0-8.438 3.74c-2.447 2.495-3.671 5.76-3.671 9.796l.007 25.364zm44.15 1.478c-7.056 0-12.79-2.333-17.205-7-4.414-4.668-6.623-10.555-6.628-17.661a25.415 25.415 0 0 1 6.435-17.41 20.921 20.921 0 0 1 16.444-7.289c6.926 0 12.472 2.24 16.638 6.72 4.165 4.48 6.246 10.473 6.24 17.979l-.096 1.611h-36.903c.254 4.667 1.827 8.364 4.722 11.09a14.363 14.363 0 0 0 10.151 4.065c6.29 0 10.548-2.649 12.773-7.947l7.82 3.216a20.823 20.823 0 0 1-7.53 9.033c-3.5 2.396-7.788 3.593-12.862 3.593zm12.585-30.31c-.188-2.65-1.412-5.174-3.671-7.569-2.26-2.395-5.618-3.568-10.077-3.519a12.635 12.635 0 0 0-8.438 3.031 15.444 15.444 0 0 0-4.908 8.132l27.094-.074zm41.036 30.31a19.96 19.96 0 0 1-9.547-2.218 16.135 16.135 0 0 1-6.338-5.677h-.38v6.417h-8.393V38.765h8.773v21.387l-.38 6.431h.38a16.135 16.135 0 0 1 6.338-5.677 19.967 19.967 0 0 1 9.547-2.27c6.038 0 11.25 2.366 15.64 7.097 4.39 4.731 6.581 10.599 6.576 17.602 0 7.003-2.192 12.87-6.576 17.601-4.384 4.731-9.597 7.085-15.64 7.06zm-1.43-7.947a13.996 13.996 0 0 0 10.486-4.59c2.925-3.061 4.387-7.115 4.387-12.161 0-5.047-1.462-9.1-4.387-12.16a14.355 14.355 0 0 0-10.498-4.587 14.356 14.356 0 0 0-10.518 4.542c-2.89 3.026-4.335 7.094-4.335 12.205 0 5.11 1.46 9.191 4.38 12.242a14.02 14.02 0 0 0 10.515 4.546l-.03-.037zm45.981 7.947c-4.965 0-9.11-1.42-12.437-4.258-3.327-2.839-4.995-6.592-5.005-11.259 0-5.046 1.971-9.004 5.914-11.872 3.942-2.868 8.802-4.303 14.582-4.303 5.148 0 9.369.947 12.66 2.84V77.82a10.314 10.314 0 0 0-3.53-8.184 12.719 12.719 0 0 0-8.661-3.038 13.52 13.52 0 0 0-6.911 1.797 9.29 9.29 0 0 0-4.245 4.923l-8.007-3.408c1.083-2.785 3.213-5.367 6.39-7.747 3.178-2.38 7.373-3.564 12.587-3.549 5.958 0 10.923 1.725 14.895 5.175 3.972 3.45 5.943 8.339 5.913 14.667v28.062h-8.416v-6.432h-.38c-3.5 5.273-8.616 7.91-15.349 7.91zm1.43-7.947a14.333 14.333 0 0 0 9.876-3.984 12.441 12.441 0 0 0 4.468-9.507c-2.482-2.02-6.206-3.031-11.171-3.031-4.26 0-7.47.914-9.63 2.743a8.215 8.215 0 0 0-3.24 6.431 6.184 6.184 0 0 0 2.98 5.397 11.845 11.845 0 0 0 6.717 1.988v-.037zm48.52 7.947c-5.213 0-9.517-1.262-12.913-3.785a22.417 22.417 0 0 1-7.448-9.462l7.82-3.216c2.483 5.806 6.703 8.708 12.66 8.708 2.368.097 4.707-.53 6.704-1.796a5.498 5.498 0 0 0 2.621-4.731c0-3.026-2.13-5.076-6.39-6.15l-9.436-2.27A22.516 22.516 0 0 1 408 80.99a10.32 10.32 0 0 1-4.006-8.56c0-4.1 1.827-7.427 5.481-9.98a22.132 22.132 0 0 1 13.01-3.83c3.87-.06 7.687.907 11.053 2.802a15.773 15.773 0 0 1 6.956 8l-7.619 3.09c-1.713-4.101-5.273-6.151-10.68-6.151-2.3-.076-4.576.481-6.576 1.611a4.897 4.897 0 0 0-2.666 4.354c0 2.652 2.066 4.45 6.196 5.397l9.243 2.18c4.384.986 7.626 2.711 9.726 5.175a12.513 12.513 0 0 1 3.143 8.324 12.867 12.867 0 0 1-5.146 10.409c-3.431 2.79-7.847 4.184-13.25 4.184zm47.188 0c-7.055 0-12.79-2.333-17.204-7-4.413-4.668-6.623-10.567-6.628-17.698a25.415 25.415 0 0 1 6.435-17.41 20.96 20.96 0 0 1 16.466-7.252c6.951 0 12.497 2.24 16.638 6.72 4.14 4.48 6.221 10.473 6.241 17.979l-.097 1.611h-36.932c.253 4.667 1.827 8.364 4.722 11.09a14.363 14.363 0 0 0 10.173 4.05c6.29 0 10.548-2.649 12.772-7.947l7.82 3.216a20.816 20.816 0 0 1-7.53 9.034c-3.5 2.405-7.792 3.607-12.876 3.607zm12.586-30.31c-.188-2.65-1.412-5.174-3.671-7.569-2.26-2.395-5.613-3.568-10.062-3.519a12.643 12.643 0 0 0-8.438 3.031 15.444 15.444 0 0 0-4.908 8.132l27.08-.074z" fill="#000" fill-rule="nonzero" opacity=".54"/><path d="M0 105.76L16.132 2.532a2.98 2.98 0 0 1 5.571-.946l16.684 31.118 6.65-12.662a2.98 2.98 0 0 1 5.274 0l45.022 85.718H0z" fill="#FFA000"/><path fill="#F57C00" d="M55.733 65.55L38.379 32.688 0 105.76l55.733-40.21z"/><g><path d="M95.333 105.76L82.977 29.3a2.98 2.98 0 0 0-5.042-1.609L0 105.761l43.123 24.183a8.938 8.938 0 0 0 8.714 0l43.496-24.184z" fill="#FFCA28"/></g></g></svg><svg viewBox="0 0 444.417 433.428" id="logo-git-hub--black" xmlns="http://www.w3.org/2000/svg"><path d="M222.209 0C99.57 0 0 99.45 0 222.208c0 98.136 63.71 181.449 151.925 210.854 11.116 2.032 14.702-4.781 14.702-10.639v-41.477c-61.798 13.507-74.707-26.178-74.707-26.178-10.041-25.699-24.624-32.513-24.624-32.513-20.2-13.746 1.555-13.507 1.555-13.507 22.352 1.554 34.066 22.95 34.066 22.95 19.842 33.946 51.996 24.146 64.666 18.407 2.032-14.344 7.77-24.145 14.104-29.763-49.366-5.618-101.243-24.624-101.243-109.85 0-24.265 8.727-44.107 22.95-59.646-2.271-5.618-9.921-28.209 2.151-58.809 0 0 18.647-5.977 61.081 22.83 17.69-4.9 36.696-7.411 55.582-7.53 18.886.12 37.891 2.51 55.701 7.53 42.434-28.688 61.08-22.83 61.08-22.83 12.073 30.6 4.543 53.191 2.152 58.809 14.224 15.539 22.83 35.381 22.83 59.646 0 85.346-51.996 104.112-101.482 109.61 8.009 6.933 15.301 20.439 15.301 41.119v60.961c0 5.856 3.586 12.789 14.821 10.638 88.214-29.404 151.805-112.718 151.805-210.853C444.417 99.45 344.848 0 222.209 0z"/></svg><svg viewBox="0 0 444.417 433.428" id="logo-git-hub--white" xmlns="http://www.w3.org/2000/svg"><path fill="#FFF" d="M222.209 0C99.57 0 0 99.45 0 222.208c0 98.136 63.71 181.449 151.925 210.854 11.116 2.032 14.702-4.781 14.702-10.639v-41.477c-61.798 13.507-74.707-26.178-74.707-26.178-10.041-25.699-24.624-32.513-24.624-32.513-20.2-13.746 1.555-13.507 1.555-13.507 22.352 1.554 34.066 22.95 34.066 22.95 19.842 33.946 51.996 24.146 64.666 18.407 2.032-14.344 7.77-24.145 14.104-29.763-49.366-5.618-101.243-24.624-101.243-109.85 0-24.265 8.727-44.107 22.95-59.646-2.271-5.618-9.921-28.209 2.151-58.809 0 0 18.647-5.977 61.081 22.83 17.69-4.9 36.696-7.411 55.582-7.53 18.886.12 37.891 2.51 55.701 7.53 42.434-28.688 61.08-22.83 61.08-22.83 12.073 30.6 4.543 53.191 2.152 58.809 14.224 15.539 22.83 35.381 22.83 59.646 0 85.346-51.996 104.112-101.482 109.61 8.009 6.933 15.301 20.439 15.301 41.119v60.961c0 5.856 3.586 12.789 14.821 10.638 88.214-29.404 151.805-112.718 151.805-210.853C444.417 99.45 344.848 0 222.209 0z"/></svg><svg viewBox="0 0 570 187.3" id="logo-google" xmlns="http://www.w3.org/2000/svg"><path fill="#4885ED" d="M140.436 66.147H74.355v19.436H121c-2.332 27.21-25.655 39.648-46.645 39.648-27.987 0-52.087-21.768-52.087-52.087 0-29.542 23.322-52.865 52.087-52.865 22.545 0 35.761 13.994 35.761 13.994l13.994-13.994S106.23.844 74.355.844c-41.203 0-73.078 34.984-73.078 72.3 0 36.539 29.542 72.3 73.855 72.3 38.871 0 66.859-26.432 66.859-65.303-.778-9.33-1.555-13.994-1.555-13.994z"/><path fill="#DB3236" d="M194.855 52.154c-27.21 0-46.645 20.99-46.645 45.867 0 24.878 18.658 46.646 46.645 46.646 25.655 0 46.645-19.436 46.645-46.646-.777-30.319-24.877-45.867-46.645-45.867zm0 17.88c13.216 0 26.433 10.884 26.433 27.987 0 17.104-12.44 27.988-26.433 27.988-14.77 0-26.432-11.662-26.432-27.988 0-15.548 11.661-27.987 26.432-27.987z"/><path fill="#F4C20D" d="M295.92 52.154c-27.21 0-46.645 20.99-46.645 45.867 0 24.878 18.658 46.646 46.645 46.646 25.655 0 46.645-19.436 46.645-46.646 0-30.319-24.1-45.867-46.645-45.867zm0 17.88c13.216 0 26.432 10.884 26.432 27.987 0 17.104-12.439 27.988-26.432 27.988-14.771 0-26.432-11.662-26.432-27.988 0-15.548 11.66-27.987 26.432-27.987z"/><path fill="#4885ED" d="M395.43 52.154c-24.878 0-44.313 21.767-44.313 46.645 0 27.987 22.545 46.645 44.313 46.645 13.216 0 20.213-5.442 25.655-11.661v9.329c0 16.326-10.107 25.655-24.1 25.655-13.994 0-20.99-10.884-24.1-16.326l-17.881 7.774c6.22 13.216 19.435 27.21 41.98 27.21 24.878 0 43.536-15.549 43.536-48.2V55.263h-20.213v7.774c-5.442-6.996-13.993-10.883-24.877-10.883zm2.332 17.88c12.439 0 24.878 10.107 24.878 27.987 0 17.881-12.44 27.988-24.878 27.988-13.216 0-25.655-10.884-25.655-27.988-.777-17.103 12.439-27.987 25.655-27.987z"/><path fill="#DB3236" d="M526.814 52.154c-23.323 0-43.536 18.658-43.536 46.645 0 29.542 21.768 46.645 45.868 46.645 19.436 0 31.874-10.884 38.871-20.213l-16.326-10.884c-3.887 6.22-10.884 12.439-22.545 12.439-13.216 0-19.435-6.997-22.545-13.994l62.194-25.655-3.11-7.774c-6.22-14.77-20.213-27.21-38.871-27.21zm.777 17.88c8.552 0 14.771 4.665 17.104 10.107L503.49 97.244c-2.332-13.216 10.884-27.21 24.1-27.21z"/><path fill="#3CBA54" d="M453.736 142.334h20.213V5.508h-20.213v136.826z"/></svg><svg viewBox="0 0 435.5 147" id="logo-ionic2" xmlns="http://www.w3.org/2000/svg"><g fill="#458bff"><path d="M73.5 40A33.5 33.5 0 1 0 107 73.5 33.54 33.54 0 0 0 73.5 40z"/><circle class="cls-1" cx="121.6" cy="27.71" r="15.26"/><path class="cls-1" d="M140.39 43.05l-.64-1.4-1 1.16a23 23 0 0 1-9.21 6.34l-1 .36.4 1A60.09 60.09 0 1 1 99.23 19.3l.94.45.41-1a23 23 0 0 1 6.78-8.89l1.2-1-1.37-.71a72.68 72.68 0 0 0-33.7-8.19 73.51 73.51 0 1 0 66.89 43zM184.83 41.5h15.5v64h-15.5zM352.1 41.5h15.5v64h-15.5zM316.31 40c-10.9 0-19.32 6.57-21.25 8.38l-1-6.88h-12.9v64h15.5V66.75c0-7.56 10.32-13.82 17.87-13.82s13.22 7.22 13.22 15.82v36.75h15.5V70.28C343.2 53.5 335.96 40 316.31 40zM408.29 93.87c-11.65 0-19.35-9.12-19.35-20.37s7.7-20.37 19.35-20.37c9.94 0 16 9.63 16 9.63l11.23-7.51c-3.25-5-7-8-12.12-11.1A28.62 28.62 0 0 0 408.75 40c-19.39 0-34.2 14.56-34.29 33.5.09 18.94 14.9 33.5 34.29 33.5a28.62 28.62 0 0 0 14.59-4.15c5.12-3.09 8.87-6.1 12.12-11.1l-11.23-7.51s-6 9.63-15.94 9.63zM240.75 40a33 33 0 0 0-33.53 33.23c0 18.15 13.58 33.77 33.76 33.77 18.27 0 33.24-14 33.24-33.38 0-22.19-17.41-33.62-33.47-33.62zm.19 13.16c9.61 0 18.71 7.8 18.71 20.37 0 12.3-9.06 20.32-18.75 20.32-10.65 0-19-8.56-19-20.42 0-11.6 8.29-20.27 19.09-20.27z"/></g></svg><svg viewBox="8 30 334.688 334.927" id="logo-linkedin" xmlns="http://www.w3.org/2000/svg"><path fill="#FFF" d="M89.759 71.238c0 22.711-18.288 41.238-40.879 41.238C26.288 112.477 8 94.069 8 71.238 8 48.527 26.288 30 48.88 30c22.591 0 40.879 18.527 40.879 41.238zm-5.977 70.405H14.694v223.284h69.089V141.643zm110.448 0h-66.221v223.284h66.221V247.786c0-31.437 14.463-50.083 42.075-50.083 25.46 0 37.652 17.93 37.652 50.083v117.141h68.73V223.522c0-59.766-33.828-88.692-81.281-88.692-47.335 0-67.297 36.936-67.297 36.936v-30.122h.121v-.001z"/></svg><svg viewBox="0 0 138 27" id="logo-medium" xmlns="http://www.w3.org/2000/svg"><path d="M130 27V16.96c0-3.26-.154-5.472-2.437-5.472-1.16 0-2.138.57-2.863 1.512.217.906.3 1.968.3 3.127 0 2.247.036 5.11 0 7.973 0 .472-.046.58.244.87L127 27h-8V16.96c0-3.297-.461-5.472-2.708-5.472-1.16 0-1.64.653-2.292 1.595V24.1c0 .472-.026.58.3.87L116 27h-8V11.56c0-.47-.07-.579-.36-.905L106 9h8v3.612c.906-2.537 2.437-4.112 5.372-4.112 2.682 0 4.494 1.466 5.255 4.257.834-2.392 3.008-4.257 6.053-4.257 3.588 0 5.32 2.626 5.32 7.627 0 2.392.036 5.11 0 7.973 0 .472.004.652.25.87L138 27h-8zm-27-3.045c0 .472-.149.617.178.906L105 27h-8v-4c-.906 2.465-2.956 4-5.637 4C87.775 27 86 24.39 86 19.461c0-2.391-.036-5 0-7.936 0-.471-.11-.58-.4-.87L84 9h8v9.628c0 3.225.269 5.4 2.298 5.4 1.16 0 2.086-.725 2.702-1.63V11.56c0-.471-.129-.58-.419-.906L95 9h8v14.955zM78.002.25A3.248 3.248 0 0 1 81.25 3.5 3.25 3.25 0 1 1 78.002.25zM75 27V11.56c0-.47.168-.579-.122-.905L73 9h8v15.1c0 .472-.01.678.24.9L83 27h-8zM64 11.706c-.507-.652-1.418-1.123-2.396-1.123-1.957 0-3.842 1.775-3.842 7.03 0 4.93 1.631 6.669 3.66 6.669.907 0 1.853-.436 2.578-1.378V11.706zm6 12.286c0 .47-.026.58.3.87L72 27h-8v-3.697C62.913 25.804 60.951 27 58.632 27 54.5 27 51.5 23.738 51.5 17.795c0-5.582 3.254-9.314 7.784-9.314 2.356 0 3.919 1.123 4.716 2.899V3.878c0-.471-.077-.617-.403-.906L62 1.305 70 .29v23.702zM43.9 16c.037-.471.037-.67.037-.815 0-4.747-.937-5.435-2.437-5.435-1.5 0-2.854.995-2.927 6.25h5.328zm-5.327 1c0 4.711 2.392 6.63 5.183 6.63 2.174 0 4.313-.943 5.509-3.335h.072c-.942 4.566-3.77 6.705-8.01 6.705-4.566 0-8.879-2.755-8.879-9.133 0-6.705 4.277-9.386 9.097-9.386 3.842 0 7.937 1.811 7.937 7.646 0 .109 0 .438-.036.873H38.573zM31.5 27h-12l2.39-2.646c.084-.084.11-.399.11-.87V7l-7.866 20L5.581 8.372C5.364 7.9 5.181 7.285 5 6.777V20.62c0 .58-.035.653.364 1.196L9 27H0l3.64-5.183c.399-.543.36-.616.36-1.196V6.27c0-.617.095-.69-.195-1.051L1 1h8.495l7.355 16.3L23.24 1h8.26l-2.2 2.75c-.326.326-.3.599-.3 1.106v18.629c0 .47.005.75.138.87L31.5 27z"/></svg><svg viewBox="5.167 320.497 609.669 161.89" id="logo-mongodb" xmlns="http://www.w3.org/2000/svg"><path fill="#E7E7E6" d="M496.7 374.037c2.29-.241 5.548-.241 7.717 0H496.7z"/><path fill="#C2BFBF" d="M463.664 374.279c.24-.362 1.084-.242 1.809-.242h2.29c.483.362 1.449 0 2.172.121h2.172c.603.362 1.808 0 2.651.121h7.717c.964-.121 2.292.242 3.014-.121h2.895c1.083-.121 2.531.241 3.375-.121h12.659c11.095.362 19.171 3.624 25.321 8.938a32.72 32.72 0 0 0 2.895 2.899c4.823 5.677 8.321 12.803 8.802 22.95v4.107c-1.932 24.762-17.241 36.236-41.84 38.29-.482.122-1.327-.241-1.567.122h-10.73c-1.568-.363-3.859 0-5.668-.122h-5.063c-1.444-.362-3.498 0-5.062-.121h-5.55c-.359-.362-1.444 0-2.048-.122 0-2.174.723-3.623 1.567-4.831 5.427-.121 9.045-2.053 8.318-8.455.364-.362 0-1.448.124-2.054v-3.02c.359-10.268 0-21.139.12-31.646v-5.676c-.12-2.416.239-5.315-.12-7.489 1.206-8.213-6.271-7.851-12.301-8.938.361-1.933 1.324-3.14 2.048-4.59zm32.194 5.315c-4.342.241-10.37-1.208-9.646 4.228-.362.966 0 2.537-.121 3.744v12.563a316.207 316.207 0 0 0 0 21.38V432.5c.121 1.087-.241 2.537.121 3.383-.362 8.938 9.164 10.026 17.846 9.542 6.632-.362 11.695-3.382 14.709-6.281.604-.481 1.206-1.086 1.809-1.812 4.703-5.194 7.598-12.32 7.837-22.104.24-1.208.24-3.503 0-4.711-1.444-19.206-11.815-29.473-31.108-30.801-.242-.364-.966-.002-1.447-.122z"/><path fill="#E7E7E6" d="M467.762 374.037c.727.121 1.688-.241 2.172.121-.722-.121-1.809.241-2.172-.121zm20.621.121c.842-.362 2.29 0 3.375-.121-.845.362-2.292 0-3.375.121zm-16.277 0c.843.121 2.048-.242 2.65.121-.843 0-2.048.242-2.65-.121zm10.368.121c.724-.362 2.049 0 3.014-.121-.723.363-2.05.121-3.014.121z"/><path fill="#C2BFBF" d="M559.158 386.116c.965-7.126-6.029-6.16-11.216-7.126.125-2.174 1.086-3.503 2.053-4.832 1.084.121 2.291.121 3.498.121.239.362 1.205 0 1.808.121h2.65c3.498.242 7.959.242 11.335 0h4.703c1.446-.121 3.256.242 4.461-.121 15.915-.725 29.3 2.778 29.3 17.515 0 8.334-5.667 12.924-11.816 15.824 9.043 2.898 16.761 7.126 17.604 18.118v2.174c-.361 5.436-2.291 9.301-4.943 12.563a16.48 16.48 0 0 0-2.049 2.052c-6.512 5.558-15.314 8.938-27.253 9.06h-8.317c-.726-.362-2.051 0-2.894-.121h-2.773c-.725-.362-2.05 0-2.895-.121H559.4c-.964-.363-2.652 0-3.978-.121-2.412-.121-5.308.241-7.479-.121-.238-1.813.848-3.503 1.569-4.832 3.256-.604 6.632-.122 8.321-2.053 1.566-1.813.844-4.953 1.206-8.335.36-1.449 0-3.502.12-5.073v-28.504a180.94 180.94 0 0 0-.001-16.188zm14.708-5.919c-.603 0-1.325 0-1.808.121-1.083.846-.842 3.261-.842 5.314-.364 1.45 0 3.503-.122 5.073v7.73c-.242 2.295-.242 5.557 0 7.852 0 .241.122.362.122.483.842.241 2.17.121 3.254.121.603.361 1.93 0 2.774.12 10.611 1.087 17.362-2.295 18.086-10.509.843-10.146-5.909-16.427-15.795-16.307-.242-.362-.966 0-1.448-.121h-2.771c-.483.003-1.205-.239-1.45.123zm-1.325 32.371c-.723 0-1.326 0-1.446.604-.242 6.04-.242 13.045 0 18.964v3.262c.122.481-.242 1.449.122 1.812.12 6.16 3.979 8.576 10.487 8.333 1.086.242 3.258.242 4.345 0 5.546-.481 9.283-2.536 11.694-5.798 5.186-7.247 3.014-18.964-3.737-23.312-3.98-2.537-8.32-3.383-14.109-3.624-2.17-.481-5.304-.481-7.356-.241z"/><path fill="#E7E7E6" d="M553.493 374.279c.479.121 1.444-.242 1.808.121-.603-.001-1.568.241-1.808-.121zm20.373.242c1.207-.362 3.015 0 4.464-.121-1.206.241-3.013-.001-4.464.121zm-16.033 0h11.335c-3.378.241-7.838.241-11.335 0zm-61.975 5.073c.481.121 1.205-.242 1.445.121-.48-.121-1.206.241-1.445-.121zm78.008.603c.244-.362.967 0 1.45-.121-.243.242-.966.001-1.45.121zm4.221-.12c.481.121 1.205-.242 1.448.121-.482-.121-1.205.12-1.448-.121zm-91.876 3.744c-.121 1.208.24 2.778-.121 3.744.121-1.207-.241-2.777.121-3.744zm85.006 1.812c-.122 1.691.238 3.745-.122 5.073.122-1.691-.242-3.744.122-5.073zm-12.059.483c.24 5.073.24 10.991 0 16.065v-16.065zm-85.367 1.571c.364 2.174 0 5.073.123 7.489-.243-2.296-.001-5.074-.123-7.489z"/><path fill="#C2BFBF" d="M77.709 397.833c.36.241 0 1.208.119 1.812h-.119v-1.812z"/><path fill="#E7E7E6" d="M571.095 398.437v7.852c-.242-2.296-.242-5.558 0-7.852z"/><path fill="#69B240" d="M77.709 399.645h.119v1.933h-.119z"/><path fill="#C2BFBF" d="M139.441 400.007c.483-.241 1.93-.241 2.291 0h-2.291zm31.228 0c.483-.241 2.05-.241 2.653 0h-2.653zm61.011 0c.845-.241 2.653-.241 3.497 0h-3.497zm126.724 0c.603-.241 2.29-.241 2.894 0h-2.894zm63.42 0c.844-.241 2.653-.241 3.498 0h-3.498z"/><path fill="#E7E7E6" d="M486.09 400.128v21.38a316.201 316.201 0 0 1 0-21.38zm-12.056.603c-.121 10.509.239 21.38-.121 31.647 0-10.388-.242-21.379.121-31.647z"/><path fill="#C2BFBF" d="M77.709 401.457h.119c-.119.482.241 1.449-.119 1.811v-1.811zm302.399 2.295c-.483.241-1.931.241-2.533 0h2.533zm-24.96 1.086c.481-.24 1.929-.24 2.531 0h-2.531zm-232.828 2.416c-.241-.361-.241-1.69 0-2.053v2.053z"/><path fill="#E7E7E6" d="M574.471 406.893c.846.12 2.172-.242 2.774.12-.966 0-2.172.241-2.774-.12z"/><path fill="#599636" d="M133.776 407.496c.119-.242 1.325-.242 1.446 0h-1.446z"/><path fill="#C2BFBF" d="M165.244 407.979c.483-.241 1.93-.241 2.292 0h-2.292zm131.426.363c.241-.242 1.446-.242 1.808 0h-1.808z"/><path fill="#E7E7E6" d="M541.556 408.824c.239.967.239 3.02 0 4.107v-4.107zm-13.145 1.692c.24 1.208.24 3.503 0 4.711v-4.711zm44.13 2.052c2.05-.24 5.186-.24 7.234 0h-7.234z"/><path fill="#C2BFBF" d="M275.327 412.932c.361 1.207 0 3.02.122 4.469-.362-1.208 0-3.02-.122-4.469z"/><path fill="#E7E7E6" d="M571.095 413.173v18.964c-.242-5.919-.242-12.924 0-18.964z"/><path fill="#C2BFBF" d="M122.199 420.059c.12-2.055-.242-4.591.12-6.402.001 2.052.242 4.589-.12 6.402zm255.737-4.954c.241.242.241 1.57 0 1.933v-1.933z"/><path fill="#599636" d="M286.06 415.227v15.22a159.628 159.628 0 0 1 0-15.22zm60.768 0v2.295c-.242-.363-.242-1.813 0-2.295zm-234.274.724c.361 1.208 0 3.02.122 4.349h-.122v-4.349z"/><path fill="#C2BFBF" d="M155.115 416.193c.362.241 0 1.207.121 1.811h-.121v-1.811z"/><path fill="#599636" d="M155.115 418.004h.121v11.959h-.121z"/><path fill="#C2BFBF" d="M336.941 418.004v2.537c-.241-.603-.241-2.053 0-2.537zm-17.484.484c.362.361 0 1.328.121 1.932h-.121v-1.932zm87.295 6.402c-.239-1.208-.239-3.503 0-4.711v4.711zm-294.198-4.59h.122v7.126h-.122V420.3zm32.796 0c.361.241 0 1.087.119 1.57-.24-.121.001-1.087-.119-1.57z"/><path fill="#599636" d="M319.457 420.3h.121v13.045c-.361-4.107 0-8.697-.121-13.045z"/><path fill="#C2BFBF" d="M177.784 420.783c.36.482 0 1.449.12 2.174-.362-.483.001-1.449-.12-2.174zm131.064 1.57c.36.846 0 2.296.12 3.383-.362-.846 0-2.296-.12-3.383z"/><path fill="#599636" d="M145.591 423.44c.361.362 0 1.449.12 2.053h-.12v-2.053zm42.321.121v6.04h-.12c.12-2.054-.122-4.349.12-6.04z"/><path fill="#C2BFBF" d="M395.661 425.011c.121-.483-.243-1.208.121-1.45v1.45h-.121zm51.966-1.329c.24.483.24 1.933 0 2.536v-2.536z"/><path fill="#599636" d="M395.661 425.011h.121v1.57h-.121v-1.57zm-217.756.241c.242 2.295.242 5.557 0 7.852v-7.852z"/><path fill="#C2BFBF" d="M145.591 425.493h.12v5.436h-.12v-5.436zm250.07 1.088h.121v1.57c-.242-.121 0-1.088-.121-1.57zm40.875.725c.239.846.239 2.657 0 3.503v-3.503z"/><path fill="#599636" d="M112.554 427.547h.122c-.122 1.329.24 3.02-.122 4.106v-4.106z"/><path fill="#C2BFBF" d="M246.631 428.271c.242.121.242 1.329 0 1.449v-1.449zm-58.839 1.33h.12c-.12 3.261.241 6.885-.12 9.904v-9.904zm-32.677.362h.121v10.749h-.121v-10.749z"/><path fill="#E7E7E6" d="M559.158 430.688c-.121 1.691.24 3.744-.121 5.073.001-1.571-.24-3.624.121-5.073z"/><path fill="#599636" d="M145.591 430.809h.12c-.12.725.241 1.933-.12 2.536v-2.536z"/><path fill="#C2BFBF" d="M275.449 431.05v4.711h-.122c.122-1.571-.24-3.503.122-4.711zm84.401.483c-.361.241-1.809.241-2.17 0h2.17z"/><path fill="#E7E7E6" d="M486.09 432.499c.361.846 0 2.295.121 3.383-.362-.846 0-2.296-.121-3.383z"/><path fill="#C2BFBF" d="M112.554 434.069c-.121.967.242 2.416-.121 3.262.121-1.087-.121-2.537.121-3.262zm173.506.605c.361 1.208 0 3.02.12 4.348-.241-1.208 0-2.899-.12-4.348zm-140.469.603c-.122.725.24 1.933-.122 2.537.001-.845-.24-2.053.122-2.537z"/><path fill="#E7E7E6" d="M571.095 435.398c.36.241 0 1.208.122 1.812-.364-.362 0-1.328-.122-1.812z"/><path fill="#C2BFBF" d="M122.199 435.519c.361 1.45 0 3.503.12 5.315-.24-1.449.001-3.624-.12-5.315z"/><path fill="#E7E7E6" d="M473.791 435.519c-.12.604.243 1.691-.12 2.054.12-.604-.12-1.691.12-2.054z"/><path fill="#599636" d="M275.327 435.64h.122c-.122.483.24 1.208-.122 1.449v-1.449z"/><path fill="#C2BFBF" d="M177.784 440.472c.12-1.33-.242-3.02.12-4.107-.12 1.328.243 3.02-.12 4.107zm141.794-3.383c.361.846 0 2.416.119 3.503-.24-.845.001-2.295-.119-3.503zm-44.251 1.329c-.119.604.241 1.57-.119 1.933 0-.604-.24-1.571.119-1.933zm-162.894 1.087c-.121.483.242 1.33-.121 1.571.121-.484-.239-1.329.121-1.571zm32.917.242c-.121.482.241 1.207-.121 1.449.121-.362-.121-1.208.121-1.449z"/><path fill="#599636" d="M155.115 440.834h.121v1.933c-.24-.484.001-1.45-.121-1.933z"/><path fill="#E7E7E6" d="M581.703 445.424h4.345c-1.086.241-3.138.241-4.345 0z"/><path fill="#599636" d="M233.489 446.873h1.567c-.24.242-1.446.242-1.567 0zm189.904 0h1.566c-.12.242-1.327.242-1.566 0z"/><path fill="#C2BFBF" d="M170.669 448.081v1.449c-.24-.12-.24-1.328 0-1.449z"/><path fill="#599636" d="M301.492 449.893c-.241-.122-.241-1.329 0-1.449v1.449z"/><path fill="#C2BFBF" d="M112.192 450.98c.964-.362 2.532 0 3.737-.121-.964.363-2.531 0-3.737.121zm5.909-.121c1.205.121 2.772-.241 3.617.121-1.086-.121-2.653.242-3.617-.121zm58.96.121c1.566-.362 3.738 0 5.546-.121-1.568.363-3.739 0-5.546.121zm11.816 0c-1.085-.121-2.531.241-3.376-.121 1.086.121 2.532-.241 3.376.121z"/><path fill="#E7E7E6" d="M463.785 450.859c.603.121 1.687-.241 2.047.121-.601-.121-1.687.242-2.047-.121z"/><path fill="#C2BFBF" d="M108.695 451.101c.242-.362.967 0 1.447-.122-.241.364-1.083.122-1.447.122zm16.76 0c-.482-.122-1.326.242-1.567-.122.481.122 1.326-.12 1.567.122zm18.448 0c.724-.362 2.05 0 3.015-.122-.604.364-2.051.122-3.015.122zm10.007-.121c1.205.122 2.894-.241 3.979.122-1.325-.001-3.013.241-3.979-.122zm19.171.121c.242-.362 1.086 0 1.568-.122-.242.364-1.084.122-1.568.122zm17.605-.121c.481.122 1.206-.241 1.447.122-.363-.001-1.207.241-1.447-.122z"/><path fill="#E7E7E6" d="M471.379 450.98c1.688.122 3.741-.241 5.064.122-1.567-.001-3.615.241-5.064-.122z"/><path fill="#C2BFBF" d="M107.007 451.101c-.482.242-2.05.242-2.652 0h2.652z"/><path fill="#E7E7E6" d="M481.629 451.101c1.809.121 4.102-.241 5.668.121-1.93 0-4.099.241-5.668-.121zm16.399.242c.24-.364 1.084 0 1.567-.122-.239.242-1.086.001-1.567.122zm57.273-.242c1.206.121 2.894-.241 3.978.121-1.206 0-2.895.241-3.978-.121zm6.993.242c.964.12 2.29-.242 2.893.12-.843-.12-2.171.121-2.893-.12z"/><path fill="#C2BFBF" d="M276.173 451.584c1.205-.362 3.015 0 4.34-.121-1.085.362-2.893 0-4.34.121zm9.766 0c-1.566-.121-3.616.241-4.942-.121 1.566.121 3.616-.241 4.942.121zm24.235 0c.965-.362 2.651 0 3.979-.121-1.086.362-2.773 0-3.979.121zm9.283 0c-1.567-.121-3.617.241-4.943-.121 1.567.121 3.617-.241 4.943.121z"/><path fill="#E7E7E6" d="M568.081 451.463c.964.121 2.291-.241 2.894.121-.964-.121-2.291.241-2.894-.121z"/><path fill="#C2BFBF" d="M271.952 451.705c.361-.362 1.325 0 1.93-.122-.363.363-1.327.122-1.93.122zm16.158-.121c.48.122 1.325-.24 1.566.122-.481-.001-1.326.24-1.566-.122zm18.567.121c.24-.362.964 0 1.447-.122-.242.363-1.086.122-1.447.122zm16.76 0c-.483-.122-1.326.241-1.568-.122.362.122 1.328-.12 1.568.122z"/><path fill="#E7E7E6" d="M574.35 451.584h4.942c-1.325.241-3.735.241-4.942 0z"/><path fill="#C2BFBF" d="M268.335 451.946c.241-.363 1.205 0 1.81-.122-.363.243-1.326.001-1.81.122zm24.718 0c-.482-.122-1.446.24-1.81-.122.605.001 1.568-.24 1.81.122zm9.524 0c.481-.363 1.567 0 2.291-.122-.482.243-1.567.001-2.291.122zm22.427-.241c.482.12 1.447-.242 1.81.12-.604 0-1.568.242-1.81-.12zm-93.324.604c-.12.242-1.326.242-1.445 0h1.445zm190.024 0c-.122.242-1.327.242-1.446 0h1.446zm-63.903 1.087c.604.122 1.688-.24 2.049.122-.603-.122-1.688.12-2.049-.122zm28.454 3.745c.242.362.242 1.812 0 2.174v-2.174z"/><path fill="#599636" d="M334.892 467.166c-.241-.121-.241-1.329 0-1.449v1.449z"/><path fill="#E7E7E6" d="M45.394 471.997v3.986c-.24-.965-.24-3.019 0-3.986z"/><path fill="#C2BFBF" d="M362.623 475.5c-.604.24-2.171.24-2.773 0h2.773z"/><path fill="#E7E7E6" d="M41.174 476.708c.362.604 0 1.813.12 2.656-.361-.602 0-1.81-.12-2.656zm4.22 1.813c.362.24 0 1.086.121 1.57-.361-.242 0-1.088-.121-1.57z"/><path fill="#C2BFBF" d="M357.92 481.781c-.844.242-2.652.242-3.496 0h3.496z"/><path fill="#E7E7E6" d="M606.545 442.524a16.48 16.48 0 0 1 2.049-2.052 16.549 16.549 0 0 1-2.049 2.052z"/><path fill="#C2BFBF" d="M42.379 442.524c.481 7.37.724 16.187 5.667 18.602h.121c-2.291 2.295-2.894 6.281-2.773 10.992-.24.968-.24 3.02 0 3.987v2.536c.121.483-.24 1.329.121 1.57v2.175h-.121c-1.326-.604-2.773-.967-4.1-1.448v-1.449c-.12-.846.242-2.054-.12-2.658-.121-5.436-.844-10.388-2.532-14.253.724.362.724-.483.845-.726.964-2.175 1.206-5.798 1.566-9.18.603-3.624.965-7.369 1.326-10.148zm11.335 14.012c.483-.604.964-1.087 1.447-1.449-.483.603-.963 1.087-1.447 1.449zm2.291-2.295a9.65 9.65 0 0 1 1.566-1.57c-.36.483-.963 1.087-1.566 1.57zM50.338 336.23a9.65 9.65 0 0 1 1.566 1.57 9.69 9.69 0 0 1-1.566-1.57zM28.755 453.517a27.26 27.26 0 0 1 2.652 2.657 27.945 27.945 0 0 1-2.652-2.657z"/><path fill="#E7E7E6" d="M463.664 374.279c0-.604 1.328-.604 1.809-.242-.725 0-1.568-.12-1.809.242zm66.195 8.697a32.523 32.523 0 0 1 2.894 2.899 32.929 32.929 0 0 1-2.894-2.899zm-11.093 56.045c.482-.604 1.085-1.207 1.809-1.812-.603.726-1.206 1.33-1.809 1.812z"/><path fill="none" d="M6.087 396.625v-75.01h607.45v104.121c-.843-10.992-8.682-15.22-17.604-18.118 6.149-2.899 11.816-7.369 11.816-15.824 0-14.736-13.385-18.239-29.3-17.515-1.447.121-3.255-.242-4.461.121H555.3c-.242-.362-1.205 0-1.808-.121-1.206 0-2.412 0-3.498-.121-.967 1.329-1.93 2.657-2.053 4.832 5.187.966 12.181 0 11.216 7.126v44.571c-.362 1.449 0 3.503-.121 5.073-.241 3.382.361 6.522-1.205 8.334-1.689 1.933-5.065 1.448-8.321 2.053-.723 1.33-1.809 3.02-1.569 4.831 2.172.364 5.066 0 7.479.122.962.362 2.651 0 3.978.121h3.014c.726.362 2.051 0 2.894.122h2.773c.725.362 2.049 0 2.895.121h3.375c1.326.241 3.616.241 4.942 0 11.938-.121 20.74-3.503 27.252-9.06a16.429 16.429 0 0 0 2.049-2.054c2.651-3.261 4.583-7.126 4.944-12.562v54.354H45.515v-2.175c-.121-.482.241-1.329-.121-1.57v-6.522c-.12-4.711.482-8.577 2.773-10.993 1.929-1.449 3.737-3.02 5.546-4.47.603-.481 1.086-.966 1.446-1.448.361-.241.604-.482.845-.846a9.644 9.644 0 0 0 1.566-1.569c10.852-12.321 19.171-27.058 20.136-49.403.361-.241 0-1.208.12-1.812V399.4c-.12-.482.241-1.449-.12-1.811-.483-13.529-3.979-24.763-8.44-34.426-4.462-9.784-10.37-18.118-17.363-25.607a9.656 9.656 0 0 0-1.567-1.57c-3.979-3.382-6.391-8.334-8.802-13.287 0-.483-.241-.725-.241-1.208-.361 5.919-4.582 8.456-7.959 11.717-6.751 6.281-11.937 13.649-16.517 22.225-6.149 11.598-9.644 24.281-10.73 41.192zm313.37 21.863c-.362-10.63-6.27-19.326-16.759-18.723-3.618.241-6.632 1.691-9.284 3.262-2.773 1.57-4.943 3.623-7.476 4.951-.48-2.536.964-6.28-.48-7.972-3.136 1.087-6.15 2.175-9.888 3.021-2.412.604-9.646.725-9.525 3.502.12 1.691 3.015 2.054 4.823 2.778 2.05.846 4.46 1.812 4.341 3.624.119 1.449-.241 3.262.119 4.469v13.528c-.36 1.208 0 3.141-.119 4.711v2.778c-.362.362 0 1.329-.122 1.933 1.086 5.798-3.497 5.919-7.476 6.766-.482 1.208-.361 3.382 0 4.709.241 0 .241.242.603.122.483-.122 1.447.24 1.809-.122h1.93c.603-.12 1.566.242 1.93-.12h2.291c1.447-.122 3.255.241 4.34-.122h.483c1.326.363 3.376 0 4.942.122h2.171c.241.362 1.086 0 1.567.12h1.566c.242.363 1.207 0 1.81.122h.481c.603-1.208.844-3.261.603-4.953-2.772-.482-6.028 0-7.234-2.054-.843-1.448-.481-3.382-.603-5.798-.12-1.449.241-3.261-.12-4.349v-19.447c.723-5.074 5.546-6.16 10.61-6.885h1.809c7.596.604 10.731 5.556 10.368 14.011.122 1.087-.239 2.537.122 3.382v9.905c0 3.261.603 7.489-.603 9.301-1.206 1.933-4.342 1.086-6.754 2.054 0 .481-.24.725-.119 1.328-.241.121-.241 1.329 0 1.449-.121.846.119 1.329.241 1.933.121.122.361.242.724.122.724-.122 1.809.24 2.292-.122h1.809c.481-.12 1.206.242 1.447-.12h2.049c1.207-.122 2.895.241 3.979-.122h.481c1.327.363 3.376 0 4.943.122h2.29c.242.362 1.085 0 1.567.12h1.567c.24.362 1.207 0 1.81.122.239 0 .48 0 .603-.122.723-1.207.723-3.02.603-4.709-3.738-1.208-9.285-.483-8.2-6.403-.121-1.086.242-2.656-.121-3.502v-16.79c-.119-.725.122-1.691-.24-1.932zm145.894-44.451c-.36-.241-1.687-.241-1.809.242-.724 1.45-1.686 2.657-2.049 4.349 6.029 1.087 13.383.725 12.298 8.938.123 2.416-.239 5.315.123 7.489v5.677c-.362 10.268 0 21.139-.123 31.647v3.02c-.359.362 0 1.449-.121 2.054.848 6.401-2.771 8.334-8.319 8.455-.842 1.208-1.565 2.656-1.565 4.831.359.362 1.444 0 2.047.121h5.547c1.448.363 3.497 0 5.064.121h5.063c1.569.363 3.86 0 5.669.122h10.729c.482-.122 1.327.241 1.569-.122 24.597-2.053 39.909-13.408 41.838-38.291.242-.966.242-3.02 0-4.106-.481-10.146-3.978-17.152-8.801-22.95a32.855 32.855 0 0 0-2.895-2.899c-6.149-5.194-14.35-8.576-25.321-8.938-2.29-.242-5.545-.242-7.717 0h-4.942c-1.086.121-2.533-.242-3.378.121h-2.893c-.966.121-2.291-.242-3.015.121h-7.718c-.603-.362-1.808 0-2.653-.121h-2.168c-.483-.362-1.45 0-2.172-.121-.719.24-1.442.24-2.288.24zM122.32 405.201c-.12-1.813.482-3.744-.12-5.073-3.979 1.329-9.524 3.02-14.589 3.985-1.809.363-4.461.363-4.342 2.054 0 1.329 3.498 2.054 4.823 2.657 3.377 1.449 5.307 2.175 4.462 7.248v18.118c-.361.725 0 2.174-.121 3.262v2.174c-.362.241 0 1.086-.121 1.57.725 5.436-4.341 5.193-7.957 6.16-.362 1.208-.241 2.657 0 3.987h.12c.482.24 2.05.24 2.652 0h1.566c.483-.122 1.207.24 1.447-.122h2.05c1.205-.121 2.771.241 3.737-.121h2.169c.965.362 2.533 0 3.618.121h2.05c.241.362 1.086 0 1.566.122h1.809c.482.24 2.291.362 2.652-.122.122-1.208.482-2.657.122-3.986-3.98-.604-8.562-.725-7.598-6.281-.12-1.689.241-3.744-.12-5.314v-15.461c.361-1.812 0-4.349.12-6.401.362-2.175 2.894-3.504 4.823-4.349 2.05-.966 4.462-1.57 6.512-1.812h1.446c7.113.482 9.888 5.436 10.249 12.803.12.483-.241 1.329.12 1.57v13.408c-.361.481 0 1.689-.12 2.536v2.054c-.361.241 0 .966-.122 1.449.726 5.194-3.856 5.194-7.716 5.798-.481.967-.241 2.778-.121 3.986.724.604 2.895.362 3.739.122h2.771c.964-.122 2.292.24 3.016-.122h6.872c.964.362 2.653 0 3.979.122h2.652c.48.24 2.05.362 2.29-.122.241-1.086.604-2.657.241-3.986-3.134-.846-7.595-.482-7.716-4.349v-24.641c-.121-.482.24-1.449-.121-1.812-1.446-4.228 1.206-5.436 4.102-6.765a16.527 16.527 0 0 1 6.028-1.57h2.29c6.873.725 10.128 5.194 10.248 12.804.122.725-.24 1.691.122 2.175v13.407c-.362 1.087 0 2.779-.122 4.106.844 5.315-3.135 5.919-6.992 6.523 0 .362-.242.604-.121.966-.242.121-.242 1.329 0 1.449-.121.725.241.967.121 1.57h2.29c.481-.122 1.326.242 1.567-.122h2.29c1.81-.12 3.979.242 5.547-.12h2.895c.843.362 2.29 0 3.376.12h1.929c.241.364.964 0 1.447.122h1.447c.36.242 2.05.362 2.17-.122.12-.844.482-1.57.482-2.656.24-.241.12-1.207 0-1.449h-.482c-4.581-.604-9.163-1.087-7.957-7.488.36-3.021 0-6.644.119-9.905v-6.039c.362-13.167-3.255-22.226-14.71-23.554-.481-.242-2.05-.242-2.652 0h-.481c-7.115.966-11.454 5.314-16.639 8.213-2.773-3.865-5.668-7.609-11.817-8.213-.48-.242-1.929-.242-2.29 0-3.738.482-6.632 1.812-9.164 3.261-2.532 1.45-4.823 3.261-7.475 4.47 0-.242-.362-.242-.482-.604.125-.483.125-1.207.125-1.811zm109.36-5.194c-9.766.846-17.965 5.315-22.427 12.441-5.666 8.817-3.858 25.244 2.773 32.251a9.69 9.69 0 0 0 1.566 1.57c3.979 3.501 9.284 5.798 16.641 6.039.119.242 1.326.242 1.445 0 7.718-.604 13.746-3.382 18.207-7.609 4.462-4.228 6.993-9.905 7.596-17.394 1.206-15.582-7.355-25.849-22.306-27.299-.842-.24-2.65-.24-3.495.001zm126.723 0c-11.214 1.812-20.136 6.04-21.462 17.997-.241.484-.241 1.934 0 2.537.603 7.006 2.772 10.992 7.596 13.891 1.206.725 4.101 1.329 4.22 2.175.242 1.328-3.375 2.897-4.459 3.501-1.447.846-4.221 2.176-4.462 3.503-.361 1.813 1.446 4.107 2.17 4.953 1.567 1.69 3.618 2.295 5.546 3.623-4.221 4.47-11.333 6.162-12.539 13.528-.242.122-.242 1.33 0 1.45 1.688 9.783 8.921 13.891 19.532 14.615.844.241 2.651.241 3.497 0 14.469-1.448 26.165-8.576 28.335-22.467.243-.362.243-1.812 0-2.175-.963-12.078-13.021-12.2-24.959-13.045-4.1-.241-10.127 0-9.645-4.469.362-3.503 5.788-2.899 8.803-3.503 1.809-.362 3.496-1.088 5.063-1.813 7.114-3.02 11.938-7.73 12.421-17.394.241-.241.241-1.57 0-1.933 0-1.812-.725-3.744-.725-5.314 6.27 1.812 11.453-1.812 9.767-8.817-1.687.846-3.497 2.898-6.873 2.657h-2.532c-6.391-.241-9.767-3.624-16.278-3.624-.725-.117-2.414-.117-3.016.124zm63.421 0c-14.71 1.812-24.355 8.696-25.924 23.554-.36.242 0 .967-.12 1.45v1.57c.12.482-.24 1.328.12 1.57 1.449 14.736 8.924 23.432 24.357 24.157.12.242 1.326.242 1.446 0 15.555-1.812 24.958-9.785 25.923-26.091.24-.482.24-1.932 0-2.536-1.085-14.253-8.561-22.104-22.306-23.675-.842-.24-2.652-.24-3.496.001z"/><path fill="#C2BFBF" d="M127.143 451.101c.844-.122 2.049.121 2.651-.122-.361.605-2.049.364-2.651.122zm10.25-.121c.964.363 2.532 0 3.737.122-.844.241-3.134.482-3.737-.122zm23.029.121c.722-.122 1.809.121 2.29-.122-.24.484-1.808.364-2.29.122zm33.277 0c.724-.122 1.688.121 2.17-.122-.24.484-1.806.364-2.17.122zm2.533-2.779c0-.604.121-1.449-.481-1.449h.481c.242.242.363 1.329 0 1.449z"/><path fill="#E7E7E6" d="M212.028 444.699a9.494 9.494 0 0 1 1.566 1.57c-.604-.362-1.084-.966-1.566-1.57z"/><path fill="#69B240" d="M6.087 396.625c1.086-17.031 4.703-29.714 10.731-41.068 4.581-8.456 9.646-15.824 16.517-22.226 3.498-3.261 7.718-5.677 7.959-11.716 0 .483.361.604.242 1.208 1.688 23.795 1.566 49.523 1.566 75.01 0 14.856.481 30.197-.845 44.571-.361 2.657-.724 6.522-1.206 9.904s-.604 7.126-1.567 9.181c-.12.241-.12 1.087-.844.726-2.412-2.054-4.944-4.107-7.234-6.281a27.598 27.598 0 0 0-2.652-2.657c-11.696-12.685-21.1-27.541-22.787-50.37.12-1.934.12-4.108.12-6.282z"/><path fill="#599636" d="M41.656 322.943c2.412 4.952 4.824 9.905 8.802 13.287a9.69 9.69 0 0 0 1.566 1.57c6.873 7.368 12.902 15.824 17.364 25.607 4.46 9.663 7.957 20.896 8.439 34.425v5.556c-.845 22.226-9.285 37.083-20.136 49.402a9.578 9.578 0 0 0-1.566 1.571 2.81 2.81 0 0 1-.845.844c-.603.483-1.083.968-1.447 1.45-1.81 1.57-3.617 3.142-5.545 4.469h-.121c-4.943-2.295-5.186-11.112-5.667-18.602 1.448-14.372.845-29.592.845-44.57-.121-25.485-.121-51.213-1.689-75.009z"/><path fill="none" d="M579.535 380.197c9.887 0 16.638 6.281 15.794 16.307-.723 8.214-7.474 11.596-18.085 10.509-.604-.362-1.93 0-2.775-.12-1.083 0-2.412.12-3.254-.121-.122-.121-.122-.242-.122-.483v-15.582c.361-1.449 0-3.503.122-5.073 0-2.053-.24-4.348.842-5.314.483-.242 1.086-.121 1.809-.121.483-.121 1.207.242 1.449-.121h2.771c.244.24.967-.001 1.449.119zM357.68 404.838c12.541-.361 14.83 25.608 2.17 26.695h-2.17c-7.354-.967-10.128-6.402-10.73-14.012v-2.295c.481-5.798 2.773-9.663 8.318-10.389h2.412zm-124.191 42.035c-5.426-.362-9.283-3.02-11.936-6.766-6.512-8.937-7.476-29.714 3.014-34.184 4.221-1.811 9.524-.604 12.781 1.45 5.909 3.744 8.923 11.112 9.164 20.775v1.45c-.122 9.542-2.774 16.427-11.575 17.272l-1.448.003zm126.361 6.644c7.355.482 14.349 1.086 16.76 6.16 1.446 3.142.723 7.127-.726 9.663-2.41 3.865-7.354 6.04-13.261 6.281h-2.773c-6.872-.241-13.021-3.02-15.072-8.093-2.532-6.402 2.533-11.957 7.476-13.769 1.205-.483 3.618-.483 5.547-.483.361.362 1.446.12 2.049.241zm126.361-69.696c-.842-5.436 5.186-3.986 9.646-4.228.238.362.965 0 1.445.121 19.293 1.329 29.664 11.596 31.108 30.801v4.711c-.239 9.784-3.135 16.79-7.837 22.104-.603.483-1.205 1.087-1.809 1.812-3.014 2.899-8.077 5.919-14.709 6.281-8.683.483-18.208-.604-17.846-9.542-.121-1.086.24-2.537-.121-3.383v-44.934c.363-.965.002-2.535.123-3.743zM6.087 403.147c1.567 22.829 11.093 37.687 22.789 50.369a27.474 27.474 0 0 0 2.651 2.657c2.291 2.175 4.823 4.228 7.235 6.28 1.688 3.987 2.412 8.818 2.532 14.254.12.845-.241 2.053.12 2.656v1.449c1.327.483 2.773.846 4.101 1.45H6.207c-.12-26.329-.12-52.783-.12-79.115zm400.665 17.032c-.48-11.476 10.009-18.843 20.138-13.045 6.149 3.624 9.284 11.354 9.646 20.172v3.503c-.363 8.938-3.014 15.34-11.577 16.064h-1.566c-11.454-1.449-15.555-10.146-16.641-22.104v-4.59zm164.343-7.006c.122-.604.725-.604 1.446-.604h7.234c5.788.242 10.248 1.088 14.108 3.625 6.752 4.469 9.042 16.064 3.737 23.312-2.411 3.384-6.148 5.436-11.697 5.799h-4.34c-6.512.241-10.369-2.175-10.491-8.334-.119-.483.242-1.449-.119-1.812v-3.262c.122-6.042.122-12.443.122-18.724z"/><path fill="#47474A" d="M275.327 412.932c0-1.813-2.29-2.778-4.34-3.624-1.809-.725-4.703-1.087-4.823-2.778-.241-2.777 7.113-2.898 9.524-3.502 3.738-.846 6.753-2.055 9.888-3.021 1.447 1.812 0 5.557.483 7.972 2.531-1.328 4.702-3.502 7.475-4.951 2.652-1.45 5.667-3.021 9.284-3.262 10.491-.604 16.398 7.972 16.76 18.723v1.932c.119 4.229-.241 8.938.119 13.046v3.744c.122 1.086-.24 2.657.122 3.502-1.084 6.039 4.461 5.195 8.199 6.403.12 1.689.12 3.501-.603 4.709-.122.122-.362.122-.603.122-.241-.363-1.207 0-1.81-.122h-1.566c-.241-.362-1.086 0-1.568-.12h-2.29c-1.326-.363-3.374 0-4.943-.122h-.481c-1.206.122-2.894-.241-3.979.122h-2.05c-.483.12-1.206-.242-1.447.12h-1.809c-.724.122-1.81-.241-2.292.122-.361 0-.603 0-.724-.122-.12-.604-.361-1.086-.241-1.933v-1.448c-.121-.604.121-.846.121-1.328 2.29-.968 5.426-.122 6.752-2.054 1.205-1.812.603-6.04.603-9.301v-9.905c-.121-1.087.241-2.536-.121-3.382.362-8.455-2.773-13.407-10.369-14.011-.24-.242-1.446-.242-1.809 0-5.063.725-9.887 1.811-10.609 6.885a159.607 159.607 0 0 0 0 15.219v4.228c.12 1.45-.242 3.262.12 4.349.12 2.538-.241 4.47.603 5.798 1.207 2.054 4.461 1.449 7.233 2.054.363 1.691 0 3.745-.603 4.953h-.481c-.241-.363-1.205 0-1.809-.122h-1.567c-.241-.362-1.086 0-1.566-.12h-2.172c-1.326-.362-3.376 0-4.942-.122h-.483c-1.445.122-3.254-.24-4.34.122h-2.291c-.604.12-1.567-.242-1.93.12h-1.929c-.483.122-1.447-.241-1.809.122-.362.121-.362-.122-.603-.122-.362-1.328-.483-3.382 0-4.709 3.978-.727 8.439-.968 7.475-6.766.362-.362 0-1.329.122-1.933v-1.329c.361-.24 0-.966.119-1.449V417.4c0-1.449.363-3.261 0-4.468zm-162.773 3.019c.725-5.073-1.206-5.919-4.462-7.248-1.325-.482-4.702-1.328-4.823-2.656-.119-1.691 2.533-1.691 4.342-2.054 5.064-.966 10.49-2.657 14.589-3.986.724 1.45 0 3.382.12 5.073-.241.362-.241 1.691 0 2.054 0 .241.361.241.482.604 2.652-1.329 4.823-3.14 7.476-4.47 2.652-1.449 5.426-2.777 9.163-3.261h2.291c6.148.483 9.043 4.349 11.816 8.214 5.184-2.898 9.526-7.127 16.64-8.214h3.135c11.454 1.329 15.071 10.388 14.711 23.554-.363 1.691 0 3.986-.122 6.04v9.904c-1.206 6.281 3.498 6.885 7.958 7.489.604 0 .482.846.482 1.449 0 .967-.361 1.691-.482 2.657-.481.242-1.446.121-2.17.121h-1.446c-.241-.362-.965 0-1.447-.121h-1.93c-.843-.362-2.29 0-3.376-.122h-2.894c-1.808.122-3.979-.24-5.546.122h-2.29c-.483.121-1.327-.241-1.568.121h-2.29c.119-.725-.241-.967-.121-1.57v-1.449c-.12-.482.121-.725.121-.967 3.858-.604 7.837-1.208 6.994-6.522.36-1.086 0-2.777.119-4.105v-3.262c.241-2.295.241-5.556 0-7.851V423.2c-.119-.726.241-1.691-.119-2.175 0-7.609-3.256-12.078-10.249-12.804-.483-.241-1.93-.241-2.292 0a17.185 17.185 0 0 0-6.028 1.57c-2.772 1.329-5.546 2.536-4.1 6.765v24.52c.121.604-.241 1.57.121 1.933.12 3.865 4.58 3.503 7.717 4.349.361 1.33 0 2.899-.241 3.987-.483.362-1.568.121-2.292.121h-2.651c-.965-.362-2.652 0-3.979-.121h-6.872c-.966.121-2.291-.241-3.015.121h-2.773c-1.205-.121-2.771.121-3.737-.121-.119-1.208-.36-2.898.121-3.987 3.858-.725 8.439-.604 7.717-5.797.361-.242 0-.967.12-1.45v-2.055c.362-.483 0-1.691.122-2.538v-1.933c.361-.482 0-1.69.119-2.536v-5.436c-.119-.604.242-1.691-.119-2.054v-1.449c-.122-.483.24-1.329-.122-1.57-.24-7.368-3.015-12.321-10.249-12.804-.121-.242-1.326-.242-1.446 0a15.98 15.98 0 0 0-6.512 1.813c-1.808.845-4.46 2.174-4.823 4.348-.36 1.813 0 4.349-.12 6.402v15.461c.12 1.69-.242 3.744.12 5.314-.965 5.557 3.618 5.676 7.597 6.28.361 1.207 0 2.779-.12 3.986-.604.363-1.809.121-2.653.121h-1.808c-.242-.362-1.086 0-1.568-.121h-2.05c-.965-.363-2.531 0-3.617-.121h-2.17c-1.205.121-2.771-.242-3.738.121h-2.049c-.482.121-1.205-.241-1.446.121h-4.343c-.24-1.208-.361-2.657 0-3.986 3.738-.966 8.683-.726 7.959-6.161.361-.24 0-1.086.121-1.57v-2.172c.36-.725 0-2.174.122-3.261v-2.537c.36-1.087 0-2.778.119-4.106v-7.127c-.125-1.57.115-3.382-.246-4.59zm99.474 28.748c-6.632-7.007-8.44-23.434-2.773-32.251 4.462-7.126 12.66-11.596 22.428-12.441h3.496c14.951 1.45 23.512 11.717 22.307 27.299-.603 7.488-3.135 13.166-7.597 17.394-4.461 4.228-10.49 7.006-18.206 7.609h-1.446c-7.356-.122-12.54-2.538-16.64-6.039-.484-.484-.967-1.087-1.569-1.571zm34.603-16.428c-.241-9.542-3.255-17.031-9.163-20.775-3.255-2.054-8.562-3.262-12.781-1.449-10.61 4.469-9.524 25.244-3.016 34.183 2.653 3.624 6.513 6.402 11.937 6.765.242.241 1.447.241 1.568 0 8.802-.846 11.454-7.729 11.575-17.273.122-.243.122-1.329-.12-1.451zm90.31-10.267c1.205-11.837 10.128-16.064 21.463-17.997h2.894c6.631 0 9.886 3.382 16.277 3.624.481.241 1.93.241 2.533 0 3.252.241 5.184-1.813 6.87-2.658 1.688 6.886-3.496 10.63-9.766 8.818 0 1.449.724 3.382.724 5.314v1.933c-.481 9.663-5.305 14.374-12.419 17.394-1.688.725-3.255 1.329-5.064 1.813-3.014.604-8.318 0-8.802 3.501-.48 4.47 5.547 4.228 9.646 4.47 11.938.846 23.994.846 24.958 13.045v2.175c-2.169 13.891-13.745 21.017-28.335 22.468h-3.496c-10.61-.727-17.846-4.832-19.532-14.617v-1.448c1.206-7.49 8.319-9.059 12.539-13.529-1.929-1.329-3.979-1.933-5.546-3.624-.845-.844-2.533-3.141-2.17-4.952.24-1.328 3.015-2.656 4.461-3.503 1.086-.604 4.823-2.173 4.461-3.502-.12-.845-3.016-1.449-4.221-2.174-4.823-2.899-6.993-6.885-7.597-13.891.122-.969.122-1.814.122-2.66zm18.207-13.166c-5.547.726-7.837 4.591-8.32 10.389-.241.482-.241 1.933 0 2.295.603 7.609 3.497 13.045 10.73 14.012.361.241 1.809.241 2.17 0 12.66-1.087 10.248-27.057-2.17-26.695-.36-.241-1.929-.241-2.41-.001zm2.653 48.558c-1.93 0-4.221 0-5.547.483-4.823 1.812-10.007 7.368-7.476 13.771 2.05 5.071 8.078 7.851 15.072 8.091.603.242 2.171.242 2.773 0 5.907-.24 10.851-2.415 13.262-6.279 1.446-2.416 2.172-6.522.725-9.663-2.411-5.073-9.405-5.678-16.76-6.162-.361-.483-1.446-.241-2.049-.241zm38.1-29.835c1.688-14.857 11.214-21.742 25.924-23.554h3.498c13.746 1.57 21.22 9.422 22.306 23.675v2.536c-1.084 16.307-10.368 24.4-25.922 26.091h-1.447c-15.434-.726-22.908-9.422-24.357-24.157v-3.14l-.002-1.451zm40.635 3.745c-.363-8.817-3.377-16.548-9.646-20.172-10.007-5.919-20.618 1.569-20.138 13.045-.239 1.208-.239 3.503 0 4.711 1.086 11.837 5.187 20.655 16.641 22.104.239.241 1.446.241 1.566 0 8.439-.725 11.214-7.125 11.577-16.065.24-.845.24-2.778 0-3.623z"/><g fill="none" stroke="#000" stroke-width=".3"><path d="M5.967 267.494v36M-48.033 321.494h36M-48.033 482.387h36M5.967 536.387v-36M613.537 267.494v36M667.537 321.494h-36M667.537 482.387h-36M613.537 536.387v-36"/></g></svg><svg viewBox="0 0 232.98 62.7" id="logo-nodejs" xmlns="http://www.w3.org/2000/svg"><g clip-path="url(#a)" transform="matrix(.13 0 0 -.13 0 62.7)"><path d="M279.48 235.04c0 5.418-2.847 10.399-7.527 13.086l-124.69 71.758c-2.11 1.238-4.473 1.883-6.868 1.98h-1.289a14.907 14.907 0 0 1-6.882-1.98l-124.68-71.77a15.116 15.116 0 0 1-7.54-13.08l.273-193.23c0-2.687 1.395-5.187 3.758-6.504a7.253 7.253 0 0 1 7.485 0l74.098 42.43c4.687 2.785 7.543 7.695 7.543 13.066v90.273c0 5.383 2.851 10.363 7.52 13.04l31.55 18.171a14.963 14.963 0 0 0 7.546 2.023c2.571 0 5.207-.664 7.493-2.023l31.543-18.172c4.668-2.676 7.531-7.656 7.531-13.039V90.796c0-5.371 2.89-10.312 7.547-13.066l74.082-42.43a7.33 7.33 0 0 1 7.527 0c2.297 1.317 3.742 3.817 3.742 6.504l.242 193.22M933.71 134.43c0-1.344-.719-2.59-1.887-3.258l-42.82-24.69a3.782 3.782 0 0 0-3.762 0l-42.828 24.688a3.759 3.759 0 0 0-1.883 3.258v49.453c0 1.34.719 2.586 1.879 3.262l42.828 24.734a3.758 3.758 0 0 0 3.77 0l42.828-24.734a3.785 3.785 0 0 0 1.879-3.262v-49.453zm11.57 366.22a7.535 7.535 0 0 1-7.484-.082 7.531 7.531 0 0 1-3.715-6.492v-191.36a5.284 5.284 0 0 0-2.633-4.563 5.258 5.258 0 0 0-5.273 0l-31.231 17.992a15.068 15.068 0 0 1-15.047-.003l-124.73-71.99a15.05 15.05 0 0 1-7.531-13.043v-144a15.071 15.071 0 0 1 7.527-13.047l124.73-72.05a15.073 15.073 0 0 1 15.07 0l124.74 72.039a15.075 15.075 0 0 1 7.53 13.047v358.96c0 5.461-2.96 10.492-7.73 13.156l-74.229 41.418M1391.6 185.17a15.055 15.055 0 0 1 7.49 13.023v34.895a15.05 15.05 0 0 1-7.5 13.027l-123.93 71.961a15.092 15.092 0 0 1-15.1.02l-124.69-71.989a15.058 15.058 0 0 1-7.53-13.043V89.104c0-5.414 2.91-10.41 7.61-13.086l123.8-70.608a15.05 15.05 0 0 1 14.77-.082l74.95 41.66a7.502 7.502 0 0 1 3.87 6.531 7.537 7.537 0 0 1-3.78 6.582l-125.48 72.023a7.515 7.515 0 0 0-3.79 6.531v45.118a7.535 7.535 0 0 0 3.77 6.523l39.06 22.516a7.522 7.522 0 0 0 7.52 0l39.07-22.516a7.535 7.535 0 0 0 3.77-6.523v-35.497a7.543 7.543 0 0 1 3.77-6.53 7.527 7.527 0 0 1 7.54.015l74.69 43.414" fill="#404137" fill-rule="evenodd"/><path d="M506.3 318.85a15.045 15.045 0 0 0 15.054 0l124.72-71.973a15.052 15.052 0 0 0 7.535-13.047V89.78a15.075 15.075 0 0 0-7.527-13.047L521.372 4.699a15.073 15.073 0 0 0-15.07 0L381.612 76.73a15.07 15.07 0 0 0-7.532 13.047v144.06a15.049 15.049 0 0 0 7.535 13.039l124.7 71.973" fill="#68a063" fill-rule="evenodd"/><path d="M1633.7 2.64c-4.3 0-8.57 1.126-12.33 3.301l-39.27 23.234c-5.86 3.282-3 4.442-1.07 5.118 7.83 2.714 9.41 3.34 17.76 8.074.87.488 2.02.305 2.92-.223l30.16-17.91c1.1-.605 2.64-.605 3.65 0l117.6 67.88c1.1.624 1.8 1.886 1.8 3.183v135.72c0 1.328-.7 2.57-1.82 3.242l-117.56 67.824c-1.09.633-2.53.633-3.63 0l-117.53-67.844c-1.14-.652-1.86-1.933-1.86-3.222V95.297c0-1.297.72-2.528 1.85-3.145l32.22-18.613c17.48-8.738 28.19 1.555 28.19 11.894v134c0 1.894 1.52 3.39 3.41 3.39h14.92c1.86 0 3.4-1.496 3.4-3.39v-134c0-23.328-12.7-36.707-34.82-36.707-6.8 0-12.15 0-27.09 7.363l-30.84 17.754c-7.62 4.403-12.33 12.637-12.33 21.453v135.72c0 8.82 4.71 17.05 12.33 21.437l117.61 67.957c7.44 4.211 17.33 4.211 24.71 0l117.6-67.957c7.62-4.406 12.35-12.617 12.35-21.437V95.296c0-8.816-4.73-17.02-12.35-21.453l-117.5-67.906a24.668 24.668 0 0 0-12.38-3.3" fill="#68a063"/><path d="M1670 96.148c-51.47 0-62.25 23.622-62.25 43.438a3.384 3.384 0 0 0 3.4 3.387h15.21a3.41 3.41 0 0 0 3.38-2.879c2.29-15.481 9.14-23.293 40.26-23.293 24.77 0 35.32 5.605 35.32 18.75 0 7.578-2.99 13.203-41.49 16.972-32.18 3.184-52.08 10.293-52.08 36.036 0 23.73 20 37.882 53.53 37.882 37.68 0 56.32-13.078 58.68-41.132.09-.969-.25-1.895-.89-2.618-.65-.675-1.55-1.086-2.49-1.086h-15.27c-1.58 0-2.98 1.125-3.3 2.657-3.66 16.289-12.57 21.496-36.73 21.496-27.05 0-30.19-9.426-30.19-16.485 0-8.554 3.71-11.046 40.23-15.878 36.14-4.778 53.31-11.543 53.31-36.946 0-25.625-21.37-40.301-58.63-40.301M1832.2 320.1v-3.485h-9.9v-25.793h-3.99v25.793h-9.86v3.485h23.75M1835.7 320.1h5.69l8.4-24.747 8.37 24.747h5.65v-29.278h-3.79V308.1c0 .605.01 1.589.03 2.957.04 1.406.06 2.89.06 4.464l-8.37-24.699h-3.93l-8.44 24.699v-.878c0-.723 0-1.817.05-3.301.03-1.457.07-2.539.07-3.242v-17.278h-3.79V320.1" fill="#68a063"/><path d="M1258.2 191.91c.9.52 2 .52 2.89 0l23.94-13.809a2.89 2.89 0 0 0 1.44-2.503v-27.637c0-1.035-.55-1.988-1.44-2.504l-23.94-13.809a2.877 2.877 0 0 0-2.89 0l-23.91 13.809a2.881 2.881 0 0 0-1.45 2.504v27.637c0 1.035.55 1.988 1.45 2.503l23.91 13.809" fill="#68a063" fill-rule="evenodd"/></g></svg><svg viewBox="0 0 464.5 463.09" id="logo-whatsapp" xmlns="http://www.w3.org/2000/svg"><path fill="#FFF" d="M393.14 69.01C349.96 25.83 292.579 2 231.47 2 105.51 2 2.94 104.5 2.94 230.45c-.07 40.27 10.46 79.569 30.48 114.229L1 463.09l121.17-31.819c33.32 18.229 70.98 27.789 109.23 27.859h.069c125.96 0 228.45-102.5 228.529-228.53.002-61.03-23.758-118.41-66.858-161.59zm-161.67 351.5h-.069c-34.069 0-67.541-9.188-96.67-26.45l-6.95-4.108-71.949 18.83 19.199-70.08-4.479-7.17c-19.05-30.25-29.06-65.222-29.06-101.08 0-104.66 85.239-189.83 190.05-189.83 50.729 0 98.39 19.8 134.25 55.66 35.859 35.93 55.59 83.6 55.59 134.32C421.38 335.34 336.13 420.51 231.47 420.51z"/><path fill="#25D366" d="M365.789 96.28c-35.859-35.86-83.521-55.66-134.25-55.66-104.81 0-190.049 85.17-190.049 189.83 0 35.858 10.01 70.83 29.06 101.08l4.479 7.17-19.199 70.08 71.949-18.83 6.95 4.108c29.13 17.262 62.601 26.45 96.67 26.45h.069c104.66 0 189.91-85.17 189.91-189.91.002-50.718-19.727-98.388-55.589-134.318zM343.31 312.11c-4.779 13.369-27.569 25.55-38.55 27.188-9.859 1.42-22.34 2.021-36.01-2.31-8.29-2.62-18.9-6.13-32.5-12.03-57.3-24.729-94.73-82.4-97.57-86.141-2.83-3.811-23.3-31-23.3-59.089s14.71-41.91 19.939-47.59c5.23-5.75 11.431-7.17 15.24-7.17 3.811 0 7.62 0 10.91.15 3.51.22 8.22-1.35 12.85 9.78 4.78 11.43 16.21 39.6 17.631 42.44 1.42 2.84 2.39 6.2.52 10.01-1.94 3.81-2.91 6.2-5.75 9.49-2.84 3.36-5.97 7.47-8.59 10.01-2.84 2.84-5.83 5.9-2.46 11.65 3.28 5.68 14.79 24.43 31.75 39.52 21.81 19.5 40.189 25.552 45.939 28.392 5.68 2.84 9.04 2.319 12.33-1.42 3.359-3.812 14.27-16.66 18.079-22.41 3.811-5.68 7.62-4.78 12.851-2.84 5.221 1.87 33.311 15.688 38.99 18.528 5.76 2.91 9.561 4.33 10.979 6.722 1.422 2.39 1.422 13.82-3.278 27.12z"/><path fill="#FFF" d="M343.31 312.11c-4.779 13.369-27.569 25.55-38.55 27.188-9.859 1.42-22.34 2.021-36.01-2.31-8.29-2.62-18.9-6.13-32.5-12.03-57.3-24.729-94.73-82.4-97.57-86.141-2.83-3.811-23.3-31-23.3-59.089s14.71-41.91 19.939-47.59c5.23-5.75 11.431-7.17 15.24-7.17 3.811 0 7.62 0 10.91.15 3.51.22 8.22-1.35 12.85 9.78 4.78 11.43 16.21 39.6 17.631 42.44 1.42 2.84 2.39 6.2.52 10.01-1.94 3.81-2.91 6.2-5.75 9.49-2.84 3.36-5.97 7.47-8.59 10.01-2.84 2.84-5.83 5.9-2.46 11.65 3.28 5.68 14.79 24.43 31.75 39.52 21.81 19.5 40.189 25.552 45.939 28.392 5.68 2.84 9.04 2.319 12.33-1.42 3.359-3.812 14.27-16.66 18.079-22.41 3.811-5.68 7.62-4.78 12.851-2.84 5.221 1.87 33.311 15.688 38.99 18.528 5.76 2.91 9.561 4.33 10.979 6.722 1.422 2.39 1.422 13.82-3.278 27.12z"/></svg></svg>