<?xml version="1.0" standalone="no"?>
<!DOCTYPE svg PUBLIC "-//W3C//DTD SVG 20010904//EN"
 "http://www.w3.org/TR/2001/REC-SVG-20010904/DTD/svg10.dtd">
<svg version="1.0" xmlns="http://www.w3.org/2000/svg"
 width="283.000000pt" height="283.000000pt" viewBox="0 0 283.000000 283.000000"
 preserveAspectRatio="xMidYMid meet">
<metadata>
Created by potrace 1.11, written by Peter Selinger 2001-2013
</metadata>
<g transform="translate(0.000000,283.000000) scale(0.100000,-0.100000)"
fill="#000000" stroke="none">
<path d="M0 1415 l0 -985 820 0 820 0 0 79 c0 72 -3 83 -35 137 -124 205 -123
595 1 991 34 110 34 115 32 264 l-3 151 -177 -399 -177 -400 -78 -361 -77
-362 -192 0 c-178 0 -192 1 -188 18 3 9 38 172 79 361 l74 345 -111 435 c-62
240 -113 438 -114 440 -2 2 -29 -9 -61 -24 -75 -37 -191 -151 -226 -225 -53
-109 -72 -278 -42 -376 8 -27 15 -51 15 -53 0 -2 -24 0 -52 3 -117 16 -178 66
-199 163 -31 152 61 335 234 467 183 139 372 206 582 206 100 0 105 -1 110
-22 52 -220 193 -789 197 -793 2 -3 81 177 173 400 l169 405 33 0 33 0 0 60 0
60 -820 0 -820 0 0 -985z"/>
<path d="M2265 2274 c-195 -49 -370 -204 -483 -429 -168 -334 -232 -817 -142
-1074 58 -165 173 -247 382 -274 149 -19 319 18 467 100 112 62 232 190 276
296 15 37 15 38 -8 46 -21 8 -32 1 -94 -59 -111 -109 -236 -160 -392 -160 -98
0 -148 16 -196 65 -67 66 -80 124 -79 345 0 161 4 201 27 312 59 279 159 512
270 634 73 80 118 104 191 104 95 0 143 -61 133 -169 -6 -66 -26 -112 -70
-158 -36 -38 -29 -53 38 -79 158 -60 269 103 209 305 -21 73 -98 150 -179 181
-78 30 -260 37 -350 14z"/>
</g>
</svg>
