<svg version="1" xmlns="http://www.w3.org/2000/svg" width="346.667" height="346.667" viewBox="0 0 260.000000 260.000000"><path d="M54 11.1c-8.4 1.4-19.2 7-26.1 13.6C20.6 31.6 14.5 43.2 13 53c-1.3 8.7-1.3 145.3 0 154 3 19.3 18.4 36.1 37.7 41.2 3.7 1 22.6 1.3 80.3 1.3h75.5l6.5-2.3c15.5-5.6 26.5-16.7 32.2-32.4l2.3-6.3v-157l-2.3-6.4c-6.5-18-22-31.2-40.2-34.1-8.1-1.2-143.1-1.2-151 .1zM86.4 50c5.6 9.2 17.3 28.4 26.1 42.8 8.7 14.4 16.4 26.2 17 26.2.5-.1 4.7-6.3 9.3-13.8 4.5-7.5 16.2-26.8 26-42.7l17.7-29 12.3-.3c6.8-.1 12.2.1 12.2.6s-2.4 4.9-5.3 9.8c-5.6 9.2-8.8 14.5-41.3 67.5L141 142.8V201h65v21H52v-21h65v-57.5l-15.3-25c-8.4-13.8-18.6-30.4-22.6-37-23.5-38.3-28.9-47.4-28.3-47.9.3-.4 6.2-.5 13.1-.4l12.5.3 10 16.5zM.5 130c0 48.1.1 67.8.2 43.8.2-24.1.2-63.5 0-87.5C.6 62.2.5 81.9.5 130zM259.5 86.5c0 24.2.1 34 .2 21.7.2-12.3.2-32.1 0-44-.1-11.9-.2-1.9-.2 22.3zM259.5 174c0 23.9.1 33.7.2 21.8.2-12 .2-31.6 0-43.5-.1-12-.2-2.2-.2 21.7z"/></svg>