
<svg xmlns="http://www.w3.org/2000/svg" x="0px" y="0px" width="125px" height="148px" viewBox="0 -1 125 148" enable-background="new 0 -1 125 148" xml:space="preserve">

<path fill="#FFF" d="M8.973,47.635C3.911,47.635,0,51.776,0,56.608v37.963c0,5.061,4.141,9.202,9.203,9.202
	c5.062,0,9.203-4.142,8.973-9.202V56.608C18.176,51.776,14.034,47.635,8.973,47.635 M82.366,13.354L88.809,1.85
	c0.23-0.69,0.23-1.381-0.46-1.611s-1.381,0-1.61,0.46l-6.442,11.733c-5.292-2.301-11.504-3.681-17.716-3.681
	c-6.442,0-12.424,1.38-17.716,3.681L38.422,0.7c-0.229-0.69-1.15-0.92-1.61-0.46c-0.69,0.23-0.92,1.15-0.46,1.611l6.442,11.503
	C29.68,19.796,21.396,32.22,21.396,46.254h81.907C103.304,32.22,94.791,19.796,82.366,13.354 M43.714,31.299
	c-1.841,0-3.451-1.61-3.451-3.451c0-1.84,1.61-3.451,3.451-3.451s3.451,1.611,3.451,3.451
	C47.165,29.919,45.555,31.299,43.714,31.299 M80.986,31.299c-1.841,0-3.451-1.61-3.451-3.451c0-1.84,1.61-3.451,3.451-3.451
	s3.451,1.611,3.451,3.451C84.438,29.919,82.827,31.299,80.986,31.299 M21.627,49.245v58.9c0,5.291,4.371,9.663,9.663,9.663h6.672
	v20.246c0,5.062,4.142,9.203,8.974,9.203c5.062,0,9.202-4.142,9.202-9.203v-20.246h12.194v20.246c0,5.062,4.142,9.203,8.973,8.973
	c5.062,0,9.203-4.141,9.203-9.202v-20.017h6.673c5.291,0,9.663-4.372,9.663-9.663v-58.9H21.627z M124.7,56.608
	c0-5.062-4.141-8.973-8.973-8.973c-5.062,0-8.973,4.142-8.973,9.203V94.8c0,5.062,4.141,8.973,8.973,8.973
	c5.062,0,8.973-4.142,8.973-9.202V56.608z"/>
</svg>
