<?xml version="1.0" encoding="utf-8"?>
<!-- Generator: Adobe Illustrator 15.1.0, SVG Export Plug-In . SVG Version: 6.00 Build 0)  -->
<!DOCTYPE svg PUBLIC "-//W3C//DTD SVG 1.1//EN" "http://www.w3.org/Graphics/SVG/1.1/DTD/svg11.dtd">
<svg version="1.1" id="Layer_1" xmlns="http://www.w3.org/2000/svg" xmlns:xlink="http://www.w3.org/1999/xlink" x="0px" y="0px"
	 width="444.417px" height="433.428px" viewBox="0 0 444.417 433.428" enable-background="new 0 0 444.417 433.428"
	 xml:space="preserve">
<path d="M222.209,0C99.57,0,0,99.45,0,222.208c0,98.136,63.71,181.449,151.925,210.854c11.116,2.032,14.702-4.781,14.702-10.639
	v-41.477c-61.798,13.507-74.707-26.178-74.707-26.178c-10.041-25.699-24.624-32.513-24.624-32.513
	c-20.2-13.746,1.555-13.507,1.555-13.507c22.352,1.554,34.066,22.95,34.066,22.95c19.842,33.946,51.996,24.146,64.666,18.407
	c2.032-14.344,7.77-24.145,14.104-29.763c-49.366-5.618-101.243-24.624-101.243-109.85c0-24.265,8.727-44.107,22.95-59.646
	c-2.271-5.618-9.921-28.209,2.151-58.809c0,0,18.647-5.977,61.081,22.83c17.69-4.9,36.696-7.411,55.582-7.53
	c18.886,0.12,37.891,2.51,55.701,7.53c42.434-28.688,61.08-22.83,61.08-22.83c12.073,30.6,4.543,53.191,2.152,58.809
	c14.224,15.539,22.83,35.381,22.83,59.646c0,85.346-51.996,104.112-101.482,109.61c8.009,6.933,15.301,20.439,15.301,41.119
	c0,29.763,0,53.669,0,60.961c0,5.856,3.586,12.789,14.821,10.638c88.214-29.404,151.805-112.718,151.805-210.853
	C444.417,99.45,344.848,0,222.209,0z"/>
</svg>
